G04 #@! TF.GenerationSoftware,KiCad,Pcbnew,(5.1.2)-2*
G04 #@! TF.CreationDate,2019-10-25T23:49:28+03:00*
G04 #@! TF.ProjectId,JLH,4a4c482e-6b69-4636-9164-5f7063625858,rev?*
G04 #@! TF.SameCoordinates,Original*
G04 #@! TF.FileFunction,Copper,L2,Bot*
G04 #@! TF.FilePolarity,Positive*
%FSLAX46Y46*%
G04 Gerber Fmt 4.6, Leading zero omitted, Abs format (unit mm)*
G04 Created by KiCad (PCBNEW (5.1.2)-2) date 2019-10-25 23:49:28*
%MOMM*%
%LPD*%
G04 APERTURE LIST*
%ADD10C,0.300000*%
%ADD11C,2.500000*%
%ADD12C,1.600000*%
%ADD13R,1.600000X1.600000*%
%ADD14C,2.000000*%
%ADD15R,2.000000X2.000000*%
%ADD16R,2.400000X2.400000*%
%ADD17C,2.400000*%
%ADD18C,1.500000*%
%ADD19C,5.000000*%
%ADD20O,2.400000X2.400000*%
%ADD21R,1.800000X1.800000*%
%ADD22C,1.800000*%
%ADD23C,4.000000*%
%ADD24R,4.000000X4.000000*%
%ADD25C,0.100000*%
%ADD26C,2.700000*%
%ADD27C,6.400000*%
%ADD28C,1.000000*%
%ADD29C,2.500000*%
%ADD30C,5.000000*%
%ADD31C,0.254000*%
G04 APERTURE END LIST*
D10*
X35480714Y-32678571D02*
X35552142Y-32750000D01*
X35695000Y-32821428D01*
X36052142Y-32821428D01*
X36195000Y-32750000D01*
X36266428Y-32678571D01*
X36337857Y-32535714D01*
X36337857Y-32392857D01*
X36266428Y-32178571D01*
X35409285Y-31321428D01*
X36337857Y-31321428D01*
X37266428Y-32821428D02*
X37409285Y-32821428D01*
X37552142Y-32750000D01*
X37623571Y-32678571D01*
X37695000Y-32535714D01*
X37766428Y-32250000D01*
X37766428Y-31892857D01*
X37695000Y-31607142D01*
X37623571Y-31464285D01*
X37552142Y-31392857D01*
X37409285Y-31321428D01*
X37266428Y-31321428D01*
X37123571Y-31392857D01*
X37052142Y-31464285D01*
X36980714Y-31607142D01*
X36909285Y-31892857D01*
X36909285Y-32250000D01*
X36980714Y-32535714D01*
X37052142Y-32678571D01*
X37123571Y-32750000D01*
X37266428Y-32821428D01*
X39195000Y-31321428D02*
X38337857Y-31321428D01*
X38766428Y-31321428D02*
X38766428Y-32821428D01*
X38623571Y-32607142D01*
X38480714Y-32464285D01*
X38337857Y-32392857D01*
X39909285Y-31321428D02*
X40195000Y-31321428D01*
X40337857Y-31392857D01*
X40409285Y-31464285D01*
X40552142Y-31678571D01*
X40623571Y-31964285D01*
X40623571Y-32535714D01*
X40552142Y-32678571D01*
X40480714Y-32750000D01*
X40337857Y-32821428D01*
X40052142Y-32821428D01*
X39909285Y-32750000D01*
X39837857Y-32678571D01*
X39766428Y-32535714D01*
X39766428Y-32178571D01*
X39837857Y-32035714D01*
X39909285Y-31964285D01*
X40052142Y-31892857D01*
X40337857Y-31892857D01*
X40480714Y-31964285D01*
X40552142Y-32035714D01*
X40623571Y-32178571D01*
X41337857Y-31392857D02*
X41337857Y-31321428D01*
X41266428Y-31178571D01*
X41195000Y-31107142D01*
X43123571Y-31321428D02*
X43123571Y-32821428D01*
X43980714Y-32821428D01*
X43980714Y-31321428D01*
X45266428Y-31392857D02*
X45123571Y-31321428D01*
X44837857Y-31321428D01*
X44695000Y-31392857D01*
X44623571Y-31535714D01*
X44623571Y-32107142D01*
X44695000Y-32250000D01*
X44837857Y-32321428D01*
X45123571Y-32321428D01*
X45266428Y-32250000D01*
X45337857Y-32107142D01*
X45337857Y-31964285D01*
X44623571Y-31821428D01*
X45980714Y-32321428D02*
X45980714Y-30821428D01*
X45980714Y-32250000D02*
X46123571Y-32321428D01*
X46409285Y-32321428D01*
X46552142Y-32250000D01*
X46623571Y-32178571D01*
X46695000Y-32035714D01*
X46695000Y-31607142D01*
X46623571Y-31464285D01*
X46552142Y-31392857D01*
X46409285Y-31321428D01*
X46123571Y-31321428D01*
X45980714Y-31392857D01*
X47837857Y-32321428D02*
X47837857Y-31321428D01*
X47337857Y-32321428D02*
X47337857Y-31321428D01*
X48337857Y-31321428D01*
X48337857Y-32321428D01*
X49052142Y-32321428D02*
X49052142Y-31321428D01*
X49766428Y-32321428D01*
X49766428Y-31321428D01*
X50480714Y-31821428D02*
X51123571Y-31821428D01*
X50480714Y-32321428D02*
X50480714Y-31321428D01*
X51123571Y-32321428D02*
X51123571Y-31321428D01*
X53837857Y-31464285D02*
X53766428Y-31392857D01*
X53552142Y-31321428D01*
X53409285Y-31321428D01*
X53195000Y-31392857D01*
X53052142Y-31535714D01*
X52980714Y-31678571D01*
X52909285Y-31964285D01*
X52909285Y-32178571D01*
X52980714Y-32464285D01*
X53052142Y-32607142D01*
X53195000Y-32749999D01*
X53409285Y-32821428D01*
X53552142Y-32821428D01*
X53766428Y-32749999D01*
X53837857Y-32678571D01*
X54480714Y-31464285D02*
X54552142Y-31392857D01*
X54480714Y-31321428D01*
X54409285Y-31392857D01*
X54480714Y-31464285D01*
X54480714Y-31321428D01*
X57195000Y-31464285D02*
X57123571Y-31392857D01*
X56909285Y-31321428D01*
X56766428Y-31321428D01*
X56552142Y-31392857D01*
X56409285Y-31535714D01*
X56337857Y-31678571D01*
X56266428Y-31964285D01*
X56266428Y-32178571D01*
X56337857Y-32464285D01*
X56409285Y-32607142D01*
X56552142Y-32749999D01*
X56766428Y-32821428D01*
X56909285Y-32821428D01*
X57123571Y-32749999D01*
X57195000Y-32678571D01*
X57837857Y-31464285D02*
X57909285Y-31392857D01*
X57837857Y-31321428D01*
X57766428Y-31392857D01*
X57837857Y-31464285D01*
X57837857Y-31321428D01*
X35480714Y-35821428D02*
X35980714Y-34821428D01*
X36480714Y-35821428D02*
X35837857Y-34535714D01*
X35695000Y-34392857D01*
X35552142Y-34321428D01*
X35480714Y-34321428D01*
X36980714Y-34321428D02*
X36980714Y-35821428D01*
X36980714Y-35107142D02*
X37837857Y-35107142D01*
X37837857Y-34321428D02*
X37837857Y-35821428D01*
X39266428Y-35821428D02*
X39266428Y-34321428D01*
X38480714Y-35821428D02*
X38480714Y-35250000D01*
X38552142Y-35107142D01*
X38623571Y-35035714D01*
X38766428Y-34964285D01*
X39266428Y-34964285D01*
D11*
X45000000Y-100000000D03*
X45000000Y-55000000D03*
D12*
X56500000Y-50000000D03*
D13*
X60000000Y-50000000D03*
D14*
X117500000Y-77500000D03*
D15*
X117500000Y-72500000D03*
D16*
X91480000Y-77500000D03*
D17*
X91480000Y-85000000D03*
D18*
X72500000Y-65000000D03*
X72500000Y-67500000D03*
X72500000Y-70000000D03*
D14*
X83860000Y-60470000D03*
X86860000Y-63470000D03*
X83910000Y-66470000D03*
D19*
X165000000Y-45000000D03*
X171000000Y-51000000D03*
X165000000Y-57000000D03*
X165000000Y-107000000D03*
X171000000Y-101000000D03*
X165000000Y-95000000D03*
D17*
X82500000Y-50000000D03*
D20*
X67260000Y-50000000D03*
D17*
X65000000Y-55000000D03*
D20*
X65000000Y-70240000D03*
D17*
X65000000Y-75000000D03*
D20*
X65000000Y-90240000D03*
X75000000Y-90240000D03*
D17*
X75000000Y-75000000D03*
D20*
X97500000Y-70240000D03*
D17*
X97500000Y-55000000D03*
D20*
X117500000Y-65240000D03*
D17*
X117500000Y-50000000D03*
X107500000Y-75000000D03*
D20*
X107500000Y-90240000D03*
D17*
X107500000Y-55000000D03*
D20*
X107500000Y-70240000D03*
D17*
X130000000Y-55000000D03*
D20*
X130000000Y-80400000D03*
D16*
X65000000Y-105000000D03*
D17*
X57500000Y-105000000D03*
D11*
X45000000Y-152000000D03*
X45000000Y-197000000D03*
D13*
X60000000Y-202000000D03*
D12*
X56500000Y-202000000D03*
D15*
X117500000Y-179500000D03*
D14*
X117500000Y-174500000D03*
D16*
X91480000Y-174500000D03*
D17*
X91480000Y-167000000D03*
X57500000Y-147000000D03*
D16*
X65000000Y-147000000D03*
D21*
X75000000Y-112500000D03*
D22*
X77540000Y-112500000D03*
D21*
X55000000Y-122190000D03*
D22*
X55000000Y-124730000D03*
X55000000Y-127270000D03*
X55000000Y-129810000D03*
D23*
X32500000Y-141000000D03*
X32500000Y-131500000D03*
X32500000Y-122000000D03*
D24*
X32500000Y-112500000D03*
D25*
G36*
X76124503Y-124651204D02*
G01*
X76148772Y-124654804D01*
X76172570Y-124660765D01*
X76195670Y-124669030D01*
X76217849Y-124679520D01*
X76238892Y-124692133D01*
X76258598Y-124706748D01*
X76276776Y-124723224D01*
X76293252Y-124741402D01*
X76307867Y-124761108D01*
X76320480Y-124782151D01*
X76330970Y-124804330D01*
X76339235Y-124827430D01*
X76345196Y-124851228D01*
X76348796Y-124875497D01*
X76350000Y-124900001D01*
X76350000Y-127099999D01*
X76348796Y-127124503D01*
X76345196Y-127148772D01*
X76339235Y-127172570D01*
X76330970Y-127195670D01*
X76320480Y-127217849D01*
X76307867Y-127238892D01*
X76293252Y-127258598D01*
X76276776Y-127276776D01*
X76258598Y-127293252D01*
X76238892Y-127307867D01*
X76217849Y-127320480D01*
X76195670Y-127330970D01*
X76172570Y-127339235D01*
X76148772Y-127345196D01*
X76124503Y-127348796D01*
X76099999Y-127350000D01*
X73900001Y-127350000D01*
X73875497Y-127348796D01*
X73851228Y-127345196D01*
X73827430Y-127339235D01*
X73804330Y-127330970D01*
X73782151Y-127320480D01*
X73761108Y-127307867D01*
X73741402Y-127293252D01*
X73723224Y-127276776D01*
X73706748Y-127258598D01*
X73692133Y-127238892D01*
X73679520Y-127217849D01*
X73669030Y-127195670D01*
X73660765Y-127172570D01*
X73654804Y-127148772D01*
X73651204Y-127124503D01*
X73650000Y-127099999D01*
X73650000Y-124900001D01*
X73651204Y-124875497D01*
X73654804Y-124851228D01*
X73660765Y-124827430D01*
X73669030Y-124804330D01*
X73679520Y-124782151D01*
X73692133Y-124761108D01*
X73706748Y-124741402D01*
X73723224Y-124723224D01*
X73741402Y-124706748D01*
X73761108Y-124692133D01*
X73782151Y-124679520D01*
X73804330Y-124669030D01*
X73827430Y-124660765D01*
X73851228Y-124654804D01*
X73875497Y-124651204D01*
X73900001Y-124650000D01*
X76099999Y-124650000D01*
X76124503Y-124651204D01*
X76124503Y-124651204D01*
G37*
D26*
X75000000Y-126000000D03*
X78960000Y-126000000D03*
D18*
X72500000Y-187000000D03*
X72500000Y-184500000D03*
X72500000Y-182000000D03*
D14*
X83860000Y-191530000D03*
X80860000Y-188530000D03*
X83810000Y-185530000D03*
D19*
X165000000Y-207000000D03*
X159000000Y-201000000D03*
X165000000Y-195000000D03*
X165000000Y-145000000D03*
X159000000Y-151000000D03*
X165000000Y-157000000D03*
D20*
X87500000Y-114760000D03*
D17*
X87500000Y-130000000D03*
X82500000Y-202000000D03*
D20*
X67260000Y-202000000D03*
D17*
X65000000Y-197000000D03*
D20*
X65000000Y-181760000D03*
X65000000Y-161760000D03*
D17*
X65000000Y-177000000D03*
D20*
X75000000Y-161760000D03*
D17*
X75000000Y-177000000D03*
X107500000Y-197000000D03*
D20*
X107500000Y-181760000D03*
D17*
X97500000Y-197000000D03*
D20*
X97500000Y-181760000D03*
X117500000Y-186760000D03*
D17*
X117500000Y-202000000D03*
X130000000Y-197000000D03*
D20*
X130000000Y-171600000D03*
X107500000Y-161760000D03*
D17*
X107500000Y-177000000D03*
D27*
X27500000Y-33500000D03*
X27500000Y-218500000D03*
X146500000Y-33500000D03*
X146500000Y-218500000D03*
X182500000Y-33500000D03*
X182500000Y-218500000D03*
D14*
X117000000Y-115500000D03*
X127000000Y-115500000D03*
D16*
X102000000Y-118500000D03*
D17*
X102000000Y-111000000D03*
D14*
X127000000Y-136500000D03*
X117000000Y-136500000D03*
D17*
X102000000Y-141000000D03*
D16*
X102000000Y-133500000D03*
D27*
X182500000Y-126000000D03*
D28*
X76880000Y-67450000D02*
X83860000Y-60470000D01*
X72550000Y-67450000D02*
X72500000Y-67500000D01*
X76880000Y-73120000D02*
X75000000Y-75000000D01*
X76880000Y-67450000D02*
X76880000Y-73120000D01*
X76830000Y-67500000D02*
X72500000Y-67500000D01*
D29*
X98970000Y-66470000D02*
X107500000Y-75000000D01*
X83910000Y-66470000D02*
X98970000Y-66470000D01*
X116850008Y-84350008D02*
X107500000Y-75000000D01*
X141850008Y-84350008D02*
X116850008Y-84350008D01*
X171000000Y-101000000D02*
X158500000Y-101000000D01*
X158500000Y-101000000D02*
X141850008Y-84350008D01*
X86860000Y-63470000D02*
X109030000Y-63470000D01*
X130000000Y-55000000D02*
X117500000Y-55000000D01*
X109030000Y-63470000D02*
X117500000Y-55000000D01*
X134000000Y-51000000D02*
X130000000Y-55000000D01*
X171000000Y-51000000D02*
X134000000Y-51000000D01*
X129800000Y-80200000D02*
X130000000Y-80400000D01*
X119600000Y-70000000D02*
X130000000Y-80400000D01*
X117500000Y-70000000D02*
X119600000Y-70000000D01*
X117500000Y-70000000D02*
X117500000Y-72500000D01*
X117500000Y-65240000D02*
X117500000Y-70000000D01*
X107500000Y-55000000D02*
X97500000Y-55000000D01*
D28*
X82500000Y-55000000D02*
X97500000Y-55000000D01*
X72500000Y-65000000D02*
X82500000Y-55000000D01*
D29*
X65000000Y-55000000D02*
X65000000Y-50000000D01*
X67260000Y-50000000D02*
X65000000Y-50000000D01*
X65000000Y-50000000D02*
X60000000Y-50000000D01*
X117500000Y-50000000D02*
X117500000Y-47500000D01*
D30*
X82500000Y-47500000D02*
X85000000Y-45000000D01*
X82500000Y-50000000D02*
X82500000Y-47500000D01*
D29*
X117500000Y-202000000D02*
X117500000Y-204500000D01*
D30*
X165000000Y-45000000D02*
X85000000Y-45000000D01*
X85000000Y-207000000D02*
X165000000Y-207000000D01*
X82500000Y-202000000D02*
X82500000Y-204500000D01*
X82500000Y-204500000D02*
X85000000Y-207000000D01*
X102000000Y-118500000D02*
X102000000Y-120000000D01*
X102000000Y-133500000D02*
X102000000Y-132000000D01*
D29*
X117000000Y-115500000D02*
X117000000Y-120000000D01*
X117000000Y-136500000D02*
X117000000Y-132000000D01*
D30*
X177500000Y-45000000D02*
X165000000Y-45000000D01*
X184000000Y-51500000D02*
X177500000Y-45000000D01*
X184000000Y-113000000D02*
X184000000Y-51500000D01*
X175000000Y-122500000D02*
X184000000Y-113000000D01*
X95000000Y-126000000D02*
X95000000Y-122500000D01*
X95000000Y-122500000D02*
X175000000Y-122500000D01*
X165000000Y-207000000D02*
X177500000Y-207000000D01*
X95000000Y-129500000D02*
X95000000Y-126000000D01*
X175000000Y-129500000D02*
X95000000Y-129500000D01*
X184000000Y-139000000D02*
X175000000Y-129500000D01*
X184000000Y-200500000D02*
X184000000Y-139000000D01*
X177500000Y-207000000D02*
X184000000Y-200500000D01*
X95000000Y-126000000D02*
X87500000Y-126000000D01*
X87500000Y-126000000D02*
X82500000Y-126000000D01*
D29*
X78960000Y-126000000D02*
X82500000Y-126000000D01*
X87500000Y-130000000D02*
X87500000Y-126000000D01*
D28*
X53100000Y-122190000D02*
X55000000Y-122190000D01*
X45000000Y-114360000D02*
X53100000Y-122190000D01*
X45000000Y-100000000D02*
X45000000Y-114360000D01*
D29*
X65000000Y-72500000D02*
X65000000Y-75000000D01*
X65000000Y-70240000D02*
X65000000Y-72500000D01*
D28*
X65000000Y-72500000D02*
X72500000Y-72500000D01*
X62500000Y-72500000D02*
X65000000Y-72500000D01*
X61990000Y-72500000D02*
X62500000Y-72500000D01*
X45000000Y-55000000D02*
X61990000Y-72500000D01*
X72500000Y-70000000D02*
X72500000Y-72500000D01*
D29*
X114090000Y-74090000D02*
X117500000Y-77500000D01*
X114090000Y-64090000D02*
X114090000Y-74090000D01*
X107500000Y-70240000D02*
X114090000Y-64090000D01*
X114090000Y-64090000D02*
X117840000Y-60340000D01*
X117840000Y-60340000D02*
X161660000Y-60340000D01*
X161660000Y-60340000D02*
X163820000Y-62500000D01*
D30*
X165000000Y-57000000D02*
X165000000Y-85000000D01*
X165000000Y-85000000D02*
X165000000Y-95000000D01*
X120000000Y-105000000D02*
X65000000Y-105000000D01*
X165000000Y-85000000D02*
X170000000Y-85000000D01*
X170000000Y-85000000D02*
X177500000Y-92500000D01*
X177500000Y-92500000D02*
X177500000Y-110000000D01*
X177500000Y-110000000D02*
X172500000Y-115500000D01*
X172500000Y-115500000D02*
X140000000Y-115500000D01*
X140000000Y-115500000D02*
X120000000Y-105000000D01*
D29*
X91480000Y-76700000D02*
X97500000Y-70240000D01*
X91480000Y-77500000D02*
X91480000Y-76700000D01*
D30*
X32500000Y-103000000D02*
X32500000Y-112500000D01*
X38000000Y-90000000D02*
X32500000Y-103000000D01*
X47500000Y-90000000D02*
X38000000Y-90000000D01*
X57500000Y-105000000D02*
X57500000Y-100000000D01*
X57500000Y-100000000D02*
X47500000Y-90000000D01*
D28*
X45000000Y-137640000D02*
X53100000Y-129810000D01*
X53100000Y-129810000D02*
X55000000Y-129810000D01*
X45000000Y-152000000D02*
X45000000Y-137640000D01*
D30*
X32500000Y-149000000D02*
X32500000Y-141000000D01*
X38000000Y-162000000D02*
X32500000Y-149000000D01*
X47500000Y-162000000D02*
X38000000Y-162000000D01*
X57500000Y-147000000D02*
X57500000Y-152000000D01*
X57500000Y-152000000D02*
X47500000Y-162000000D01*
D28*
X62500000Y-179500000D02*
X65000000Y-179500000D01*
X65000000Y-179500000D02*
X72500000Y-179500000D01*
D29*
X65000000Y-181760000D02*
X65000000Y-179500000D01*
D28*
X72500000Y-182000000D02*
X72500000Y-179500000D01*
X45000000Y-197000000D02*
X61990000Y-179500000D01*
D29*
X65000000Y-179500000D02*
X65000000Y-177000000D01*
D28*
X61990000Y-179500000D02*
X62500000Y-179500000D01*
D29*
X65000000Y-202000000D02*
X60000000Y-202000000D01*
X67260000Y-202000000D02*
X65000000Y-202000000D01*
X65000000Y-197000000D02*
X65000000Y-202000000D01*
X117500000Y-186760000D02*
X117500000Y-182000000D01*
X129800000Y-171800000D02*
X130000000Y-171600000D01*
X117500000Y-182000000D02*
X117500000Y-179500000D01*
X117500000Y-182000000D02*
X119600000Y-182000000D01*
X119600000Y-182000000D02*
X130000000Y-171600000D01*
D30*
X172500000Y-136500000D02*
X140000000Y-136500000D01*
X140000000Y-136500000D02*
X120000000Y-147000000D01*
D29*
X161660000Y-191660000D02*
X163820000Y-189500000D01*
X114090000Y-187910000D02*
X117840000Y-191660000D01*
X114090000Y-177910000D02*
X117500000Y-174500000D01*
X114090000Y-187910000D02*
X114090000Y-177910000D01*
X117840000Y-191660000D02*
X161660000Y-191660000D01*
X107500000Y-181760000D02*
X114090000Y-187910000D01*
D30*
X165000000Y-157000000D02*
X165000000Y-195000000D01*
X170000000Y-167000000D02*
X165000000Y-167000000D01*
X177500000Y-159500000D02*
X170000000Y-167000000D01*
X65000000Y-147000000D02*
X120000000Y-147000000D01*
X172500000Y-136500000D02*
X177500000Y-142000000D01*
X177500000Y-142000000D02*
X177500000Y-159500000D01*
D29*
X91480000Y-175300000D02*
X97500000Y-181760000D01*
X91480000Y-174500000D02*
X91480000Y-175300000D01*
X85240000Y-112500000D02*
X87500000Y-114760000D01*
X77540000Y-112500000D02*
X85240000Y-112500000D01*
X107500000Y-197000000D02*
X97500000Y-197000000D01*
D28*
X72500000Y-187000000D02*
X82500000Y-197000000D01*
X82500000Y-197000000D02*
X97500000Y-197000000D01*
X76880000Y-178880000D02*
X75000000Y-177000000D01*
X76880000Y-184550000D02*
X76880000Y-178880000D01*
X72550000Y-184550000D02*
X72500000Y-184500000D01*
X80530000Y-191530000D02*
X78165000Y-189165000D01*
X83860000Y-191530000D02*
X80530000Y-191530000D01*
X76880000Y-187880000D02*
X78165000Y-189165000D01*
X76880000Y-184550000D02*
X76880000Y-187880000D01*
X76830000Y-184500000D02*
X72500000Y-184500000D01*
D29*
X134000000Y-201000000D02*
X130000000Y-197000000D01*
X159000000Y-201000000D02*
X134000000Y-201000000D01*
X117500000Y-197000000D02*
X130000000Y-197000000D01*
X109030000Y-188530000D02*
X117500000Y-197000000D01*
X83020000Y-188530000D02*
X109030000Y-188530000D01*
X81000000Y-188530000D02*
X83000000Y-188530000D01*
X83910000Y-185530000D02*
X98970000Y-185530000D01*
X98970000Y-185530000D02*
X107500000Y-177000000D01*
X116850008Y-167649992D02*
X107500000Y-177000000D01*
X158500000Y-151000000D02*
X141850008Y-167649992D01*
X141850008Y-167649992D02*
X116850008Y-167649992D01*
D31*
G36*
X187873000Y-223873000D02*
G01*
X22127000Y-223873000D01*
X22127000Y-218122285D01*
X23665000Y-218122285D01*
X23665000Y-218877715D01*
X23812377Y-219618628D01*
X24101467Y-220316554D01*
X24521161Y-220944670D01*
X25055330Y-221478839D01*
X25683446Y-221898533D01*
X26381372Y-222187623D01*
X27122285Y-222335000D01*
X27877715Y-222335000D01*
X28618628Y-222187623D01*
X29316554Y-221898533D01*
X29944670Y-221478839D01*
X30478839Y-220944670D01*
X30898533Y-220316554D01*
X31187623Y-219618628D01*
X31335000Y-218877715D01*
X31335000Y-218122285D01*
X142665000Y-218122285D01*
X142665000Y-218877715D01*
X142812377Y-219618628D01*
X143101467Y-220316554D01*
X143521161Y-220944670D01*
X144055330Y-221478839D01*
X144683446Y-221898533D01*
X145381372Y-222187623D01*
X146122285Y-222335000D01*
X146877715Y-222335000D01*
X147618628Y-222187623D01*
X148316554Y-221898533D01*
X148944670Y-221478839D01*
X149478839Y-220944670D01*
X149898533Y-220316554D01*
X150187623Y-219618628D01*
X150335000Y-218877715D01*
X150335000Y-218122285D01*
X178665000Y-218122285D01*
X178665000Y-218877715D01*
X178812377Y-219618628D01*
X179101467Y-220316554D01*
X179521161Y-220944670D01*
X180055330Y-221478839D01*
X180683446Y-221898533D01*
X181381372Y-222187623D01*
X182122285Y-222335000D01*
X182877715Y-222335000D01*
X183618628Y-222187623D01*
X184316554Y-221898533D01*
X184944670Y-221478839D01*
X185478839Y-220944670D01*
X185898533Y-220316554D01*
X186187623Y-219618628D01*
X186335000Y-218877715D01*
X186335000Y-218122285D01*
X186187623Y-217381372D01*
X185898533Y-216683446D01*
X185478839Y-216055330D01*
X184944670Y-215521161D01*
X184316554Y-215101467D01*
X183618628Y-214812377D01*
X182877715Y-214665000D01*
X182122285Y-214665000D01*
X181381372Y-214812377D01*
X180683446Y-215101467D01*
X180055330Y-215521161D01*
X179521161Y-216055330D01*
X179101467Y-216683446D01*
X178812377Y-217381372D01*
X178665000Y-218122285D01*
X150335000Y-218122285D01*
X150187623Y-217381372D01*
X149898533Y-216683446D01*
X149478839Y-216055330D01*
X148944670Y-215521161D01*
X148316554Y-215101467D01*
X147618628Y-214812377D01*
X146877715Y-214665000D01*
X146122285Y-214665000D01*
X145381372Y-214812377D01*
X144683446Y-215101467D01*
X144055330Y-215521161D01*
X143521161Y-216055330D01*
X143101467Y-216683446D01*
X142812377Y-217381372D01*
X142665000Y-218122285D01*
X31335000Y-218122285D01*
X31187623Y-217381372D01*
X30898533Y-216683446D01*
X30478839Y-216055330D01*
X29944670Y-215521161D01*
X29316554Y-215101467D01*
X28618628Y-214812377D01*
X27877715Y-214665000D01*
X27122285Y-214665000D01*
X26381372Y-214812377D01*
X25683446Y-215101467D01*
X25055330Y-215521161D01*
X24521161Y-216055330D01*
X24101467Y-216683446D01*
X23812377Y-217381372D01*
X23665000Y-218122285D01*
X22127000Y-218122285D01*
X22127000Y-202000000D01*
X58105880Y-202000000D01*
X58142275Y-202369524D01*
X58250061Y-202724848D01*
X58425097Y-203052317D01*
X58660655Y-203339345D01*
X58947683Y-203574903D01*
X59275152Y-203749939D01*
X59630476Y-203857725D01*
X59907403Y-203885000D01*
X64907403Y-203885000D01*
X65000000Y-203894120D01*
X65092597Y-203885000D01*
X67352597Y-203885000D01*
X67629524Y-203857725D01*
X67984848Y-203749939D01*
X68312317Y-203574903D01*
X68599345Y-203339345D01*
X68834903Y-203052317D01*
X69009939Y-202724848D01*
X69117725Y-202369524D01*
X69154120Y-202000000D01*
X69117725Y-201630476D01*
X69009939Y-201275152D01*
X68834903Y-200947683D01*
X68599345Y-200660655D01*
X68312317Y-200425097D01*
X67984848Y-200250061D01*
X67629524Y-200142275D01*
X67352597Y-200115000D01*
X66885000Y-200115000D01*
X66885000Y-196907403D01*
X66857725Y-196630476D01*
X66749939Y-196275152D01*
X66574903Y-195947683D01*
X66339345Y-195660655D01*
X66052317Y-195425097D01*
X65724847Y-195250061D01*
X65369523Y-195142275D01*
X65000000Y-195105880D01*
X64630476Y-195142275D01*
X64275152Y-195250061D01*
X63947683Y-195425097D01*
X63660655Y-195660655D01*
X63425097Y-195947683D01*
X63250061Y-196275153D01*
X63142275Y-196630477D01*
X63115000Y-196907404D01*
X63115001Y-200115000D01*
X59907403Y-200115000D01*
X59630476Y-200142275D01*
X59275152Y-200250061D01*
X58947683Y-200425097D01*
X58660655Y-200660655D01*
X58425097Y-200947683D01*
X58250061Y-201275152D01*
X58142275Y-201630476D01*
X58105880Y-202000000D01*
X22127000Y-202000000D01*
X22127000Y-196814344D01*
X43115000Y-196814344D01*
X43115000Y-197185656D01*
X43187439Y-197549834D01*
X43329534Y-197892882D01*
X43535825Y-198201618D01*
X43798382Y-198464175D01*
X44107118Y-198670466D01*
X44450166Y-198812561D01*
X44814344Y-198885000D01*
X45185656Y-198885000D01*
X45549834Y-198812561D01*
X45892882Y-198670466D01*
X46201618Y-198464175D01*
X46464175Y-198201618D01*
X46670466Y-197892882D01*
X46812561Y-197549834D01*
X46885000Y-197185656D01*
X46885000Y-196814344D01*
X46864112Y-196709333D01*
X62469994Y-180635000D01*
X63115000Y-180635000D01*
X63115000Y-181852596D01*
X63142275Y-182129523D01*
X63250061Y-182484847D01*
X63425097Y-182812317D01*
X63660655Y-183099345D01*
X63947683Y-183334903D01*
X64275152Y-183509939D01*
X64630476Y-183617725D01*
X65000000Y-183654120D01*
X65369523Y-183617725D01*
X65724847Y-183509939D01*
X66052317Y-183334903D01*
X66339345Y-183099345D01*
X66574903Y-182812317D01*
X66749939Y-182484848D01*
X66857725Y-182129524D01*
X66885000Y-181852597D01*
X66885000Y-180635000D01*
X71365001Y-180635000D01*
X71365000Y-181205714D01*
X71272629Y-181343957D01*
X71168225Y-181596011D01*
X71115000Y-181863589D01*
X71115000Y-182136411D01*
X71168225Y-182403989D01*
X71272629Y-182656043D01*
X71424201Y-182882886D01*
X71617114Y-183075799D01*
X71843957Y-183227371D01*
X71898588Y-183250000D01*
X71843957Y-183272629D01*
X71617114Y-183424201D01*
X71424201Y-183617114D01*
X71272629Y-183843957D01*
X71168225Y-184096011D01*
X71115000Y-184363589D01*
X71115000Y-184636411D01*
X71168225Y-184903989D01*
X71272629Y-185156043D01*
X71424201Y-185382886D01*
X71617114Y-185575799D01*
X71843957Y-185727371D01*
X71898588Y-185750000D01*
X71843957Y-185772629D01*
X71617114Y-185924201D01*
X71424201Y-186117114D01*
X71272629Y-186343957D01*
X71168225Y-186596011D01*
X71115000Y-186863589D01*
X71115000Y-187136411D01*
X71168225Y-187403989D01*
X71272629Y-187656043D01*
X71424201Y-187882886D01*
X71617114Y-188075799D01*
X71843957Y-188227371D01*
X72096011Y-188331775D01*
X72259081Y-188364212D01*
X81658013Y-197763146D01*
X81693551Y-197806449D01*
X81736854Y-197841987D01*
X81736856Y-197841989D01*
X81866377Y-197948284D01*
X82063553Y-198053676D01*
X82277501Y-198118577D01*
X82500000Y-198140491D01*
X82555752Y-198135000D01*
X95992953Y-198135000D01*
X96160655Y-198339345D01*
X96447683Y-198574903D01*
X96775152Y-198749939D01*
X97130476Y-198857725D01*
X97407403Y-198885000D01*
X107592597Y-198885000D01*
X107869524Y-198857725D01*
X108224848Y-198749939D01*
X108552317Y-198574903D01*
X108839345Y-198339345D01*
X109074903Y-198052317D01*
X109249939Y-197724848D01*
X109357725Y-197369524D01*
X109394120Y-197000000D01*
X109357725Y-196630476D01*
X109249939Y-196275152D01*
X109074903Y-195947683D01*
X108839345Y-195660655D01*
X108552317Y-195425097D01*
X108224848Y-195250061D01*
X107869524Y-195142275D01*
X107592597Y-195115000D01*
X97407403Y-195115000D01*
X97130476Y-195142275D01*
X96775152Y-195250061D01*
X96447683Y-195425097D01*
X96160655Y-195660655D01*
X95992953Y-195865000D01*
X82970133Y-195865000D01*
X73864212Y-186759081D01*
X73831775Y-186596011D01*
X73727371Y-186343957D01*
X73575799Y-186117114D01*
X73382886Y-185924201D01*
X73156043Y-185772629D01*
X73101412Y-185750000D01*
X73156043Y-185727371D01*
X73294286Y-185635000D01*
X75745000Y-185635000D01*
X75745001Y-187824239D01*
X75739509Y-187880000D01*
X75761423Y-188102498D01*
X75826324Y-188316446D01*
X75848830Y-188358552D01*
X75931717Y-188513623D01*
X76073552Y-188686449D01*
X76116860Y-188721991D01*
X77401856Y-190006988D01*
X77401861Y-190006992D01*
X79688009Y-192293141D01*
X79723551Y-192336449D01*
X79896377Y-192478284D01*
X80058399Y-192564886D01*
X80093553Y-192583676D01*
X80307501Y-192648577D01*
X80529999Y-192670491D01*
X80585751Y-192665000D01*
X82682761Y-192665000D01*
X82817748Y-192799987D01*
X83085537Y-192978918D01*
X83383088Y-193102168D01*
X83698967Y-193165000D01*
X84021033Y-193165000D01*
X84336912Y-193102168D01*
X84634463Y-192978918D01*
X84902252Y-192799987D01*
X85129987Y-192572252D01*
X85308918Y-192304463D01*
X85432168Y-192006912D01*
X85495000Y-191691033D01*
X85495000Y-191368967D01*
X85432168Y-191053088D01*
X85308918Y-190755537D01*
X85129987Y-190487748D01*
X85057239Y-190415000D01*
X108249208Y-190415000D01*
X116101630Y-198267423D01*
X116160655Y-198339345D01*
X116232577Y-198398370D01*
X116232579Y-198398372D01*
X116298979Y-198452864D01*
X116447683Y-198574903D01*
X116775152Y-198749939D01*
X116981590Y-198812561D01*
X117130475Y-198857725D01*
X117162662Y-198860895D01*
X117407403Y-198885000D01*
X117407411Y-198885000D01*
X117500000Y-198894119D01*
X117592589Y-198885000D01*
X129219208Y-198885000D01*
X132601630Y-202267423D01*
X132660655Y-202339345D01*
X132732577Y-202398370D01*
X132732579Y-202398372D01*
X132838110Y-202484979D01*
X132947683Y-202574903D01*
X133275152Y-202749939D01*
X133630476Y-202857725D01*
X133907403Y-202885000D01*
X133907412Y-202885000D01*
X133999999Y-202894119D01*
X134092586Y-202885000D01*
X156489084Y-202885000D01*
X156564886Y-202998446D01*
X157001554Y-203435114D01*
X157515021Y-203778201D01*
X157724572Y-203865000D01*
X119385000Y-203865000D01*
X119385000Y-201907403D01*
X119357725Y-201630476D01*
X119249939Y-201275152D01*
X119074903Y-200947683D01*
X118839345Y-200660655D01*
X118552317Y-200425097D01*
X118224847Y-200250061D01*
X117869523Y-200142275D01*
X117500000Y-200105880D01*
X117130476Y-200142275D01*
X116775152Y-200250061D01*
X116447683Y-200425097D01*
X116160655Y-200660655D01*
X115925097Y-200947683D01*
X115750061Y-201275153D01*
X115642275Y-201630477D01*
X115615000Y-201907404D01*
X115615001Y-203865000D01*
X86298559Y-203865000D01*
X85635000Y-203201442D01*
X85635000Y-201845998D01*
X85589638Y-201385433D01*
X85410376Y-200794483D01*
X85119269Y-200249860D01*
X84727505Y-199772495D01*
X84250139Y-199380731D01*
X83705516Y-199089624D01*
X83114566Y-198910362D01*
X82500000Y-198849832D01*
X81885433Y-198910362D01*
X81294483Y-199089624D01*
X80749860Y-199380731D01*
X80272495Y-199772495D01*
X79880731Y-200249861D01*
X79589624Y-200794484D01*
X79410362Y-201385434D01*
X79365000Y-201845999D01*
X79365000Y-204346005D01*
X79349833Y-204500000D01*
X79365000Y-204653995D01*
X79365000Y-204654002D01*
X79410362Y-205114567D01*
X79589624Y-205705517D01*
X79880732Y-206250140D01*
X80272496Y-206727505D01*
X80392120Y-206825678D01*
X82674321Y-209107880D01*
X82772495Y-209227505D01*
X83249860Y-209619269D01*
X83794483Y-209910376D01*
X84385433Y-210089638D01*
X84845998Y-210135000D01*
X84846005Y-210135000D01*
X85000000Y-210150167D01*
X85153995Y-210135000D01*
X177346005Y-210135000D01*
X177500000Y-210150167D01*
X177653995Y-210135000D01*
X177654002Y-210135000D01*
X178114567Y-210089638D01*
X178705517Y-209910376D01*
X179250140Y-209619269D01*
X179727505Y-209227505D01*
X179825683Y-209107876D01*
X186107887Y-202825673D01*
X186227505Y-202727505D01*
X186352743Y-202574903D01*
X186426541Y-202484979D01*
X186619269Y-202250140D01*
X186910376Y-201705517D01*
X187063722Y-201200000D01*
X187089638Y-201114568D01*
X187100922Y-200999999D01*
X187135000Y-200654002D01*
X187135000Y-200653996D01*
X187150167Y-200500001D01*
X187135000Y-200346006D01*
X187135000Y-139196484D01*
X187149017Y-139085108D01*
X187135000Y-138888443D01*
X187135000Y-138845998D01*
X187124053Y-138734851D01*
X187105114Y-138469130D01*
X187093824Y-138427938D01*
X187089638Y-138385433D01*
X187012298Y-138130478D01*
X186941882Y-137873552D01*
X186922775Y-137835359D01*
X186910376Y-137794483D01*
X186784770Y-137559491D01*
X186665595Y-137321264D01*
X186639406Y-137287534D01*
X186619269Y-137249860D01*
X186450246Y-137043905D01*
X186381775Y-136955718D01*
X186352592Y-136924914D01*
X186227505Y-136772495D01*
X186140725Y-136701276D01*
X177352600Y-127424923D01*
X177227505Y-127272495D01*
X177021531Y-127103456D01*
X176820265Y-126928972D01*
X176783163Y-126907832D01*
X176750140Y-126880731D01*
X176515145Y-126755124D01*
X176283707Y-126623257D01*
X176243190Y-126609760D01*
X176205517Y-126589624D01*
X175950565Y-126512285D01*
X175697815Y-126428093D01*
X175655437Y-126422760D01*
X175614567Y-126410362D01*
X175349424Y-126384247D01*
X175085108Y-126350983D01*
X174888444Y-126365000D01*
X98135000Y-126365000D01*
X98135000Y-126154001D01*
X98150168Y-126000000D01*
X98135000Y-125845998D01*
X98135000Y-125635000D01*
X174888444Y-125635000D01*
X175085108Y-125649017D01*
X175297520Y-125622285D01*
X178665000Y-125622285D01*
X178665000Y-126377715D01*
X178812377Y-127118628D01*
X179101467Y-127816554D01*
X179521161Y-128444670D01*
X180055330Y-128978839D01*
X180683446Y-129398533D01*
X181381372Y-129687623D01*
X182122285Y-129835000D01*
X182877715Y-129835000D01*
X183618628Y-129687623D01*
X184316554Y-129398533D01*
X184944670Y-128978839D01*
X185478839Y-128444670D01*
X185898533Y-127816554D01*
X186187623Y-127118628D01*
X186335000Y-126377715D01*
X186335000Y-125622285D01*
X186187623Y-124881372D01*
X185898533Y-124183446D01*
X185478839Y-123555330D01*
X184944670Y-123021161D01*
X184316554Y-122601467D01*
X183618628Y-122312377D01*
X182877715Y-122165000D01*
X182122285Y-122165000D01*
X181381372Y-122312377D01*
X180683446Y-122601467D01*
X180055330Y-123021161D01*
X179521161Y-123555330D01*
X179101467Y-124183446D01*
X178812377Y-124881372D01*
X178665000Y-125622285D01*
X175297520Y-125622285D01*
X175349424Y-125615753D01*
X175614567Y-125589638D01*
X175655437Y-125577240D01*
X175697815Y-125571907D01*
X175950565Y-125487715D01*
X176205517Y-125410376D01*
X176243190Y-125390240D01*
X176283707Y-125376743D01*
X176515145Y-125244876D01*
X176750140Y-125119269D01*
X176783163Y-125092168D01*
X176820265Y-125071028D01*
X177021531Y-124896544D01*
X177227505Y-124727505D01*
X177352600Y-124575077D01*
X186140726Y-115298723D01*
X186227505Y-115227505D01*
X186352592Y-115075086D01*
X186381775Y-115044282D01*
X186450246Y-114956095D01*
X186619269Y-114750140D01*
X186639406Y-114712466D01*
X186665595Y-114678736D01*
X186784770Y-114440509D01*
X186910376Y-114205517D01*
X186922775Y-114164641D01*
X186941882Y-114126448D01*
X187012298Y-113869522D01*
X187089638Y-113614567D01*
X187093824Y-113572062D01*
X187105114Y-113530870D01*
X187124053Y-113265149D01*
X187135000Y-113154002D01*
X187135000Y-113111557D01*
X187149017Y-112914892D01*
X187135000Y-112803516D01*
X187135000Y-51653994D01*
X187150167Y-51499999D01*
X187135000Y-51346004D01*
X187135000Y-51345998D01*
X187089638Y-50885433D01*
X187084714Y-50869199D01*
X186999910Y-50589638D01*
X186910376Y-50294483D01*
X186619269Y-49749860D01*
X186352743Y-49425098D01*
X186325675Y-49392115D01*
X186325674Y-49392114D01*
X186227505Y-49272495D01*
X186107886Y-49174326D01*
X179825683Y-42892124D01*
X179727505Y-42772495D01*
X179250140Y-42380731D01*
X178705517Y-42089624D01*
X178114567Y-41910362D01*
X177654002Y-41865000D01*
X177653995Y-41865000D01*
X177500000Y-41849833D01*
X177346005Y-41865000D01*
X85153995Y-41865000D01*
X85000000Y-41849833D01*
X84846005Y-41865000D01*
X84845998Y-41865000D01*
X84385433Y-41910362D01*
X83794483Y-42089624D01*
X83249860Y-42380731D01*
X82772495Y-42772495D01*
X82674321Y-42892120D01*
X80392120Y-45174322D01*
X80272496Y-45272495D01*
X79880732Y-45749860D01*
X79589624Y-46294483D01*
X79410362Y-46885433D01*
X79365000Y-47345998D01*
X79365000Y-47346005D01*
X79349833Y-47500000D01*
X79365000Y-47653995D01*
X79365000Y-50154001D01*
X79410362Y-50614566D01*
X79589624Y-51205516D01*
X79880731Y-51750139D01*
X80272495Y-52227505D01*
X80749860Y-52619269D01*
X81294483Y-52910376D01*
X81885433Y-53089638D01*
X82500000Y-53150168D01*
X83114566Y-53089638D01*
X83705516Y-52910376D01*
X84250139Y-52619269D01*
X84727505Y-52227505D01*
X85119269Y-51750140D01*
X85410376Y-51205517D01*
X85589638Y-50614567D01*
X85635000Y-50154002D01*
X85635000Y-48798558D01*
X86298559Y-48135000D01*
X115615001Y-48135000D01*
X115615000Y-50092596D01*
X115642275Y-50369523D01*
X115750061Y-50724847D01*
X115925097Y-51052317D01*
X116160655Y-51339345D01*
X116447683Y-51574903D01*
X116775152Y-51749939D01*
X117130476Y-51857725D01*
X117500000Y-51894120D01*
X117869523Y-51857725D01*
X118224847Y-51749939D01*
X118552317Y-51574903D01*
X118839345Y-51339345D01*
X119074903Y-51052317D01*
X119249939Y-50724848D01*
X119357725Y-50369524D01*
X119385000Y-50092597D01*
X119385000Y-48135000D01*
X169724572Y-48135000D01*
X169515021Y-48221799D01*
X169001554Y-48564886D01*
X168564886Y-49001554D01*
X168489084Y-49115000D01*
X134092586Y-49115000D01*
X133999999Y-49105881D01*
X133907412Y-49115000D01*
X133907403Y-49115000D01*
X133630476Y-49142275D01*
X133275152Y-49250061D01*
X132947683Y-49425097D01*
X132947681Y-49425098D01*
X132947682Y-49425098D01*
X132732579Y-49601628D01*
X132732577Y-49601630D01*
X132660655Y-49660655D01*
X132601630Y-49732577D01*
X129219208Y-53115000D01*
X117592589Y-53115000D01*
X117500000Y-53105881D01*
X117407411Y-53115000D01*
X117407403Y-53115000D01*
X117162662Y-53139105D01*
X117130475Y-53142275D01*
X117055561Y-53165000D01*
X116775152Y-53250061D01*
X116447683Y-53425097D01*
X116312761Y-53535825D01*
X116232579Y-53601628D01*
X116232577Y-53601630D01*
X116160655Y-53660655D01*
X116101630Y-53732577D01*
X108249208Y-61585000D01*
X86767403Y-61585000D01*
X86490476Y-61612275D01*
X86135152Y-61720061D01*
X85807683Y-61895097D01*
X85520655Y-62130655D01*
X85285097Y-62417683D01*
X85110061Y-62745152D01*
X85002275Y-63100476D01*
X84965880Y-63470000D01*
X85002275Y-63839524D01*
X85110061Y-64194848D01*
X85285097Y-64522317D01*
X85336540Y-64585000D01*
X83817403Y-64585000D01*
X83540476Y-64612275D01*
X83185152Y-64720061D01*
X82857683Y-64895097D01*
X82570655Y-65130655D01*
X82335097Y-65417683D01*
X82160061Y-65745152D01*
X82052275Y-66100476D01*
X82015880Y-66470000D01*
X82052275Y-66839524D01*
X82160061Y-67194848D01*
X82335097Y-67522317D01*
X82570655Y-67809345D01*
X82857683Y-68044903D01*
X83185152Y-68219939D01*
X83540476Y-68327725D01*
X83817403Y-68355000D01*
X97374073Y-68355000D01*
X97065249Y-68396449D01*
X96713943Y-68516688D01*
X96392845Y-68703153D01*
X96184096Y-68887153D01*
X90186820Y-75322769D01*
X90140656Y-75360655D01*
X90060521Y-75458299D01*
X90037840Y-75482638D01*
X90001813Y-75529834D01*
X89905097Y-75647683D01*
X89889310Y-75677219D01*
X89868998Y-75703828D01*
X89801934Y-75840688D01*
X89730061Y-75975152D01*
X89725395Y-75990533D01*
X89690498Y-76055820D01*
X89654188Y-76175518D01*
X89646932Y-76249193D01*
X89622275Y-76330476D01*
X89618993Y-76363802D01*
X89610409Y-76396162D01*
X89600823Y-76548277D01*
X89595000Y-76607403D01*
X89595000Y-76640689D01*
X89587057Y-76766738D01*
X89595000Y-76825920D01*
X89595000Y-77592596D01*
X89622275Y-77869523D01*
X89641928Y-77934310D01*
X89641928Y-78700000D01*
X89654188Y-78824482D01*
X89690498Y-78944180D01*
X89749463Y-79054494D01*
X89828815Y-79151185D01*
X89925506Y-79230537D01*
X90035820Y-79289502D01*
X90155518Y-79325812D01*
X90280000Y-79338072D01*
X91045689Y-79338072D01*
X91110476Y-79357725D01*
X91480000Y-79394120D01*
X91849523Y-79357725D01*
X91914310Y-79338072D01*
X92680000Y-79338072D01*
X92804482Y-79325812D01*
X92924180Y-79289502D01*
X93034494Y-79230537D01*
X93131185Y-79151185D01*
X93210537Y-79054494D01*
X93269502Y-78944180D01*
X93305812Y-78824482D01*
X93318072Y-78700000D01*
X93318072Y-77934311D01*
X93337725Y-77869524D01*
X93365000Y-77592597D01*
X93365000Y-77442156D01*
X98942161Y-71457363D01*
X99111003Y-71236173D01*
X99274392Y-70902741D01*
X99369591Y-70543839D01*
X99392944Y-70173262D01*
X99343551Y-69805249D01*
X99223312Y-69453943D01*
X99133510Y-69299303D01*
X115451638Y-85617431D01*
X115510663Y-85689353D01*
X115582585Y-85748378D01*
X115582587Y-85748380D01*
X115736057Y-85874329D01*
X115797691Y-85924911D01*
X116125160Y-86099947D01*
X116480484Y-86207733D01*
X116757411Y-86235008D01*
X116757420Y-86235008D01*
X116850007Y-86244127D01*
X116942594Y-86235008D01*
X141069216Y-86235008D01*
X157101626Y-102267418D01*
X157160655Y-102339345D01*
X157447683Y-102574903D01*
X157775152Y-102749939D01*
X158130476Y-102857725D01*
X158407403Y-102885000D01*
X158407412Y-102885000D01*
X158499999Y-102894119D01*
X158592586Y-102885000D01*
X168489084Y-102885000D01*
X168564886Y-102998446D01*
X169001554Y-103435114D01*
X169515021Y-103778201D01*
X170085554Y-104014524D01*
X170691229Y-104135000D01*
X171308771Y-104135000D01*
X171914446Y-104014524D01*
X172484979Y-103778201D01*
X172998446Y-103435114D01*
X173435114Y-102998446D01*
X173778201Y-102484979D01*
X174014524Y-101914446D01*
X174135000Y-101308771D01*
X174135000Y-100691229D01*
X174014524Y-100085554D01*
X173778201Y-99515021D01*
X173435114Y-99001554D01*
X172998446Y-98564886D01*
X172484979Y-98221799D01*
X171914446Y-97985476D01*
X171308771Y-97865000D01*
X170691229Y-97865000D01*
X170085554Y-97985476D01*
X169515021Y-98221799D01*
X169001554Y-98564886D01*
X168564886Y-99001554D01*
X168489084Y-99115000D01*
X159280792Y-99115000D01*
X143248382Y-83082590D01*
X143189353Y-83010663D01*
X142902325Y-82775105D01*
X142574856Y-82600069D01*
X142219532Y-82492283D01*
X141942605Y-82465008D01*
X141942597Y-82465008D01*
X141850008Y-82455889D01*
X141757419Y-82465008D01*
X117630801Y-82465008D01*
X107277859Y-72112066D01*
X107434622Y-72132991D01*
X107805182Y-72109372D01*
X108164015Y-72013915D01*
X108497330Y-71850286D01*
X108718398Y-71681285D01*
X112205000Y-68427476D01*
X112205001Y-73997401D01*
X112195881Y-74090000D01*
X112232275Y-74459524D01*
X112340062Y-74814848D01*
X112515098Y-75142317D01*
X112691628Y-75357420D01*
X112691631Y-75357423D01*
X112750656Y-75429345D01*
X112822577Y-75488369D01*
X116232579Y-78898372D01*
X116447682Y-79074902D01*
X116775151Y-79249938D01*
X117130475Y-79357724D01*
X117499999Y-79394119D01*
X117869523Y-79357724D01*
X118224848Y-79249938D01*
X118552316Y-79074902D01*
X118839344Y-78839344D01*
X119074902Y-78552316D01*
X119249938Y-78224848D01*
X119357724Y-77869523D01*
X119394119Y-77499999D01*
X119357724Y-77130475D01*
X119249938Y-76775151D01*
X119074902Y-76447682D01*
X118898372Y-76232579D01*
X116976944Y-74311151D01*
X117130477Y-74357725D01*
X117500000Y-74394120D01*
X117869524Y-74357725D01*
X118224848Y-74249939D01*
X118434136Y-74138072D01*
X118500000Y-74138072D01*
X118624482Y-74125812D01*
X118744180Y-74089502D01*
X118854494Y-74030537D01*
X118951185Y-73951185D01*
X119030537Y-73854494D01*
X119089502Y-73744180D01*
X119125812Y-73624482D01*
X119138072Y-73500000D01*
X119138072Y-73434136D01*
X119249939Y-73224848D01*
X119357725Y-72869524D01*
X119385000Y-72592597D01*
X119385000Y-72450792D01*
X128732579Y-81798372D01*
X128947682Y-81974902D01*
X129275151Y-82149938D01*
X129630475Y-82257725D01*
X129696739Y-82264251D01*
X130000000Y-82294120D01*
X130369524Y-82257725D01*
X130724849Y-82149938D01*
X131052317Y-81974903D01*
X131339345Y-81739345D01*
X131574903Y-81452317D01*
X131749938Y-81124849D01*
X131857725Y-80769524D01*
X131894120Y-80400000D01*
X131857725Y-80030477D01*
X131857725Y-80030475D01*
X131749938Y-79675151D01*
X131574902Y-79347682D01*
X131398372Y-79132579D01*
X120998374Y-68732582D01*
X120939345Y-68660655D01*
X120652317Y-68425097D01*
X120324848Y-68250061D01*
X119969524Y-68142275D01*
X119692597Y-68115000D01*
X119692589Y-68115000D01*
X119600000Y-68105881D01*
X119507411Y-68115000D01*
X119385000Y-68115000D01*
X119385000Y-65147403D01*
X119357725Y-64870476D01*
X119249939Y-64515152D01*
X119074903Y-64187683D01*
X118839345Y-63900655D01*
X118552317Y-63665097D01*
X118224847Y-63490061D01*
X117869523Y-63382275D01*
X117500000Y-63345880D01*
X117499903Y-63345890D01*
X118620793Y-62225000D01*
X160879208Y-62225000D01*
X161865000Y-63210793D01*
X161865001Y-84845988D01*
X161849832Y-85000000D01*
X161865000Y-85154002D01*
X161865001Y-94691224D01*
X161865000Y-94691229D01*
X161865000Y-95308771D01*
X161895196Y-95460579D01*
X161910363Y-95614567D01*
X161955279Y-95762637D01*
X161985476Y-95914446D01*
X162044707Y-96057443D01*
X162089625Y-96205517D01*
X162162569Y-96341986D01*
X162221799Y-96484979D01*
X162307787Y-96613669D01*
X162380732Y-96750140D01*
X162478897Y-96869755D01*
X162564886Y-96998446D01*
X162674332Y-97107892D01*
X162772496Y-97227505D01*
X162892109Y-97325669D01*
X163001554Y-97435114D01*
X163130244Y-97521102D01*
X163249861Y-97619269D01*
X163386334Y-97692216D01*
X163515021Y-97778201D01*
X163658010Y-97837429D01*
X163794484Y-97910376D01*
X163942563Y-97955295D01*
X164085554Y-98014524D01*
X164237356Y-98044719D01*
X164385434Y-98089638D01*
X164539431Y-98104805D01*
X164691229Y-98135000D01*
X164845998Y-98135000D01*
X165000000Y-98150168D01*
X165154002Y-98135000D01*
X165308771Y-98135000D01*
X165460569Y-98104806D01*
X165614567Y-98089638D01*
X165762647Y-98044719D01*
X165914446Y-98014524D01*
X166057434Y-97955296D01*
X166205517Y-97910376D01*
X166341995Y-97837427D01*
X166484979Y-97778201D01*
X166613662Y-97692218D01*
X166750140Y-97619269D01*
X166869761Y-97521098D01*
X166998446Y-97435114D01*
X167107886Y-97325674D01*
X167227505Y-97227505D01*
X167325674Y-97107886D01*
X167435114Y-96998446D01*
X167521098Y-96869761D01*
X167619269Y-96750140D01*
X167692218Y-96613662D01*
X167778201Y-96484979D01*
X167837427Y-96341995D01*
X167910376Y-96205517D01*
X167955296Y-96057434D01*
X168014524Y-95914446D01*
X168044719Y-95762647D01*
X168089638Y-95614567D01*
X168104806Y-95460569D01*
X168135000Y-95308771D01*
X168135000Y-88135000D01*
X168701442Y-88135000D01*
X174365000Y-93798559D01*
X174365001Y-108787986D01*
X171113171Y-112365000D01*
X140772917Y-112365000D01*
X121467569Y-102229694D01*
X121205517Y-102089624D01*
X121046247Y-102041310D01*
X120892032Y-101978770D01*
X120751498Y-101951899D01*
X120614567Y-101910362D01*
X120448937Y-101894049D01*
X120285479Y-101862795D01*
X119988567Y-101865000D01*
X64845998Y-101865000D01*
X64385433Y-101910362D01*
X63794483Y-102089624D01*
X63249860Y-102380731D01*
X62772495Y-102772495D01*
X62380731Y-103249860D01*
X62089624Y-103794483D01*
X61910362Y-104385433D01*
X61849832Y-105000000D01*
X61910362Y-105614567D01*
X62089624Y-106205517D01*
X62380731Y-106750140D01*
X62772495Y-107227505D01*
X63249860Y-107619269D01*
X63794483Y-107910376D01*
X64385433Y-108089638D01*
X64845998Y-108135000D01*
X119227084Y-108135000D01*
X138532485Y-118270335D01*
X138794483Y-118410376D01*
X138953749Y-118458689D01*
X139107967Y-118521230D01*
X139248503Y-118548101D01*
X139385433Y-118589638D01*
X139551061Y-118605951D01*
X139714520Y-118637205D01*
X140011433Y-118635000D01*
X172420707Y-118635000D01*
X172649838Y-118646602D01*
X172881521Y-118612591D01*
X173114567Y-118589638D01*
X173186480Y-118567823D01*
X173260830Y-118556909D01*
X173481423Y-118478354D01*
X173705517Y-118410376D01*
X173771794Y-118374950D01*
X173842585Y-118349741D01*
X174043610Y-118229662D01*
X174250140Y-118119269D01*
X174308235Y-118071591D01*
X174372744Y-118033058D01*
X174546478Y-117876070D01*
X174727505Y-117727505D01*
X174873061Y-117550145D01*
X179665755Y-112278182D01*
X179727505Y-112227505D01*
X179873057Y-112050150D01*
X179923304Y-111994878D01*
X179970706Y-111931164D01*
X180119269Y-111750140D01*
X180154696Y-111683860D01*
X180199549Y-111623573D01*
X180299983Y-111412048D01*
X180410376Y-111205517D01*
X180432190Y-111133604D01*
X180464422Y-111065721D01*
X180521663Y-110838651D01*
X180589638Y-110614567D01*
X180597004Y-110539782D01*
X180615373Y-110466913D01*
X180627214Y-110233054D01*
X180635000Y-110154002D01*
X180635000Y-110079282D01*
X180646601Y-109850163D01*
X180635000Y-109771136D01*
X180635000Y-92653995D01*
X180650167Y-92500000D01*
X180635000Y-92346005D01*
X180635000Y-92345998D01*
X180589638Y-91885433D01*
X180583440Y-91865000D01*
X180410376Y-91294482D01*
X180295567Y-91079691D01*
X180119269Y-90749860D01*
X179727505Y-90272495D01*
X179607882Y-90174323D01*
X172325683Y-82892125D01*
X172227505Y-82772495D01*
X171750140Y-82380731D01*
X171205517Y-82089624D01*
X170614567Y-81910362D01*
X170154002Y-81865000D01*
X170153995Y-81865000D01*
X170000000Y-81849833D01*
X169846005Y-81865000D01*
X168135000Y-81865000D01*
X168135000Y-56691229D01*
X168104806Y-56539431D01*
X168089638Y-56385433D01*
X168044719Y-56237353D01*
X168014524Y-56085554D01*
X167955296Y-55942566D01*
X167910376Y-55794483D01*
X167837427Y-55658005D01*
X167778201Y-55515021D01*
X167692218Y-55386338D01*
X167619269Y-55249860D01*
X167521098Y-55130239D01*
X167435114Y-55001554D01*
X167325674Y-54892114D01*
X167227505Y-54772495D01*
X167107887Y-54674327D01*
X166998446Y-54564886D01*
X166869757Y-54478899D01*
X166750139Y-54380731D01*
X166613666Y-54307784D01*
X166484979Y-54221799D01*
X166341990Y-54162571D01*
X166205516Y-54089624D01*
X166057437Y-54044705D01*
X165914446Y-53985476D01*
X165762644Y-53955281D01*
X165614566Y-53910362D01*
X165460569Y-53895195D01*
X165308771Y-53865000D01*
X165154002Y-53865000D01*
X165000000Y-53849832D01*
X164845998Y-53865000D01*
X164691229Y-53865000D01*
X164539431Y-53895194D01*
X164385433Y-53910362D01*
X164237353Y-53955281D01*
X164085554Y-53985476D01*
X163942566Y-54044704D01*
X163794483Y-54089624D01*
X163658005Y-54162573D01*
X163515021Y-54221799D01*
X163386338Y-54307782D01*
X163249860Y-54380731D01*
X163130239Y-54478902D01*
X163001554Y-54564886D01*
X162892114Y-54674326D01*
X162772495Y-54772495D01*
X162674327Y-54892113D01*
X162564886Y-55001554D01*
X162478899Y-55130243D01*
X162380731Y-55249861D01*
X162307784Y-55386334D01*
X162221799Y-55515021D01*
X162162571Y-55658010D01*
X162089624Y-55794484D01*
X162044705Y-55942563D01*
X161985476Y-56085554D01*
X161955281Y-56237356D01*
X161910362Y-56385434D01*
X161895195Y-56539430D01*
X161865000Y-56691229D01*
X161865000Y-58466071D01*
X161752597Y-58455000D01*
X161752589Y-58455000D01*
X161660000Y-58445881D01*
X161567411Y-58455000D01*
X117932589Y-58455000D01*
X117840000Y-58445881D01*
X117747411Y-58455000D01*
X117747403Y-58455000D01*
X117502662Y-58479105D01*
X117470475Y-58482275D01*
X117362689Y-58514972D01*
X117115152Y-58590061D01*
X116787683Y-58765097D01*
X116638979Y-58887136D01*
X116572579Y-58941628D01*
X116572577Y-58941630D01*
X116500655Y-59000655D01*
X116441630Y-59072577D01*
X112822582Y-62691626D01*
X112750655Y-62750655D01*
X112712338Y-62797344D01*
X106146208Y-68925069D01*
X105962358Y-69133951D01*
X105776124Y-69455182D01*
X105656137Y-69806575D01*
X105607009Y-70174622D01*
X105625158Y-70459366D01*
X100520792Y-65355000D01*
X108937411Y-65355000D01*
X109030000Y-65364119D01*
X109122589Y-65355000D01*
X109122597Y-65355000D01*
X109399524Y-65327725D01*
X109754848Y-65219939D01*
X110082317Y-65044903D01*
X110369345Y-64809345D01*
X110428374Y-64737418D01*
X118280793Y-56885000D01*
X129907411Y-56885000D01*
X130000000Y-56894119D01*
X130092589Y-56885000D01*
X130092597Y-56885000D01*
X130369524Y-56857725D01*
X130724848Y-56749939D01*
X131052317Y-56574903D01*
X131339345Y-56339345D01*
X131398374Y-56267418D01*
X134780793Y-52885000D01*
X168489084Y-52885000D01*
X168564886Y-52998446D01*
X169001554Y-53435114D01*
X169515021Y-53778201D01*
X170085554Y-54014524D01*
X170691229Y-54135000D01*
X171308771Y-54135000D01*
X171914446Y-54014524D01*
X172484979Y-53778201D01*
X172998446Y-53435114D01*
X173435114Y-52998446D01*
X173778201Y-52484979D01*
X174014524Y-51914446D01*
X174135000Y-51308771D01*
X174135000Y-50691229D01*
X174014524Y-50085554D01*
X173778201Y-49515021D01*
X173435114Y-49001554D01*
X172998446Y-48564886D01*
X172484979Y-48221799D01*
X172275428Y-48135000D01*
X176201442Y-48135000D01*
X180865001Y-52798561D01*
X180865000Y-111750789D01*
X173651538Y-119365000D01*
X118885000Y-119365000D01*
X118885000Y-115407403D01*
X118857725Y-115130476D01*
X118749939Y-114775152D01*
X118574903Y-114447683D01*
X118339345Y-114160655D01*
X118052317Y-113925097D01*
X117724847Y-113750061D01*
X117369523Y-113642275D01*
X117000000Y-113605880D01*
X116630476Y-113642275D01*
X116275152Y-113750061D01*
X115947683Y-113925097D01*
X115660655Y-114160655D01*
X115425097Y-114447683D01*
X115250061Y-114775153D01*
X115142275Y-115130477D01*
X115115000Y-115407404D01*
X115115001Y-119365000D01*
X105135000Y-119365000D01*
X105135000Y-118345998D01*
X105089638Y-117885433D01*
X104910376Y-117294483D01*
X104619269Y-116749860D01*
X104227505Y-116272495D01*
X103750139Y-115880731D01*
X103205516Y-115589624D01*
X102614566Y-115410362D01*
X102000000Y-115349832D01*
X101385433Y-115410362D01*
X100794483Y-115589624D01*
X100249860Y-115880731D01*
X99772495Y-116272495D01*
X99380731Y-116749861D01*
X99089624Y-117294484D01*
X98910362Y-117885434D01*
X98865000Y-118345999D01*
X98865000Y-119365000D01*
X95154002Y-119365000D01*
X95000000Y-119349832D01*
X94845998Y-119365000D01*
X94385433Y-119410362D01*
X93794483Y-119589624D01*
X93249860Y-119880731D01*
X92772495Y-120272495D01*
X92380731Y-120749860D01*
X92089624Y-121294483D01*
X91910362Y-121885433D01*
X91849832Y-122500000D01*
X91865000Y-122654002D01*
X91865000Y-122865000D01*
X82345998Y-122865000D01*
X81885433Y-122910362D01*
X81294483Y-123089624D01*
X80749860Y-123380731D01*
X80272495Y-123772495D01*
X79991408Y-124115000D01*
X79596263Y-124115000D01*
X79539003Y-124091282D01*
X79155505Y-124015000D01*
X78764495Y-124015000D01*
X78380997Y-124091282D01*
X78019750Y-124240915D01*
X77694636Y-124458149D01*
X77418149Y-124734636D01*
X77200915Y-125059750D01*
X77051282Y-125420997D01*
X76975000Y-125804495D01*
X76975000Y-126195505D01*
X77051282Y-126579003D01*
X77200915Y-126940250D01*
X77418149Y-127265364D01*
X77694636Y-127541851D01*
X78019750Y-127759085D01*
X78380997Y-127908718D01*
X78764495Y-127985000D01*
X79155505Y-127985000D01*
X79539003Y-127908718D01*
X79596263Y-127885000D01*
X79991408Y-127885000D01*
X80272495Y-128227505D01*
X80749860Y-128619269D01*
X81294483Y-128910376D01*
X81885433Y-129089638D01*
X82345998Y-129135000D01*
X85615000Y-129135000D01*
X85615000Y-130092596D01*
X85642275Y-130369523D01*
X85750061Y-130724847D01*
X85925097Y-131052317D01*
X86160655Y-131339345D01*
X86447683Y-131574903D01*
X86775152Y-131749939D01*
X87130476Y-131857725D01*
X87500000Y-131894120D01*
X87869523Y-131857725D01*
X88224847Y-131749939D01*
X88552317Y-131574903D01*
X88839345Y-131339345D01*
X89074903Y-131052317D01*
X89249939Y-130724848D01*
X89357725Y-130369524D01*
X89385000Y-130092597D01*
X89385000Y-129135000D01*
X91865000Y-129135000D01*
X91865000Y-129345998D01*
X91849832Y-129500000D01*
X91910362Y-130114567D01*
X92089624Y-130705517D01*
X92380731Y-131250140D01*
X92524513Y-131425338D01*
X92772495Y-131727505D01*
X93249860Y-132119269D01*
X93794483Y-132410376D01*
X94385433Y-132589638D01*
X95000000Y-132650168D01*
X95154002Y-132635000D01*
X98865000Y-132635000D01*
X98865000Y-133654001D01*
X98910362Y-134114566D01*
X99089624Y-134705516D01*
X99380731Y-135250139D01*
X99772495Y-135727505D01*
X100249860Y-136119269D01*
X100794483Y-136410376D01*
X101385433Y-136589638D01*
X102000000Y-136650168D01*
X102614566Y-136589638D01*
X103205516Y-136410376D01*
X103750139Y-136119269D01*
X104227505Y-135727505D01*
X104619269Y-135250140D01*
X104910376Y-134705517D01*
X105089638Y-134114567D01*
X105135000Y-133654002D01*
X105135000Y-132635000D01*
X115115001Y-132635000D01*
X115115000Y-136592596D01*
X115142275Y-136869523D01*
X115250061Y-137224847D01*
X115425097Y-137552317D01*
X115660655Y-137839345D01*
X115947683Y-138074903D01*
X116275152Y-138249939D01*
X116630476Y-138357725D01*
X117000000Y-138394120D01*
X117369523Y-138357725D01*
X117724847Y-138249939D01*
X118052317Y-138074903D01*
X118339345Y-137839345D01*
X118574903Y-137552317D01*
X118749939Y-137224848D01*
X118857725Y-136869524D01*
X118885000Y-136592597D01*
X118885000Y-132635000D01*
X173651538Y-132635000D01*
X180865001Y-140249212D01*
X180865000Y-199201440D01*
X176201442Y-203865000D01*
X160275428Y-203865000D01*
X160484979Y-203778201D01*
X160998446Y-203435114D01*
X161435114Y-202998446D01*
X161778201Y-202484979D01*
X162014524Y-201914446D01*
X162135000Y-201308771D01*
X162135000Y-200691229D01*
X162014524Y-200085554D01*
X161778201Y-199515021D01*
X161435114Y-199001554D01*
X160998446Y-198564886D01*
X160484979Y-198221799D01*
X159914446Y-197985476D01*
X159308771Y-197865000D01*
X158691229Y-197865000D01*
X158085554Y-197985476D01*
X157515021Y-198221799D01*
X157001554Y-198564886D01*
X156564886Y-199001554D01*
X156489084Y-199115000D01*
X134780793Y-199115000D01*
X131398374Y-195732582D01*
X131339345Y-195660655D01*
X131052317Y-195425097D01*
X130724848Y-195250061D01*
X130369524Y-195142275D01*
X130092597Y-195115000D01*
X130092589Y-195115000D01*
X130000000Y-195105881D01*
X129907411Y-195115000D01*
X118280793Y-195115000D01*
X110428374Y-187262582D01*
X110369345Y-187190655D01*
X110082317Y-186955097D01*
X109754848Y-186780061D01*
X109399524Y-186672275D01*
X109122597Y-186645000D01*
X109122589Y-186645000D01*
X109030000Y-186635881D01*
X108937411Y-186645000D01*
X100520792Y-186645000D01*
X105625158Y-181540634D01*
X105607009Y-181825378D01*
X105656137Y-182193425D01*
X105776124Y-182544818D01*
X105962358Y-182866049D01*
X106146208Y-183074931D01*
X112712338Y-189202656D01*
X112750655Y-189249345D01*
X112822582Y-189308374D01*
X116441630Y-192927423D01*
X116500655Y-192999345D01*
X116572577Y-193058370D01*
X116572579Y-193058372D01*
X116625945Y-193102168D01*
X116787683Y-193234903D01*
X117115152Y-193409939D01*
X117362689Y-193485028D01*
X117470475Y-193517725D01*
X117502662Y-193520895D01*
X117747403Y-193545000D01*
X117747411Y-193545000D01*
X117840000Y-193554119D01*
X117932589Y-193545000D01*
X161567411Y-193545000D01*
X161660000Y-193554119D01*
X161752589Y-193545000D01*
X161752597Y-193545000D01*
X161865001Y-193533929D01*
X161865001Y-194691224D01*
X161865000Y-194691229D01*
X161865000Y-195308771D01*
X161895196Y-195460579D01*
X161910363Y-195614567D01*
X161955279Y-195762637D01*
X161985476Y-195914446D01*
X162044707Y-196057443D01*
X162089625Y-196205517D01*
X162162569Y-196341986D01*
X162221799Y-196484979D01*
X162307787Y-196613669D01*
X162380732Y-196750140D01*
X162478897Y-196869755D01*
X162564886Y-196998446D01*
X162674332Y-197107892D01*
X162772496Y-197227505D01*
X162892109Y-197325669D01*
X163001554Y-197435114D01*
X163130244Y-197521102D01*
X163249861Y-197619269D01*
X163386334Y-197692216D01*
X163515021Y-197778201D01*
X163658010Y-197837429D01*
X163794484Y-197910376D01*
X163942563Y-197955295D01*
X164085554Y-198014524D01*
X164237356Y-198044719D01*
X164385434Y-198089638D01*
X164539431Y-198104805D01*
X164691229Y-198135000D01*
X164845998Y-198135000D01*
X165000000Y-198150168D01*
X165154002Y-198135000D01*
X165308771Y-198135000D01*
X165460569Y-198104806D01*
X165614567Y-198089638D01*
X165762647Y-198044719D01*
X165914446Y-198014524D01*
X166057434Y-197955296D01*
X166205517Y-197910376D01*
X166341995Y-197837427D01*
X166484979Y-197778201D01*
X166613662Y-197692218D01*
X166750140Y-197619269D01*
X166869761Y-197521098D01*
X166998446Y-197435114D01*
X167107886Y-197325674D01*
X167227505Y-197227505D01*
X167325674Y-197107886D01*
X167435114Y-196998446D01*
X167521098Y-196869761D01*
X167619269Y-196750140D01*
X167692218Y-196613662D01*
X167778201Y-196484979D01*
X167837427Y-196341995D01*
X167910376Y-196205517D01*
X167955296Y-196057434D01*
X168014524Y-195914446D01*
X168044719Y-195762647D01*
X168089638Y-195614567D01*
X168104806Y-195460569D01*
X168135000Y-195308771D01*
X168135000Y-170135000D01*
X169846005Y-170135000D01*
X170000000Y-170150167D01*
X170153995Y-170135000D01*
X170154002Y-170135000D01*
X170614567Y-170089638D01*
X171205517Y-169910376D01*
X171750140Y-169619269D01*
X172227505Y-169227505D01*
X172325683Y-169107875D01*
X179607881Y-161825678D01*
X179727505Y-161727505D01*
X180119269Y-161250140D01*
X180362823Y-160794483D01*
X180410376Y-160705518D01*
X180589638Y-160114567D01*
X180599491Y-160014524D01*
X180635000Y-159654002D01*
X180635000Y-159653995D01*
X180650167Y-159500000D01*
X180635000Y-159346005D01*
X180635000Y-142228864D01*
X180646601Y-142149837D01*
X180635000Y-141920718D01*
X180635000Y-141845998D01*
X180627214Y-141766946D01*
X180615373Y-141533087D01*
X180597004Y-141460218D01*
X180589638Y-141385433D01*
X180521663Y-141161349D01*
X180464422Y-140934279D01*
X180432190Y-140866396D01*
X180410376Y-140794483D01*
X180299983Y-140587952D01*
X180199549Y-140376427D01*
X180154696Y-140316140D01*
X180119269Y-140249860D01*
X179970706Y-140068836D01*
X179923304Y-140005122D01*
X179873057Y-139949850D01*
X179727505Y-139772495D01*
X179665755Y-139721818D01*
X174873061Y-134449855D01*
X174727505Y-134272495D01*
X174546478Y-134123930D01*
X174372744Y-133966942D01*
X174308235Y-133928409D01*
X174250140Y-133880731D01*
X174043610Y-133770338D01*
X173842585Y-133650259D01*
X173771794Y-133625050D01*
X173705517Y-133589624D01*
X173481423Y-133521646D01*
X173260830Y-133443091D01*
X173186480Y-133432177D01*
X173114567Y-133410362D01*
X172881521Y-133387409D01*
X172649838Y-133353398D01*
X172420707Y-133365000D01*
X140011433Y-133365000D01*
X139714520Y-133362795D01*
X139551061Y-133394049D01*
X139385433Y-133410362D01*
X139248503Y-133451899D01*
X139107967Y-133478770D01*
X138953749Y-133541311D01*
X138794483Y-133589624D01*
X138532485Y-133729665D01*
X119227084Y-143865000D01*
X64845998Y-143865000D01*
X64385433Y-143910362D01*
X63794483Y-144089624D01*
X63249860Y-144380731D01*
X62772495Y-144772495D01*
X62380731Y-145249860D01*
X62089624Y-145794483D01*
X61910362Y-146385433D01*
X61849832Y-147000000D01*
X61910362Y-147614567D01*
X62089624Y-148205517D01*
X62380731Y-148750140D01*
X62772495Y-149227505D01*
X63249860Y-149619269D01*
X63794483Y-149910376D01*
X64385433Y-150089638D01*
X64845998Y-150135000D01*
X119988567Y-150135000D01*
X120285479Y-150137205D01*
X120448937Y-150105951D01*
X120614567Y-150089638D01*
X120751498Y-150048101D01*
X120892032Y-150021230D01*
X121046247Y-149958690D01*
X121205517Y-149910376D01*
X121467569Y-149770306D01*
X140772917Y-139635000D01*
X171113171Y-139635000D01*
X174365000Y-143212013D01*
X174365001Y-158201440D01*
X168701442Y-163865000D01*
X168135000Y-163865000D01*
X168135000Y-156691229D01*
X168104806Y-156539431D01*
X168089638Y-156385433D01*
X168044719Y-156237353D01*
X168014524Y-156085554D01*
X167955296Y-155942566D01*
X167910376Y-155794483D01*
X167837427Y-155658005D01*
X167778201Y-155515021D01*
X167692218Y-155386338D01*
X167619269Y-155249860D01*
X167521098Y-155130239D01*
X167435114Y-155001554D01*
X167325674Y-154892114D01*
X167227505Y-154772495D01*
X167107887Y-154674327D01*
X166998446Y-154564886D01*
X166869757Y-154478899D01*
X166750139Y-154380731D01*
X166613666Y-154307784D01*
X166484979Y-154221799D01*
X166341990Y-154162571D01*
X166205516Y-154089624D01*
X166057437Y-154044705D01*
X165914446Y-153985476D01*
X165762644Y-153955281D01*
X165614566Y-153910362D01*
X165460569Y-153895195D01*
X165308771Y-153865000D01*
X165154002Y-153865000D01*
X165000000Y-153849832D01*
X164845998Y-153865000D01*
X164691229Y-153865000D01*
X164539431Y-153895194D01*
X164385433Y-153910362D01*
X164237353Y-153955281D01*
X164085554Y-153985476D01*
X163942566Y-154044704D01*
X163794483Y-154089624D01*
X163658005Y-154162573D01*
X163515021Y-154221799D01*
X163386338Y-154307782D01*
X163249860Y-154380731D01*
X163130239Y-154478902D01*
X163001554Y-154564886D01*
X162892114Y-154674326D01*
X162772495Y-154772495D01*
X162674327Y-154892113D01*
X162564886Y-155001554D01*
X162478899Y-155130243D01*
X162380731Y-155249861D01*
X162307784Y-155386334D01*
X162221799Y-155515021D01*
X162162571Y-155658010D01*
X162089624Y-155794484D01*
X162044705Y-155942563D01*
X161985476Y-156085554D01*
X161955281Y-156237356D01*
X161910362Y-156385434D01*
X161895195Y-156539430D01*
X161865000Y-156691229D01*
X161865000Y-166845995D01*
X161849832Y-167000000D01*
X161865000Y-167154005D01*
X161865001Y-188789206D01*
X160879208Y-189775000D01*
X118620793Y-189775000D01*
X117499903Y-188654110D01*
X117500000Y-188654120D01*
X117869523Y-188617725D01*
X118224847Y-188509939D01*
X118552317Y-188334903D01*
X118839345Y-188099345D01*
X119074903Y-187812317D01*
X119249939Y-187484848D01*
X119357725Y-187129524D01*
X119385000Y-186852597D01*
X119385000Y-183885000D01*
X119507411Y-183885000D01*
X119600000Y-183894119D01*
X119692589Y-183885000D01*
X119692597Y-183885000D01*
X119969524Y-183857725D01*
X120324848Y-183749939D01*
X120652317Y-183574903D01*
X120939345Y-183339345D01*
X120998374Y-183267418D01*
X131398372Y-172867421D01*
X131574902Y-172652318D01*
X131749938Y-172324849D01*
X131857725Y-171969525D01*
X131864251Y-171903261D01*
X131894120Y-171600000D01*
X131857725Y-171230476D01*
X131749938Y-170875151D01*
X131574903Y-170547683D01*
X131339345Y-170260655D01*
X131052317Y-170025097D01*
X130724849Y-169850062D01*
X130369524Y-169742275D01*
X130000000Y-169705880D01*
X129696739Y-169735749D01*
X129630475Y-169742275D01*
X129275151Y-169850062D01*
X128947682Y-170025098D01*
X128732579Y-170201628D01*
X119385000Y-179549208D01*
X119385000Y-179407403D01*
X119357725Y-179130476D01*
X119249939Y-178775152D01*
X119138072Y-178565864D01*
X119138072Y-178500000D01*
X119125812Y-178375518D01*
X119089502Y-178255820D01*
X119030537Y-178145506D01*
X118951185Y-178048815D01*
X118854494Y-177969463D01*
X118744180Y-177910498D01*
X118624482Y-177874188D01*
X118500000Y-177861928D01*
X118434136Y-177861928D01*
X118224848Y-177750061D01*
X117869524Y-177642275D01*
X117500000Y-177605880D01*
X117130477Y-177642275D01*
X116976944Y-177688849D01*
X118898372Y-175767421D01*
X119074902Y-175552318D01*
X119249938Y-175224849D01*
X119357724Y-174869525D01*
X119394119Y-174500001D01*
X119357724Y-174130477D01*
X119249938Y-173775152D01*
X119074902Y-173447684D01*
X118839344Y-173160656D01*
X118552316Y-172925098D01*
X118224848Y-172750062D01*
X117869523Y-172642276D01*
X117499999Y-172605881D01*
X117130475Y-172642276D01*
X116775151Y-172750062D01*
X116447682Y-172925098D01*
X116232579Y-173101628D01*
X112822577Y-176511631D01*
X112750656Y-176570655D01*
X112691631Y-176642577D01*
X112691628Y-176642580D01*
X112515098Y-176857683D01*
X112340062Y-177185152D01*
X112232275Y-177540476D01*
X112195881Y-177910000D01*
X112205001Y-178002599D01*
X112205000Y-183572524D01*
X108718398Y-180318715D01*
X108497330Y-180149714D01*
X108164015Y-179986085D01*
X107805182Y-179890628D01*
X107434622Y-179867009D01*
X107277859Y-179887934D01*
X117630801Y-169534992D01*
X141757419Y-169534992D01*
X141850008Y-169544111D01*
X141942597Y-169534992D01*
X141942605Y-169534992D01*
X142219532Y-169507717D01*
X142574856Y-169399931D01*
X142902325Y-169224895D01*
X143189353Y-168989337D01*
X143248382Y-168917410D01*
X158140365Y-154025427D01*
X158691229Y-154135000D01*
X159308771Y-154135000D01*
X159914446Y-154014524D01*
X160484979Y-153778201D01*
X160998446Y-153435114D01*
X161435114Y-152998446D01*
X161778201Y-152484979D01*
X162014524Y-151914446D01*
X162135000Y-151308771D01*
X162135000Y-150691229D01*
X162014524Y-150085554D01*
X161778201Y-149515021D01*
X161435114Y-149001554D01*
X160998446Y-148564886D01*
X160484979Y-148221799D01*
X159914446Y-147985476D01*
X159308771Y-147865000D01*
X158691229Y-147865000D01*
X158085554Y-147985476D01*
X157515021Y-148221799D01*
X157001554Y-148564886D01*
X156564886Y-149001554D01*
X156221799Y-149515021D01*
X155985476Y-150085554D01*
X155865000Y-150691229D01*
X155865000Y-150969208D01*
X141069216Y-165764992D01*
X116942594Y-165764992D01*
X116850007Y-165755873D01*
X116757420Y-165764992D01*
X116757411Y-165764992D01*
X116480484Y-165792267D01*
X116125160Y-165900053D01*
X115797691Y-166075089D01*
X115797689Y-166075090D01*
X115797690Y-166075090D01*
X115582587Y-166251620D01*
X115582585Y-166251622D01*
X115510663Y-166310647D01*
X115451638Y-166382569D01*
X99133510Y-182700697D01*
X99223312Y-182546057D01*
X99343551Y-182194751D01*
X99392944Y-181826738D01*
X99369591Y-181456161D01*
X99274392Y-181097259D01*
X99111003Y-180763827D01*
X98942161Y-180542637D01*
X93365000Y-174557844D01*
X93365000Y-174407403D01*
X93337725Y-174130476D01*
X93318072Y-174065689D01*
X93318072Y-173300000D01*
X93305812Y-173175518D01*
X93269502Y-173055820D01*
X93210537Y-172945506D01*
X93131185Y-172848815D01*
X93034494Y-172769463D01*
X92924180Y-172710498D01*
X92804482Y-172674188D01*
X92680000Y-172661928D01*
X91914310Y-172661928D01*
X91849523Y-172642275D01*
X91480000Y-172605880D01*
X91110476Y-172642275D01*
X91045689Y-172661928D01*
X90280000Y-172661928D01*
X90155518Y-172674188D01*
X90035820Y-172710498D01*
X89925506Y-172769463D01*
X89828815Y-172848815D01*
X89749463Y-172945506D01*
X89690498Y-173055820D01*
X89654188Y-173175518D01*
X89641928Y-173300000D01*
X89641928Y-174065690D01*
X89622275Y-174130477D01*
X89595000Y-174407404D01*
X89595000Y-175174080D01*
X89587057Y-175233262D01*
X89595000Y-175359311D01*
X89595000Y-175392597D01*
X89600823Y-175451723D01*
X89610409Y-175603838D01*
X89618993Y-175636198D01*
X89622275Y-175669524D01*
X89646932Y-175750807D01*
X89654188Y-175824482D01*
X89690498Y-175944180D01*
X89725395Y-176009467D01*
X89730061Y-176024848D01*
X89801934Y-176159312D01*
X89868998Y-176296172D01*
X89889310Y-176322781D01*
X89905097Y-176352317D01*
X90001813Y-176470166D01*
X90037840Y-176517362D01*
X90060521Y-176541701D01*
X90140656Y-176639345D01*
X90186820Y-176677231D01*
X96184096Y-183112847D01*
X96392845Y-183296847D01*
X96713943Y-183483312D01*
X97065249Y-183603551D01*
X97374073Y-183645000D01*
X83817403Y-183645000D01*
X83540476Y-183672275D01*
X83185152Y-183780061D01*
X82857683Y-183955097D01*
X82570655Y-184190655D01*
X82335097Y-184477683D01*
X82160061Y-184805152D01*
X82052275Y-185160476D01*
X82015880Y-185530000D01*
X82052275Y-185899524D01*
X82160061Y-186254848D01*
X82335097Y-186582317D01*
X82386540Y-186645000D01*
X80907403Y-186645000D01*
X80630476Y-186672275D01*
X80275152Y-186780061D01*
X79947683Y-186955097D01*
X79660655Y-187190655D01*
X79425097Y-187477683D01*
X79250061Y-187805152D01*
X79142275Y-188160476D01*
X79108503Y-188503372D01*
X79006992Y-188401861D01*
X79006988Y-188401856D01*
X78015000Y-187409869D01*
X78015000Y-178935741D01*
X78020490Y-178879999D01*
X78015000Y-178824257D01*
X78015000Y-178824248D01*
X77998577Y-178657501D01*
X77933676Y-178443553D01*
X77828284Y-178246377D01*
X77686449Y-178073551D01*
X77643141Y-178038009D01*
X76826848Y-177221716D01*
X76835000Y-177180732D01*
X76835000Y-176819268D01*
X76764482Y-176464750D01*
X76626156Y-176130801D01*
X76425338Y-175830256D01*
X76169744Y-175574662D01*
X75869199Y-175373844D01*
X75535250Y-175235518D01*
X75180732Y-175165000D01*
X74819268Y-175165000D01*
X74464750Y-175235518D01*
X74130801Y-175373844D01*
X73830256Y-175574662D01*
X73574662Y-175830256D01*
X73373844Y-176130801D01*
X73235518Y-176464750D01*
X73165000Y-176819268D01*
X73165000Y-177180732D01*
X73235518Y-177535250D01*
X73373844Y-177869199D01*
X73574662Y-178169744D01*
X73830256Y-178425338D01*
X74130801Y-178626156D01*
X74464750Y-178764482D01*
X74819268Y-178835000D01*
X75180732Y-178835000D01*
X75221716Y-178826848D01*
X75745001Y-179350133D01*
X75745000Y-183365000D01*
X73294286Y-183365000D01*
X73156043Y-183272629D01*
X73101412Y-183250000D01*
X73156043Y-183227371D01*
X73382886Y-183075799D01*
X73575799Y-182882886D01*
X73727371Y-182656043D01*
X73831775Y-182403989D01*
X73885000Y-182136411D01*
X73885000Y-181863589D01*
X73831775Y-181596011D01*
X73727371Y-181343957D01*
X73635000Y-181205714D01*
X73635000Y-179555752D01*
X73640491Y-179500000D01*
X73621618Y-179308372D01*
X73618577Y-179277501D01*
X73553676Y-179063553D01*
X73448284Y-178866377D01*
X73306449Y-178693551D01*
X73133623Y-178551716D01*
X72936447Y-178446324D01*
X72722499Y-178381423D01*
X72500000Y-178359509D01*
X72444249Y-178365000D01*
X66885000Y-178365000D01*
X66885000Y-176907403D01*
X66857725Y-176630476D01*
X66749939Y-176275152D01*
X66574903Y-175947683D01*
X66339345Y-175660655D01*
X66052317Y-175425097D01*
X65724848Y-175250061D01*
X65369524Y-175142275D01*
X65000000Y-175105880D01*
X64630477Y-175142275D01*
X64275153Y-175250061D01*
X63947684Y-175425097D01*
X63660656Y-175660655D01*
X63425098Y-175947683D01*
X63250062Y-176275152D01*
X63142276Y-176630476D01*
X63115001Y-176907403D01*
X63115000Y-178365000D01*
X62037337Y-178365000D01*
X61973137Y-178359634D01*
X61870410Y-178371287D01*
X61767501Y-178381423D01*
X61759400Y-178383881D01*
X61750986Y-178384835D01*
X61652512Y-178416305D01*
X61553553Y-178446324D01*
X61546082Y-178450317D01*
X61538022Y-178452893D01*
X61447611Y-178502951D01*
X61356377Y-178551716D01*
X61349830Y-178557089D01*
X61342425Y-178561189D01*
X61263483Y-178627952D01*
X61183551Y-178693551D01*
X61142679Y-178743354D01*
X45238035Y-195125419D01*
X45185656Y-195115000D01*
X44814344Y-195115000D01*
X44450166Y-195187439D01*
X44107118Y-195329534D01*
X43798382Y-195535825D01*
X43535825Y-195798382D01*
X43329534Y-196107118D01*
X43187439Y-196450166D01*
X43115000Y-196814344D01*
X22127000Y-196814344D01*
X22127000Y-149023757D01*
X29349922Y-149023757D01*
X29381252Y-149319012D01*
X29410362Y-149614566D01*
X29413826Y-149625985D01*
X29415085Y-149637850D01*
X29503406Y-149921291D01*
X29589624Y-150205516D01*
X29668160Y-150352446D01*
X35048144Y-163068777D01*
X35089624Y-163205517D01*
X35168155Y-163352439D01*
X35172772Y-163363351D01*
X35240740Y-163488235D01*
X35380731Y-163750140D01*
X35388302Y-163759365D01*
X35394004Y-163769842D01*
X35584103Y-163997949D01*
X35772495Y-164227505D01*
X35781716Y-164235073D01*
X35789356Y-164244240D01*
X36020326Y-164430895D01*
X36249860Y-164619269D01*
X36260384Y-164624894D01*
X36269663Y-164632393D01*
X36532528Y-164770358D01*
X36794483Y-164910376D01*
X36805906Y-164913841D01*
X36816465Y-164919383D01*
X37101209Y-165003420D01*
X37385433Y-165089638D01*
X37397305Y-165090807D01*
X37408750Y-165094185D01*
X37704467Y-165121060D01*
X37845998Y-165135000D01*
X37857849Y-165135000D01*
X38023757Y-165150078D01*
X38165851Y-165135000D01*
X47346005Y-165135000D01*
X47500000Y-165150167D01*
X47653995Y-165135000D01*
X47654002Y-165135000D01*
X48114567Y-165089638D01*
X48705517Y-164910376D01*
X49250140Y-164619269D01*
X49727505Y-164227505D01*
X49825683Y-164107875D01*
X59607881Y-154325678D01*
X59727505Y-154227505D01*
X60119269Y-153750140D01*
X60308975Y-153395224D01*
X60410376Y-153205518D01*
X60589638Y-152614567D01*
X60650168Y-152000000D01*
X60635000Y-151845998D01*
X60635000Y-146845998D01*
X60589638Y-146385433D01*
X60410376Y-145794483D01*
X60119269Y-145249860D01*
X59727505Y-144772495D01*
X59250139Y-144380731D01*
X58705516Y-144089624D01*
X58114566Y-143910362D01*
X57500000Y-143849832D01*
X56885433Y-143910362D01*
X56294483Y-144089624D01*
X55749860Y-144380731D01*
X55272495Y-144772495D01*
X54880731Y-145249861D01*
X54589624Y-145794484D01*
X54410362Y-146385434D01*
X54365000Y-146845999D01*
X54365001Y-150701440D01*
X46201442Y-158865000D01*
X40077683Y-158865000D01*
X37094713Y-151814344D01*
X43115000Y-151814344D01*
X43115000Y-152185656D01*
X43187439Y-152549834D01*
X43329534Y-152892882D01*
X43535825Y-153201618D01*
X43798382Y-153464175D01*
X44107118Y-153670466D01*
X44450166Y-153812561D01*
X44814344Y-153885000D01*
X45185656Y-153885000D01*
X45549834Y-153812561D01*
X45892882Y-153670466D01*
X46201618Y-153464175D01*
X46464175Y-153201618D01*
X46670466Y-152892882D01*
X46812561Y-152549834D01*
X46885000Y-152185656D01*
X46885000Y-151814344D01*
X46812561Y-151450166D01*
X46670466Y-151107118D01*
X46464175Y-150798382D01*
X46201618Y-150535825D01*
X46135000Y-150491312D01*
X46135000Y-138121440D01*
X53558904Y-130945000D01*
X53964183Y-130945000D01*
X54021495Y-131002312D01*
X54272905Y-131170299D01*
X54552257Y-131286011D01*
X54848816Y-131345000D01*
X55151184Y-131345000D01*
X55447743Y-131286011D01*
X55727095Y-131170299D01*
X55978505Y-131002312D01*
X56192312Y-130788505D01*
X56360299Y-130537095D01*
X56476011Y-130257743D01*
X56535000Y-129961184D01*
X56535000Y-129658816D01*
X56476011Y-129362257D01*
X56360299Y-129082905D01*
X56192312Y-128831495D01*
X55978505Y-128617688D01*
X55727095Y-128449701D01*
X55447743Y-128333989D01*
X55151184Y-128275000D01*
X54848816Y-128275000D01*
X54552257Y-128333989D01*
X54272905Y-128449701D01*
X54021495Y-128617688D01*
X53964183Y-128675000D01*
X53165396Y-128675000D01*
X53119327Y-128669673D01*
X53053888Y-128675000D01*
X53044248Y-128675000D01*
X52998318Y-128679524D01*
X52896489Y-128687813D01*
X52887157Y-128690472D01*
X52877501Y-128691423D01*
X52779729Y-128721082D01*
X52681472Y-128749079D01*
X52672838Y-128753507D01*
X52663553Y-128756324D01*
X52573437Y-128804491D01*
X52482538Y-128851115D01*
X52474936Y-128857141D01*
X52466377Y-128861716D01*
X52387372Y-128926554D01*
X52351235Y-128955200D01*
X52344311Y-128961893D01*
X52293551Y-129003551D01*
X52264126Y-129039405D01*
X44244307Y-136791897D01*
X44193552Y-136833551D01*
X44128734Y-136912532D01*
X44062591Y-136990398D01*
X44057873Y-136998876D01*
X44051717Y-137006377D01*
X44003555Y-137096482D01*
X43953872Y-137185760D01*
X43950898Y-137194998D01*
X43946325Y-137203553D01*
X43916672Y-137301305D01*
X43885355Y-137398577D01*
X43884240Y-137408217D01*
X43881424Y-137417501D01*
X43871412Y-137519153D01*
X43859673Y-137620673D01*
X43865001Y-137686124D01*
X43865000Y-150491312D01*
X43798382Y-150535825D01*
X43535825Y-150798382D01*
X43329534Y-151107118D01*
X43187439Y-151450166D01*
X43115000Y-151814344D01*
X37094713Y-151814344D01*
X35635000Y-148364114D01*
X35635000Y-140845998D01*
X35589638Y-140385433D01*
X35410376Y-139794483D01*
X35119269Y-139249860D01*
X34727505Y-138772495D01*
X34250140Y-138380731D01*
X33705517Y-138089624D01*
X33114567Y-137910362D01*
X32500000Y-137849832D01*
X31885434Y-137910362D01*
X31294484Y-138089624D01*
X30749861Y-138380731D01*
X30272496Y-138772495D01*
X29880732Y-139249860D01*
X29589625Y-139794483D01*
X29410363Y-140385433D01*
X29365001Y-140845998D01*
X29365000Y-148857849D01*
X29349922Y-149023757D01*
X22127000Y-149023757D01*
X22127000Y-102976243D01*
X29349922Y-102976243D01*
X29365000Y-103142151D01*
X29365001Y-112654002D01*
X29410363Y-113114567D01*
X29589625Y-113705517D01*
X29861928Y-114214960D01*
X29861928Y-114500000D01*
X29874188Y-114624482D01*
X29910498Y-114744180D01*
X29969463Y-114854494D01*
X30048815Y-114951185D01*
X30145506Y-115030537D01*
X30255820Y-115089502D01*
X30375518Y-115125812D01*
X30500000Y-115138072D01*
X30785039Y-115138072D01*
X31294484Y-115410376D01*
X31885434Y-115589638D01*
X32500000Y-115650168D01*
X33114567Y-115589638D01*
X33705517Y-115410376D01*
X34214962Y-115138072D01*
X34500000Y-115138072D01*
X34624482Y-115125812D01*
X34744180Y-115089502D01*
X34854494Y-115030537D01*
X34951185Y-114951185D01*
X35030537Y-114854494D01*
X35089502Y-114744180D01*
X35125812Y-114624482D01*
X35138072Y-114500000D01*
X35138072Y-114214962D01*
X35410376Y-113705517D01*
X35589638Y-113114567D01*
X35635000Y-112654002D01*
X35635000Y-103635886D01*
X37251806Y-99814344D01*
X43115000Y-99814344D01*
X43115000Y-100185656D01*
X43187439Y-100549834D01*
X43329534Y-100892882D01*
X43535825Y-101201618D01*
X43798382Y-101464175D01*
X43865000Y-101508688D01*
X43865001Y-114313876D01*
X43859673Y-114379327D01*
X43871412Y-114480847D01*
X43881424Y-114582499D01*
X43884240Y-114591783D01*
X43885355Y-114601423D01*
X43916672Y-114698695D01*
X43946325Y-114796447D01*
X43950898Y-114805002D01*
X43953872Y-114814240D01*
X44003555Y-114903518D01*
X44051717Y-114993623D01*
X44057873Y-115001124D01*
X44062591Y-115009602D01*
X44128734Y-115087468D01*
X44193552Y-115166449D01*
X44244307Y-115208103D01*
X52264126Y-122960595D01*
X52293551Y-122996449D01*
X52344311Y-123038107D01*
X52351235Y-123044800D01*
X52387372Y-123073446D01*
X52466377Y-123138284D01*
X52474936Y-123142859D01*
X52482538Y-123148885D01*
X52573437Y-123195509D01*
X52663553Y-123243676D01*
X52672838Y-123246493D01*
X52681472Y-123250921D01*
X52779729Y-123278918D01*
X52877501Y-123308577D01*
X52887157Y-123309528D01*
X52896489Y-123312187D01*
X52998318Y-123320476D01*
X53044248Y-123325000D01*
X53053888Y-123325000D01*
X53119327Y-123330327D01*
X53165396Y-123325000D01*
X53507713Y-123325000D01*
X53510498Y-123334180D01*
X53569463Y-123444494D01*
X53648815Y-123541185D01*
X53745506Y-123620537D01*
X53855820Y-123679502D01*
X53975518Y-123715812D01*
X54100000Y-123728072D01*
X55900000Y-123728072D01*
X56024482Y-123715812D01*
X56144180Y-123679502D01*
X56254494Y-123620537D01*
X56351185Y-123541185D01*
X56430537Y-123444494D01*
X56489502Y-123334180D01*
X56525812Y-123214482D01*
X56538072Y-123090000D01*
X56538072Y-121290000D01*
X56525812Y-121165518D01*
X56489502Y-121045820D01*
X56430537Y-120935506D01*
X56351185Y-120838815D01*
X56254494Y-120759463D01*
X56144180Y-120700498D01*
X56024482Y-120664188D01*
X55900000Y-120651928D01*
X54100000Y-120651928D01*
X53975518Y-120664188D01*
X53855820Y-120700498D01*
X53745506Y-120759463D01*
X53648815Y-120838815D01*
X53569463Y-120935506D01*
X53523753Y-121021021D01*
X46135000Y-113878560D01*
X46135000Y-112500000D01*
X75645880Y-112500000D01*
X75682275Y-112869524D01*
X75790061Y-113224848D01*
X75965097Y-113552317D01*
X76200655Y-113839345D01*
X76487683Y-114074903D01*
X76815152Y-114249939D01*
X77170476Y-114357725D01*
X77447403Y-114385000D01*
X84459208Y-114385000D01*
X86232579Y-116158372D01*
X86447683Y-116334903D01*
X86775151Y-116509938D01*
X87130476Y-116617725D01*
X87500000Y-116654120D01*
X87869524Y-116617725D01*
X88224849Y-116509938D01*
X88552317Y-116334903D01*
X88839345Y-116099345D01*
X89074903Y-115812317D01*
X89249938Y-115484849D01*
X89357725Y-115129524D01*
X89394120Y-114760000D01*
X89357725Y-114390476D01*
X89249938Y-114035151D01*
X89074903Y-113707683D01*
X88898372Y-113492579D01*
X86638374Y-111232582D01*
X86579345Y-111160655D01*
X86292317Y-110925097D01*
X85964848Y-110750061D01*
X85609524Y-110642275D01*
X85332597Y-110615000D01*
X85332589Y-110615000D01*
X85240000Y-110605881D01*
X85147411Y-110615000D01*
X77447403Y-110615000D01*
X77170476Y-110642275D01*
X76815152Y-110750061D01*
X76487683Y-110925097D01*
X76200655Y-111160655D01*
X75965097Y-111447683D01*
X75790061Y-111775152D01*
X75682275Y-112130476D01*
X75645880Y-112500000D01*
X46135000Y-112500000D01*
X46135000Y-101508688D01*
X46201618Y-101464175D01*
X46464175Y-101201618D01*
X46670466Y-100892882D01*
X46812561Y-100549834D01*
X46885000Y-100185656D01*
X46885000Y-99814344D01*
X46812561Y-99450166D01*
X46670466Y-99107118D01*
X46464175Y-98798382D01*
X46201618Y-98535825D01*
X45892882Y-98329534D01*
X45549834Y-98187439D01*
X45185656Y-98115000D01*
X44814344Y-98115000D01*
X44450166Y-98187439D01*
X44107118Y-98329534D01*
X43798382Y-98535825D01*
X43535825Y-98798382D01*
X43329534Y-99107118D01*
X43187439Y-99450166D01*
X43115000Y-99814344D01*
X37251806Y-99814344D01*
X40077683Y-93135000D01*
X46201442Y-93135000D01*
X54365001Y-101298560D01*
X54365000Y-105154001D01*
X54410362Y-105614566D01*
X54589624Y-106205516D01*
X54880731Y-106750139D01*
X55272495Y-107227505D01*
X55749860Y-107619269D01*
X56294483Y-107910376D01*
X56885433Y-108089638D01*
X57500000Y-108150168D01*
X58114566Y-108089638D01*
X58705516Y-107910376D01*
X59250139Y-107619269D01*
X59727505Y-107227505D01*
X60119269Y-106750140D01*
X60410376Y-106205517D01*
X60589638Y-105614567D01*
X60635000Y-105154002D01*
X60635000Y-100154002D01*
X60650168Y-100000000D01*
X60589638Y-99385433D01*
X60410376Y-98794482D01*
X60272120Y-98535825D01*
X60119269Y-98249860D01*
X59727505Y-97772495D01*
X59607881Y-97674322D01*
X49825683Y-87892125D01*
X49727505Y-87772495D01*
X49250140Y-87380731D01*
X48705517Y-87089624D01*
X48114567Y-86910362D01*
X47654002Y-86865000D01*
X47653995Y-86865000D01*
X47500000Y-86849833D01*
X47346005Y-86865000D01*
X38165851Y-86865000D01*
X38023757Y-86849922D01*
X37857849Y-86865000D01*
X37845998Y-86865000D01*
X37704467Y-86878940D01*
X37408750Y-86905815D01*
X37397305Y-86909193D01*
X37385433Y-86910362D01*
X37101209Y-86996580D01*
X36816465Y-87080617D01*
X36805906Y-87086159D01*
X36794483Y-87089624D01*
X36532528Y-87229642D01*
X36269663Y-87367607D01*
X36260384Y-87375106D01*
X36249860Y-87380731D01*
X36020326Y-87569105D01*
X35789356Y-87755760D01*
X35781716Y-87764927D01*
X35772495Y-87772495D01*
X35584103Y-88002051D01*
X35394004Y-88230158D01*
X35388302Y-88240635D01*
X35380731Y-88249860D01*
X35240740Y-88511765D01*
X35172772Y-88636649D01*
X35168155Y-88647561D01*
X35089624Y-88794483D01*
X35048144Y-88931223D01*
X29668160Y-101647554D01*
X29589624Y-101794484D01*
X29503406Y-102078709D01*
X29415085Y-102362150D01*
X29413826Y-102374015D01*
X29410362Y-102385434D01*
X29381252Y-102680988D01*
X29349922Y-102976243D01*
X22127000Y-102976243D01*
X22127000Y-54814344D01*
X43115000Y-54814344D01*
X43115000Y-55185656D01*
X43187439Y-55549834D01*
X43329534Y-55892882D01*
X43535825Y-56201618D01*
X43798382Y-56464175D01*
X44107118Y-56670466D01*
X44450166Y-56812561D01*
X44814344Y-56885000D01*
X45185656Y-56885000D01*
X45238035Y-56874581D01*
X61142679Y-73256646D01*
X61183551Y-73306449D01*
X61263483Y-73372048D01*
X61342425Y-73438811D01*
X61349830Y-73442911D01*
X61356377Y-73448284D01*
X61447611Y-73497049D01*
X61538022Y-73547107D01*
X61546082Y-73549683D01*
X61553553Y-73553676D01*
X61652512Y-73583695D01*
X61750986Y-73615165D01*
X61759400Y-73616119D01*
X61767501Y-73618577D01*
X61870410Y-73628713D01*
X61973137Y-73640366D01*
X62037337Y-73635000D01*
X63115000Y-73635000D01*
X63115001Y-75092597D01*
X63142276Y-75369524D01*
X63250062Y-75724848D01*
X63425098Y-76052317D01*
X63660656Y-76339345D01*
X63947684Y-76574903D01*
X64275153Y-76749939D01*
X64630477Y-76857725D01*
X65000000Y-76894120D01*
X65369524Y-76857725D01*
X65724848Y-76749939D01*
X66052317Y-76574903D01*
X66339345Y-76339345D01*
X66574903Y-76052317D01*
X66749939Y-75724848D01*
X66857725Y-75369524D01*
X66885000Y-75092597D01*
X66885000Y-73635000D01*
X72444249Y-73635000D01*
X72500000Y-73640491D01*
X72722499Y-73618577D01*
X72936447Y-73553676D01*
X73133623Y-73448284D01*
X73306449Y-73306449D01*
X73448284Y-73133623D01*
X73553676Y-72936447D01*
X73618577Y-72722499D01*
X73635000Y-72555752D01*
X73640491Y-72500000D01*
X73635000Y-72444248D01*
X73635000Y-70794286D01*
X73727371Y-70656043D01*
X73831775Y-70403989D01*
X73885000Y-70136411D01*
X73885000Y-69863589D01*
X73831775Y-69596011D01*
X73727371Y-69343957D01*
X73575799Y-69117114D01*
X73382886Y-68924201D01*
X73156043Y-68772629D01*
X73101412Y-68750000D01*
X73156043Y-68727371D01*
X73294286Y-68635000D01*
X75745000Y-68635000D01*
X75745001Y-72649867D01*
X75221716Y-73173152D01*
X75180732Y-73165000D01*
X74819268Y-73165000D01*
X74464750Y-73235518D01*
X74130801Y-73373844D01*
X73830256Y-73574662D01*
X73574662Y-73830256D01*
X73373844Y-74130801D01*
X73235518Y-74464750D01*
X73165000Y-74819268D01*
X73165000Y-75180732D01*
X73235518Y-75535250D01*
X73373844Y-75869199D01*
X73574662Y-76169744D01*
X73830256Y-76425338D01*
X74130801Y-76626156D01*
X74464750Y-76764482D01*
X74819268Y-76835000D01*
X75180732Y-76835000D01*
X75535250Y-76764482D01*
X75869199Y-76626156D01*
X76169744Y-76425338D01*
X76425338Y-76169744D01*
X76626156Y-75869199D01*
X76764482Y-75535250D01*
X76835000Y-75180732D01*
X76835000Y-74819268D01*
X76826848Y-74778284D01*
X77643141Y-73961991D01*
X77686449Y-73926449D01*
X77828284Y-73753623D01*
X77933676Y-73556447D01*
X77998577Y-73342499D01*
X78015000Y-73175752D01*
X78015000Y-73175743D01*
X78020490Y-73120001D01*
X78015000Y-73064259D01*
X78015000Y-67920131D01*
X83830133Y-62105000D01*
X84021033Y-62105000D01*
X84336912Y-62042168D01*
X84634463Y-61918918D01*
X84902252Y-61739987D01*
X85129987Y-61512252D01*
X85308918Y-61244463D01*
X85432168Y-60946912D01*
X85495000Y-60631033D01*
X85495000Y-60308967D01*
X85432168Y-59993088D01*
X85308918Y-59695537D01*
X85129987Y-59427748D01*
X84902252Y-59200013D01*
X84634463Y-59021082D01*
X84336912Y-58897832D01*
X84021033Y-58835000D01*
X83698967Y-58835000D01*
X83383088Y-58897832D01*
X83085537Y-59021082D01*
X82817748Y-59200013D01*
X82590013Y-59427748D01*
X82411082Y-59695537D01*
X82287832Y-59993088D01*
X82225000Y-60308967D01*
X82225000Y-60499867D01*
X76359869Y-66365000D01*
X73294286Y-66365000D01*
X73156043Y-66272629D01*
X73101412Y-66250000D01*
X73156043Y-66227371D01*
X73382886Y-66075799D01*
X73575799Y-65882886D01*
X73727371Y-65656043D01*
X73831775Y-65403989D01*
X73864212Y-65240919D01*
X82970133Y-56135000D01*
X95992953Y-56135000D01*
X96160655Y-56339345D01*
X96447683Y-56574903D01*
X96775152Y-56749939D01*
X97130476Y-56857725D01*
X97407403Y-56885000D01*
X107592597Y-56885000D01*
X107869524Y-56857725D01*
X108224848Y-56749939D01*
X108552317Y-56574903D01*
X108839345Y-56339345D01*
X109074903Y-56052317D01*
X109249939Y-55724848D01*
X109357725Y-55369524D01*
X109394120Y-55000000D01*
X109357725Y-54630476D01*
X109249939Y-54275152D01*
X109074903Y-53947683D01*
X108839345Y-53660655D01*
X108552317Y-53425097D01*
X108224848Y-53250061D01*
X107869524Y-53142275D01*
X107592597Y-53115000D01*
X97407403Y-53115000D01*
X97130476Y-53142275D01*
X96775152Y-53250061D01*
X96447683Y-53425097D01*
X96160655Y-53660655D01*
X95992953Y-53865000D01*
X82555752Y-53865000D01*
X82500000Y-53859509D01*
X82277501Y-53881423D01*
X82063553Y-53946324D01*
X81866377Y-54051716D01*
X81736856Y-54158011D01*
X81736854Y-54158013D01*
X81693551Y-54193551D01*
X81658013Y-54236854D01*
X72259081Y-63635788D01*
X72096011Y-63668225D01*
X71843957Y-63772629D01*
X71617114Y-63924201D01*
X71424201Y-64117114D01*
X71272629Y-64343957D01*
X71168225Y-64596011D01*
X71115000Y-64863589D01*
X71115000Y-65136411D01*
X71168225Y-65403989D01*
X71272629Y-65656043D01*
X71424201Y-65882886D01*
X71617114Y-66075799D01*
X71843957Y-66227371D01*
X71898588Y-66250000D01*
X71843957Y-66272629D01*
X71617114Y-66424201D01*
X71424201Y-66617114D01*
X71272629Y-66843957D01*
X71168225Y-67096011D01*
X71115000Y-67363589D01*
X71115000Y-67636411D01*
X71168225Y-67903989D01*
X71272629Y-68156043D01*
X71424201Y-68382886D01*
X71617114Y-68575799D01*
X71843957Y-68727371D01*
X71898588Y-68750000D01*
X71843957Y-68772629D01*
X71617114Y-68924201D01*
X71424201Y-69117114D01*
X71272629Y-69343957D01*
X71168225Y-69596011D01*
X71115000Y-69863589D01*
X71115000Y-70136411D01*
X71168225Y-70403989D01*
X71272629Y-70656043D01*
X71365000Y-70794286D01*
X71365001Y-71365000D01*
X66885000Y-71365000D01*
X66885000Y-70147403D01*
X66857725Y-69870476D01*
X66749939Y-69515152D01*
X66574903Y-69187683D01*
X66339345Y-68900655D01*
X66052317Y-68665097D01*
X65724847Y-68490061D01*
X65369523Y-68382275D01*
X65000000Y-68345880D01*
X64630476Y-68382275D01*
X64275152Y-68490061D01*
X63947683Y-68665097D01*
X63660655Y-68900655D01*
X63425097Y-69187683D01*
X63250061Y-69515153D01*
X63142275Y-69870477D01*
X63115000Y-70147404D01*
X63115000Y-71365000D01*
X62469994Y-71365000D01*
X46864112Y-55290667D01*
X46885000Y-55185656D01*
X46885000Y-54814344D01*
X46812561Y-54450166D01*
X46670466Y-54107118D01*
X46464175Y-53798382D01*
X46201618Y-53535825D01*
X45892882Y-53329534D01*
X45549834Y-53187439D01*
X45185656Y-53115000D01*
X44814344Y-53115000D01*
X44450166Y-53187439D01*
X44107118Y-53329534D01*
X43798382Y-53535825D01*
X43535825Y-53798382D01*
X43329534Y-54107118D01*
X43187439Y-54450166D01*
X43115000Y-54814344D01*
X22127000Y-54814344D01*
X22127000Y-50000000D01*
X58105880Y-50000000D01*
X58142275Y-50369524D01*
X58250061Y-50724848D01*
X58425097Y-51052317D01*
X58660655Y-51339345D01*
X58947683Y-51574903D01*
X59275152Y-51749939D01*
X59630476Y-51857725D01*
X59907403Y-51885000D01*
X63115001Y-51885000D01*
X63115000Y-55092596D01*
X63142275Y-55369523D01*
X63250061Y-55724847D01*
X63425097Y-56052317D01*
X63660655Y-56339345D01*
X63947683Y-56574903D01*
X64275152Y-56749939D01*
X64630476Y-56857725D01*
X65000000Y-56894120D01*
X65369523Y-56857725D01*
X65724847Y-56749939D01*
X66052317Y-56574903D01*
X66339345Y-56339345D01*
X66574903Y-56052317D01*
X66749939Y-55724848D01*
X66857725Y-55369524D01*
X66885000Y-55092597D01*
X66885000Y-51885000D01*
X67352597Y-51885000D01*
X67629524Y-51857725D01*
X67984848Y-51749939D01*
X68312317Y-51574903D01*
X68599345Y-51339345D01*
X68834903Y-51052317D01*
X69009939Y-50724848D01*
X69117725Y-50369524D01*
X69154120Y-50000000D01*
X69117725Y-49630476D01*
X69009939Y-49275152D01*
X68834903Y-48947683D01*
X68599345Y-48660655D01*
X68312317Y-48425097D01*
X67984848Y-48250061D01*
X67629524Y-48142275D01*
X67352597Y-48115000D01*
X65092597Y-48115000D01*
X65000000Y-48105880D01*
X64907403Y-48115000D01*
X59907403Y-48115000D01*
X59630476Y-48142275D01*
X59275152Y-48250061D01*
X58947683Y-48425097D01*
X58660655Y-48660655D01*
X58425097Y-48947683D01*
X58250061Y-49275152D01*
X58142275Y-49630476D01*
X58105880Y-50000000D01*
X22127000Y-50000000D01*
X22127000Y-33122285D01*
X23665000Y-33122285D01*
X23665000Y-33877715D01*
X23812377Y-34618628D01*
X24101467Y-35316554D01*
X24521161Y-35944670D01*
X25055330Y-36478839D01*
X25683446Y-36898533D01*
X26381372Y-37187623D01*
X27122285Y-37335000D01*
X27877715Y-37335000D01*
X28618628Y-37187623D01*
X29316554Y-36898533D01*
X29944670Y-36478839D01*
X30478839Y-35944670D01*
X30898533Y-35316554D01*
X31187623Y-34618628D01*
X31335000Y-33877715D01*
X31335000Y-33122285D01*
X31187623Y-32381372D01*
X30898533Y-31683446D01*
X30478839Y-31055330D01*
X29944670Y-30521161D01*
X29316554Y-30101467D01*
X29071591Y-30000000D01*
X32873000Y-30000000D01*
X32873000Y-37000000D01*
X32875440Y-37024776D01*
X32882667Y-37048601D01*
X32894403Y-37070557D01*
X32910197Y-37089803D01*
X32929443Y-37105597D01*
X32951399Y-37117333D01*
X32975224Y-37124560D01*
X33000000Y-37127000D01*
X60000000Y-37127000D01*
X60024776Y-37124560D01*
X60048601Y-37117333D01*
X60070557Y-37105597D01*
X60089803Y-37089803D01*
X60105597Y-37070557D01*
X60117333Y-37048601D01*
X60124560Y-37024776D01*
X60127000Y-37000000D01*
X60127000Y-33122285D01*
X142665000Y-33122285D01*
X142665000Y-33877715D01*
X142812377Y-34618628D01*
X143101467Y-35316554D01*
X143521161Y-35944670D01*
X144055330Y-36478839D01*
X144683446Y-36898533D01*
X145381372Y-37187623D01*
X146122285Y-37335000D01*
X146877715Y-37335000D01*
X147618628Y-37187623D01*
X148316554Y-36898533D01*
X148944670Y-36478839D01*
X149478839Y-35944670D01*
X149898533Y-35316554D01*
X150187623Y-34618628D01*
X150335000Y-33877715D01*
X150335000Y-33122285D01*
X178665000Y-33122285D01*
X178665000Y-33877715D01*
X178812377Y-34618628D01*
X179101467Y-35316554D01*
X179521161Y-35944670D01*
X180055330Y-36478839D01*
X180683446Y-36898533D01*
X181381372Y-37187623D01*
X182122285Y-37335000D01*
X182877715Y-37335000D01*
X183618628Y-37187623D01*
X184316554Y-36898533D01*
X184944670Y-36478839D01*
X185478839Y-35944670D01*
X185898533Y-35316554D01*
X186187623Y-34618628D01*
X186335000Y-33877715D01*
X186335000Y-33122285D01*
X186187623Y-32381372D01*
X185898533Y-31683446D01*
X185478839Y-31055330D01*
X184944670Y-30521161D01*
X184316554Y-30101467D01*
X183618628Y-29812377D01*
X182877715Y-29665000D01*
X182122285Y-29665000D01*
X181381372Y-29812377D01*
X180683446Y-30101467D01*
X180055330Y-30521161D01*
X179521161Y-31055330D01*
X179101467Y-31683446D01*
X178812377Y-32381372D01*
X178665000Y-33122285D01*
X150335000Y-33122285D01*
X150187623Y-32381372D01*
X149898533Y-31683446D01*
X149478839Y-31055330D01*
X148944670Y-30521161D01*
X148316554Y-30101467D01*
X147618628Y-29812377D01*
X146877715Y-29665000D01*
X146122285Y-29665000D01*
X145381372Y-29812377D01*
X144683446Y-30101467D01*
X144055330Y-30521161D01*
X143521161Y-31055330D01*
X143101467Y-31683446D01*
X142812377Y-32381372D01*
X142665000Y-33122285D01*
X60127000Y-33122285D01*
X60127000Y-30000000D01*
X60124560Y-29975224D01*
X60117333Y-29951399D01*
X60105597Y-29929443D01*
X60089803Y-29910197D01*
X60070557Y-29894403D01*
X60048601Y-29882667D01*
X60024776Y-29875440D01*
X60000000Y-29873000D01*
X33000000Y-29873000D01*
X32975224Y-29875440D01*
X32951399Y-29882667D01*
X32929443Y-29894403D01*
X32910197Y-29910197D01*
X32894403Y-29929443D01*
X32882667Y-29951399D01*
X32875440Y-29975224D01*
X32873000Y-30000000D01*
X29071591Y-30000000D01*
X28618628Y-29812377D01*
X27877715Y-29665000D01*
X27122285Y-29665000D01*
X26381372Y-29812377D01*
X25683446Y-30101467D01*
X25055330Y-30521161D01*
X24521161Y-31055330D01*
X24101467Y-31683446D01*
X23812377Y-32381372D01*
X23665000Y-33122285D01*
X22127000Y-33122285D01*
X22127000Y-28127000D01*
X187873000Y-28127000D01*
X187873000Y-223873000D01*
X187873000Y-223873000D01*
G37*
X187873000Y-223873000D02*
X22127000Y-223873000D01*
X22127000Y-218122285D01*
X23665000Y-218122285D01*
X23665000Y-218877715D01*
X23812377Y-219618628D01*
X24101467Y-220316554D01*
X24521161Y-220944670D01*
X25055330Y-221478839D01*
X25683446Y-221898533D01*
X26381372Y-222187623D01*
X27122285Y-222335000D01*
X27877715Y-222335000D01*
X28618628Y-222187623D01*
X29316554Y-221898533D01*
X29944670Y-221478839D01*
X30478839Y-220944670D01*
X30898533Y-220316554D01*
X31187623Y-219618628D01*
X31335000Y-218877715D01*
X31335000Y-218122285D01*
X142665000Y-218122285D01*
X142665000Y-218877715D01*
X142812377Y-219618628D01*
X143101467Y-220316554D01*
X143521161Y-220944670D01*
X144055330Y-221478839D01*
X144683446Y-221898533D01*
X145381372Y-222187623D01*
X146122285Y-222335000D01*
X146877715Y-222335000D01*
X147618628Y-222187623D01*
X148316554Y-221898533D01*
X148944670Y-221478839D01*
X149478839Y-220944670D01*
X149898533Y-220316554D01*
X150187623Y-219618628D01*
X150335000Y-218877715D01*
X150335000Y-218122285D01*
X178665000Y-218122285D01*
X178665000Y-218877715D01*
X178812377Y-219618628D01*
X179101467Y-220316554D01*
X179521161Y-220944670D01*
X180055330Y-221478839D01*
X180683446Y-221898533D01*
X181381372Y-222187623D01*
X182122285Y-222335000D01*
X182877715Y-222335000D01*
X183618628Y-222187623D01*
X184316554Y-221898533D01*
X184944670Y-221478839D01*
X185478839Y-220944670D01*
X185898533Y-220316554D01*
X186187623Y-219618628D01*
X186335000Y-218877715D01*
X186335000Y-218122285D01*
X186187623Y-217381372D01*
X185898533Y-216683446D01*
X185478839Y-216055330D01*
X184944670Y-215521161D01*
X184316554Y-215101467D01*
X183618628Y-214812377D01*
X182877715Y-214665000D01*
X182122285Y-214665000D01*
X181381372Y-214812377D01*
X180683446Y-215101467D01*
X180055330Y-215521161D01*
X179521161Y-216055330D01*
X179101467Y-216683446D01*
X178812377Y-217381372D01*
X178665000Y-218122285D01*
X150335000Y-218122285D01*
X150187623Y-217381372D01*
X149898533Y-216683446D01*
X149478839Y-216055330D01*
X148944670Y-215521161D01*
X148316554Y-215101467D01*
X147618628Y-214812377D01*
X146877715Y-214665000D01*
X146122285Y-214665000D01*
X145381372Y-214812377D01*
X144683446Y-215101467D01*
X144055330Y-215521161D01*
X143521161Y-216055330D01*
X143101467Y-216683446D01*
X142812377Y-217381372D01*
X142665000Y-218122285D01*
X31335000Y-218122285D01*
X31187623Y-217381372D01*
X30898533Y-216683446D01*
X30478839Y-216055330D01*
X29944670Y-215521161D01*
X29316554Y-215101467D01*
X28618628Y-214812377D01*
X27877715Y-214665000D01*
X27122285Y-214665000D01*
X26381372Y-214812377D01*
X25683446Y-215101467D01*
X25055330Y-215521161D01*
X24521161Y-216055330D01*
X24101467Y-216683446D01*
X23812377Y-217381372D01*
X23665000Y-218122285D01*
X22127000Y-218122285D01*
X22127000Y-202000000D01*
X58105880Y-202000000D01*
X58142275Y-202369524D01*
X58250061Y-202724848D01*
X58425097Y-203052317D01*
X58660655Y-203339345D01*
X58947683Y-203574903D01*
X59275152Y-203749939D01*
X59630476Y-203857725D01*
X59907403Y-203885000D01*
X64907403Y-203885000D01*
X65000000Y-203894120D01*
X65092597Y-203885000D01*
X67352597Y-203885000D01*
X67629524Y-203857725D01*
X67984848Y-203749939D01*
X68312317Y-203574903D01*
X68599345Y-203339345D01*
X68834903Y-203052317D01*
X69009939Y-202724848D01*
X69117725Y-202369524D01*
X69154120Y-202000000D01*
X69117725Y-201630476D01*
X69009939Y-201275152D01*
X68834903Y-200947683D01*
X68599345Y-200660655D01*
X68312317Y-200425097D01*
X67984848Y-200250061D01*
X67629524Y-200142275D01*
X67352597Y-200115000D01*
X66885000Y-200115000D01*
X66885000Y-196907403D01*
X66857725Y-196630476D01*
X66749939Y-196275152D01*
X66574903Y-195947683D01*
X66339345Y-195660655D01*
X66052317Y-195425097D01*
X65724847Y-195250061D01*
X65369523Y-195142275D01*
X65000000Y-195105880D01*
X64630476Y-195142275D01*
X64275152Y-195250061D01*
X63947683Y-195425097D01*
X63660655Y-195660655D01*
X63425097Y-195947683D01*
X63250061Y-196275153D01*
X63142275Y-196630477D01*
X63115000Y-196907404D01*
X63115001Y-200115000D01*
X59907403Y-200115000D01*
X59630476Y-200142275D01*
X59275152Y-200250061D01*
X58947683Y-200425097D01*
X58660655Y-200660655D01*
X58425097Y-200947683D01*
X58250061Y-201275152D01*
X58142275Y-201630476D01*
X58105880Y-202000000D01*
X22127000Y-202000000D01*
X22127000Y-196814344D01*
X43115000Y-196814344D01*
X43115000Y-197185656D01*
X43187439Y-197549834D01*
X43329534Y-197892882D01*
X43535825Y-198201618D01*
X43798382Y-198464175D01*
X44107118Y-198670466D01*
X44450166Y-198812561D01*
X44814344Y-198885000D01*
X45185656Y-198885000D01*
X45549834Y-198812561D01*
X45892882Y-198670466D01*
X46201618Y-198464175D01*
X46464175Y-198201618D01*
X46670466Y-197892882D01*
X46812561Y-197549834D01*
X46885000Y-197185656D01*
X46885000Y-196814344D01*
X46864112Y-196709333D01*
X62469994Y-180635000D01*
X63115000Y-180635000D01*
X63115000Y-181852596D01*
X63142275Y-182129523D01*
X63250061Y-182484847D01*
X63425097Y-182812317D01*
X63660655Y-183099345D01*
X63947683Y-183334903D01*
X64275152Y-183509939D01*
X64630476Y-183617725D01*
X65000000Y-183654120D01*
X65369523Y-183617725D01*
X65724847Y-183509939D01*
X66052317Y-183334903D01*
X66339345Y-183099345D01*
X66574903Y-182812317D01*
X66749939Y-182484848D01*
X66857725Y-182129524D01*
X66885000Y-181852597D01*
X66885000Y-180635000D01*
X71365001Y-180635000D01*
X71365000Y-181205714D01*
X71272629Y-181343957D01*
X71168225Y-181596011D01*
X71115000Y-181863589D01*
X71115000Y-182136411D01*
X71168225Y-182403989D01*
X71272629Y-182656043D01*
X71424201Y-182882886D01*
X71617114Y-183075799D01*
X71843957Y-183227371D01*
X71898588Y-183250000D01*
X71843957Y-183272629D01*
X71617114Y-183424201D01*
X71424201Y-183617114D01*
X71272629Y-183843957D01*
X71168225Y-184096011D01*
X71115000Y-184363589D01*
X71115000Y-184636411D01*
X71168225Y-184903989D01*
X71272629Y-185156043D01*
X71424201Y-185382886D01*
X71617114Y-185575799D01*
X71843957Y-185727371D01*
X71898588Y-185750000D01*
X71843957Y-185772629D01*
X71617114Y-185924201D01*
X71424201Y-186117114D01*
X71272629Y-186343957D01*
X71168225Y-186596011D01*
X71115000Y-186863589D01*
X71115000Y-187136411D01*
X71168225Y-187403989D01*
X71272629Y-187656043D01*
X71424201Y-187882886D01*
X71617114Y-188075799D01*
X71843957Y-188227371D01*
X72096011Y-188331775D01*
X72259081Y-188364212D01*
X81658013Y-197763146D01*
X81693551Y-197806449D01*
X81736854Y-197841987D01*
X81736856Y-197841989D01*
X81866377Y-197948284D01*
X82063553Y-198053676D01*
X82277501Y-198118577D01*
X82500000Y-198140491D01*
X82555752Y-198135000D01*
X95992953Y-198135000D01*
X96160655Y-198339345D01*
X96447683Y-198574903D01*
X96775152Y-198749939D01*
X97130476Y-198857725D01*
X97407403Y-198885000D01*
X107592597Y-198885000D01*
X107869524Y-198857725D01*
X108224848Y-198749939D01*
X108552317Y-198574903D01*
X108839345Y-198339345D01*
X109074903Y-198052317D01*
X109249939Y-197724848D01*
X109357725Y-197369524D01*
X109394120Y-197000000D01*
X109357725Y-196630476D01*
X109249939Y-196275152D01*
X109074903Y-195947683D01*
X108839345Y-195660655D01*
X108552317Y-195425097D01*
X108224848Y-195250061D01*
X107869524Y-195142275D01*
X107592597Y-195115000D01*
X97407403Y-195115000D01*
X97130476Y-195142275D01*
X96775152Y-195250061D01*
X96447683Y-195425097D01*
X96160655Y-195660655D01*
X95992953Y-195865000D01*
X82970133Y-195865000D01*
X73864212Y-186759081D01*
X73831775Y-186596011D01*
X73727371Y-186343957D01*
X73575799Y-186117114D01*
X73382886Y-185924201D01*
X73156043Y-185772629D01*
X73101412Y-185750000D01*
X73156043Y-185727371D01*
X73294286Y-185635000D01*
X75745000Y-185635000D01*
X75745001Y-187824239D01*
X75739509Y-187880000D01*
X75761423Y-188102498D01*
X75826324Y-188316446D01*
X75848830Y-188358552D01*
X75931717Y-188513623D01*
X76073552Y-188686449D01*
X76116860Y-188721991D01*
X77401856Y-190006988D01*
X77401861Y-190006992D01*
X79688009Y-192293141D01*
X79723551Y-192336449D01*
X79896377Y-192478284D01*
X80058399Y-192564886D01*
X80093553Y-192583676D01*
X80307501Y-192648577D01*
X80529999Y-192670491D01*
X80585751Y-192665000D01*
X82682761Y-192665000D01*
X82817748Y-192799987D01*
X83085537Y-192978918D01*
X83383088Y-193102168D01*
X83698967Y-193165000D01*
X84021033Y-193165000D01*
X84336912Y-193102168D01*
X84634463Y-192978918D01*
X84902252Y-192799987D01*
X85129987Y-192572252D01*
X85308918Y-192304463D01*
X85432168Y-192006912D01*
X85495000Y-191691033D01*
X85495000Y-191368967D01*
X85432168Y-191053088D01*
X85308918Y-190755537D01*
X85129987Y-190487748D01*
X85057239Y-190415000D01*
X108249208Y-190415000D01*
X116101630Y-198267423D01*
X116160655Y-198339345D01*
X116232577Y-198398370D01*
X116232579Y-198398372D01*
X116298979Y-198452864D01*
X116447683Y-198574903D01*
X116775152Y-198749939D01*
X116981590Y-198812561D01*
X117130475Y-198857725D01*
X117162662Y-198860895D01*
X117407403Y-198885000D01*
X117407411Y-198885000D01*
X117500000Y-198894119D01*
X117592589Y-198885000D01*
X129219208Y-198885000D01*
X132601630Y-202267423D01*
X132660655Y-202339345D01*
X132732577Y-202398370D01*
X132732579Y-202398372D01*
X132838110Y-202484979D01*
X132947683Y-202574903D01*
X133275152Y-202749939D01*
X133630476Y-202857725D01*
X133907403Y-202885000D01*
X133907412Y-202885000D01*
X133999999Y-202894119D01*
X134092586Y-202885000D01*
X156489084Y-202885000D01*
X156564886Y-202998446D01*
X157001554Y-203435114D01*
X157515021Y-203778201D01*
X157724572Y-203865000D01*
X119385000Y-203865000D01*
X119385000Y-201907403D01*
X119357725Y-201630476D01*
X119249939Y-201275152D01*
X119074903Y-200947683D01*
X118839345Y-200660655D01*
X118552317Y-200425097D01*
X118224847Y-200250061D01*
X117869523Y-200142275D01*
X117500000Y-200105880D01*
X117130476Y-200142275D01*
X116775152Y-200250061D01*
X116447683Y-200425097D01*
X116160655Y-200660655D01*
X115925097Y-200947683D01*
X115750061Y-201275153D01*
X115642275Y-201630477D01*
X115615000Y-201907404D01*
X115615001Y-203865000D01*
X86298559Y-203865000D01*
X85635000Y-203201442D01*
X85635000Y-201845998D01*
X85589638Y-201385433D01*
X85410376Y-200794483D01*
X85119269Y-200249860D01*
X84727505Y-199772495D01*
X84250139Y-199380731D01*
X83705516Y-199089624D01*
X83114566Y-198910362D01*
X82500000Y-198849832D01*
X81885433Y-198910362D01*
X81294483Y-199089624D01*
X80749860Y-199380731D01*
X80272495Y-199772495D01*
X79880731Y-200249861D01*
X79589624Y-200794484D01*
X79410362Y-201385434D01*
X79365000Y-201845999D01*
X79365000Y-204346005D01*
X79349833Y-204500000D01*
X79365000Y-204653995D01*
X79365000Y-204654002D01*
X79410362Y-205114567D01*
X79589624Y-205705517D01*
X79880732Y-206250140D01*
X80272496Y-206727505D01*
X80392120Y-206825678D01*
X82674321Y-209107880D01*
X82772495Y-209227505D01*
X83249860Y-209619269D01*
X83794483Y-209910376D01*
X84385433Y-210089638D01*
X84845998Y-210135000D01*
X84846005Y-210135000D01*
X85000000Y-210150167D01*
X85153995Y-210135000D01*
X177346005Y-210135000D01*
X177500000Y-210150167D01*
X177653995Y-210135000D01*
X177654002Y-210135000D01*
X178114567Y-210089638D01*
X178705517Y-209910376D01*
X179250140Y-209619269D01*
X179727505Y-209227505D01*
X179825683Y-209107876D01*
X186107887Y-202825673D01*
X186227505Y-202727505D01*
X186352743Y-202574903D01*
X186426541Y-202484979D01*
X186619269Y-202250140D01*
X186910376Y-201705517D01*
X187063722Y-201200000D01*
X187089638Y-201114568D01*
X187100922Y-200999999D01*
X187135000Y-200654002D01*
X187135000Y-200653996D01*
X187150167Y-200500001D01*
X187135000Y-200346006D01*
X187135000Y-139196484D01*
X187149017Y-139085108D01*
X187135000Y-138888443D01*
X187135000Y-138845998D01*
X187124053Y-138734851D01*
X187105114Y-138469130D01*
X187093824Y-138427938D01*
X187089638Y-138385433D01*
X187012298Y-138130478D01*
X186941882Y-137873552D01*
X186922775Y-137835359D01*
X186910376Y-137794483D01*
X186784770Y-137559491D01*
X186665595Y-137321264D01*
X186639406Y-137287534D01*
X186619269Y-137249860D01*
X186450246Y-137043905D01*
X186381775Y-136955718D01*
X186352592Y-136924914D01*
X186227505Y-136772495D01*
X186140725Y-136701276D01*
X177352600Y-127424923D01*
X177227505Y-127272495D01*
X177021531Y-127103456D01*
X176820265Y-126928972D01*
X176783163Y-126907832D01*
X176750140Y-126880731D01*
X176515145Y-126755124D01*
X176283707Y-126623257D01*
X176243190Y-126609760D01*
X176205517Y-126589624D01*
X175950565Y-126512285D01*
X175697815Y-126428093D01*
X175655437Y-126422760D01*
X175614567Y-126410362D01*
X175349424Y-126384247D01*
X175085108Y-126350983D01*
X174888444Y-126365000D01*
X98135000Y-126365000D01*
X98135000Y-126154001D01*
X98150168Y-126000000D01*
X98135000Y-125845998D01*
X98135000Y-125635000D01*
X174888444Y-125635000D01*
X175085108Y-125649017D01*
X175297520Y-125622285D01*
X178665000Y-125622285D01*
X178665000Y-126377715D01*
X178812377Y-127118628D01*
X179101467Y-127816554D01*
X179521161Y-128444670D01*
X180055330Y-128978839D01*
X180683446Y-129398533D01*
X181381372Y-129687623D01*
X182122285Y-129835000D01*
X182877715Y-129835000D01*
X183618628Y-129687623D01*
X184316554Y-129398533D01*
X184944670Y-128978839D01*
X185478839Y-128444670D01*
X185898533Y-127816554D01*
X186187623Y-127118628D01*
X186335000Y-126377715D01*
X186335000Y-125622285D01*
X186187623Y-124881372D01*
X185898533Y-124183446D01*
X185478839Y-123555330D01*
X184944670Y-123021161D01*
X184316554Y-122601467D01*
X183618628Y-122312377D01*
X182877715Y-122165000D01*
X182122285Y-122165000D01*
X181381372Y-122312377D01*
X180683446Y-122601467D01*
X180055330Y-123021161D01*
X179521161Y-123555330D01*
X179101467Y-124183446D01*
X178812377Y-124881372D01*
X178665000Y-125622285D01*
X175297520Y-125622285D01*
X175349424Y-125615753D01*
X175614567Y-125589638D01*
X175655437Y-125577240D01*
X175697815Y-125571907D01*
X175950565Y-125487715D01*
X176205517Y-125410376D01*
X176243190Y-125390240D01*
X176283707Y-125376743D01*
X176515145Y-125244876D01*
X176750140Y-125119269D01*
X176783163Y-125092168D01*
X176820265Y-125071028D01*
X177021531Y-124896544D01*
X177227505Y-124727505D01*
X177352600Y-124575077D01*
X186140726Y-115298723D01*
X186227505Y-115227505D01*
X186352592Y-115075086D01*
X186381775Y-115044282D01*
X186450246Y-114956095D01*
X186619269Y-114750140D01*
X186639406Y-114712466D01*
X186665595Y-114678736D01*
X186784770Y-114440509D01*
X186910376Y-114205517D01*
X186922775Y-114164641D01*
X186941882Y-114126448D01*
X187012298Y-113869522D01*
X187089638Y-113614567D01*
X187093824Y-113572062D01*
X187105114Y-113530870D01*
X187124053Y-113265149D01*
X187135000Y-113154002D01*
X187135000Y-113111557D01*
X187149017Y-112914892D01*
X187135000Y-112803516D01*
X187135000Y-51653994D01*
X187150167Y-51499999D01*
X187135000Y-51346004D01*
X187135000Y-51345998D01*
X187089638Y-50885433D01*
X187084714Y-50869199D01*
X186999910Y-50589638D01*
X186910376Y-50294483D01*
X186619269Y-49749860D01*
X186352743Y-49425098D01*
X186325675Y-49392115D01*
X186325674Y-49392114D01*
X186227505Y-49272495D01*
X186107886Y-49174326D01*
X179825683Y-42892124D01*
X179727505Y-42772495D01*
X179250140Y-42380731D01*
X178705517Y-42089624D01*
X178114567Y-41910362D01*
X177654002Y-41865000D01*
X177653995Y-41865000D01*
X177500000Y-41849833D01*
X177346005Y-41865000D01*
X85153995Y-41865000D01*
X85000000Y-41849833D01*
X84846005Y-41865000D01*
X84845998Y-41865000D01*
X84385433Y-41910362D01*
X83794483Y-42089624D01*
X83249860Y-42380731D01*
X82772495Y-42772495D01*
X82674321Y-42892120D01*
X80392120Y-45174322D01*
X80272496Y-45272495D01*
X79880732Y-45749860D01*
X79589624Y-46294483D01*
X79410362Y-46885433D01*
X79365000Y-47345998D01*
X79365000Y-47346005D01*
X79349833Y-47500000D01*
X79365000Y-47653995D01*
X79365000Y-50154001D01*
X79410362Y-50614566D01*
X79589624Y-51205516D01*
X79880731Y-51750139D01*
X80272495Y-52227505D01*
X80749860Y-52619269D01*
X81294483Y-52910376D01*
X81885433Y-53089638D01*
X82500000Y-53150168D01*
X83114566Y-53089638D01*
X83705516Y-52910376D01*
X84250139Y-52619269D01*
X84727505Y-52227505D01*
X85119269Y-51750140D01*
X85410376Y-51205517D01*
X85589638Y-50614567D01*
X85635000Y-50154002D01*
X85635000Y-48798558D01*
X86298559Y-48135000D01*
X115615001Y-48135000D01*
X115615000Y-50092596D01*
X115642275Y-50369523D01*
X115750061Y-50724847D01*
X115925097Y-51052317D01*
X116160655Y-51339345D01*
X116447683Y-51574903D01*
X116775152Y-51749939D01*
X117130476Y-51857725D01*
X117500000Y-51894120D01*
X117869523Y-51857725D01*
X118224847Y-51749939D01*
X118552317Y-51574903D01*
X118839345Y-51339345D01*
X119074903Y-51052317D01*
X119249939Y-50724848D01*
X119357725Y-50369524D01*
X119385000Y-50092597D01*
X119385000Y-48135000D01*
X169724572Y-48135000D01*
X169515021Y-48221799D01*
X169001554Y-48564886D01*
X168564886Y-49001554D01*
X168489084Y-49115000D01*
X134092586Y-49115000D01*
X133999999Y-49105881D01*
X133907412Y-49115000D01*
X133907403Y-49115000D01*
X133630476Y-49142275D01*
X133275152Y-49250061D01*
X132947683Y-49425097D01*
X132947681Y-49425098D01*
X132947682Y-49425098D01*
X132732579Y-49601628D01*
X132732577Y-49601630D01*
X132660655Y-49660655D01*
X132601630Y-49732577D01*
X129219208Y-53115000D01*
X117592589Y-53115000D01*
X117500000Y-53105881D01*
X117407411Y-53115000D01*
X117407403Y-53115000D01*
X117162662Y-53139105D01*
X117130475Y-53142275D01*
X117055561Y-53165000D01*
X116775152Y-53250061D01*
X116447683Y-53425097D01*
X116312761Y-53535825D01*
X116232579Y-53601628D01*
X116232577Y-53601630D01*
X116160655Y-53660655D01*
X116101630Y-53732577D01*
X108249208Y-61585000D01*
X86767403Y-61585000D01*
X86490476Y-61612275D01*
X86135152Y-61720061D01*
X85807683Y-61895097D01*
X85520655Y-62130655D01*
X85285097Y-62417683D01*
X85110061Y-62745152D01*
X85002275Y-63100476D01*
X84965880Y-63470000D01*
X85002275Y-63839524D01*
X85110061Y-64194848D01*
X85285097Y-64522317D01*
X85336540Y-64585000D01*
X83817403Y-64585000D01*
X83540476Y-64612275D01*
X83185152Y-64720061D01*
X82857683Y-64895097D01*
X82570655Y-65130655D01*
X82335097Y-65417683D01*
X82160061Y-65745152D01*
X82052275Y-66100476D01*
X82015880Y-66470000D01*
X82052275Y-66839524D01*
X82160061Y-67194848D01*
X82335097Y-67522317D01*
X82570655Y-67809345D01*
X82857683Y-68044903D01*
X83185152Y-68219939D01*
X83540476Y-68327725D01*
X83817403Y-68355000D01*
X97374073Y-68355000D01*
X97065249Y-68396449D01*
X96713943Y-68516688D01*
X96392845Y-68703153D01*
X96184096Y-68887153D01*
X90186820Y-75322769D01*
X90140656Y-75360655D01*
X90060521Y-75458299D01*
X90037840Y-75482638D01*
X90001813Y-75529834D01*
X89905097Y-75647683D01*
X89889310Y-75677219D01*
X89868998Y-75703828D01*
X89801934Y-75840688D01*
X89730061Y-75975152D01*
X89725395Y-75990533D01*
X89690498Y-76055820D01*
X89654188Y-76175518D01*
X89646932Y-76249193D01*
X89622275Y-76330476D01*
X89618993Y-76363802D01*
X89610409Y-76396162D01*
X89600823Y-76548277D01*
X89595000Y-76607403D01*
X89595000Y-76640689D01*
X89587057Y-76766738D01*
X89595000Y-76825920D01*
X89595000Y-77592596D01*
X89622275Y-77869523D01*
X89641928Y-77934310D01*
X89641928Y-78700000D01*
X89654188Y-78824482D01*
X89690498Y-78944180D01*
X89749463Y-79054494D01*
X89828815Y-79151185D01*
X89925506Y-79230537D01*
X90035820Y-79289502D01*
X90155518Y-79325812D01*
X90280000Y-79338072D01*
X91045689Y-79338072D01*
X91110476Y-79357725D01*
X91480000Y-79394120D01*
X91849523Y-79357725D01*
X91914310Y-79338072D01*
X92680000Y-79338072D01*
X92804482Y-79325812D01*
X92924180Y-79289502D01*
X93034494Y-79230537D01*
X93131185Y-79151185D01*
X93210537Y-79054494D01*
X93269502Y-78944180D01*
X93305812Y-78824482D01*
X93318072Y-78700000D01*
X93318072Y-77934311D01*
X93337725Y-77869524D01*
X93365000Y-77592597D01*
X93365000Y-77442156D01*
X98942161Y-71457363D01*
X99111003Y-71236173D01*
X99274392Y-70902741D01*
X99369591Y-70543839D01*
X99392944Y-70173262D01*
X99343551Y-69805249D01*
X99223312Y-69453943D01*
X99133510Y-69299303D01*
X115451638Y-85617431D01*
X115510663Y-85689353D01*
X115582585Y-85748378D01*
X115582587Y-85748380D01*
X115736057Y-85874329D01*
X115797691Y-85924911D01*
X116125160Y-86099947D01*
X116480484Y-86207733D01*
X116757411Y-86235008D01*
X116757420Y-86235008D01*
X116850007Y-86244127D01*
X116942594Y-86235008D01*
X141069216Y-86235008D01*
X157101626Y-102267418D01*
X157160655Y-102339345D01*
X157447683Y-102574903D01*
X157775152Y-102749939D01*
X158130476Y-102857725D01*
X158407403Y-102885000D01*
X158407412Y-102885000D01*
X158499999Y-102894119D01*
X158592586Y-102885000D01*
X168489084Y-102885000D01*
X168564886Y-102998446D01*
X169001554Y-103435114D01*
X169515021Y-103778201D01*
X170085554Y-104014524D01*
X170691229Y-104135000D01*
X171308771Y-104135000D01*
X171914446Y-104014524D01*
X172484979Y-103778201D01*
X172998446Y-103435114D01*
X173435114Y-102998446D01*
X173778201Y-102484979D01*
X174014524Y-101914446D01*
X174135000Y-101308771D01*
X174135000Y-100691229D01*
X174014524Y-100085554D01*
X173778201Y-99515021D01*
X173435114Y-99001554D01*
X172998446Y-98564886D01*
X172484979Y-98221799D01*
X171914446Y-97985476D01*
X171308771Y-97865000D01*
X170691229Y-97865000D01*
X170085554Y-97985476D01*
X169515021Y-98221799D01*
X169001554Y-98564886D01*
X168564886Y-99001554D01*
X168489084Y-99115000D01*
X159280792Y-99115000D01*
X143248382Y-83082590D01*
X143189353Y-83010663D01*
X142902325Y-82775105D01*
X142574856Y-82600069D01*
X142219532Y-82492283D01*
X141942605Y-82465008D01*
X141942597Y-82465008D01*
X141850008Y-82455889D01*
X141757419Y-82465008D01*
X117630801Y-82465008D01*
X107277859Y-72112066D01*
X107434622Y-72132991D01*
X107805182Y-72109372D01*
X108164015Y-72013915D01*
X108497330Y-71850286D01*
X108718398Y-71681285D01*
X112205000Y-68427476D01*
X112205001Y-73997401D01*
X112195881Y-74090000D01*
X112232275Y-74459524D01*
X112340062Y-74814848D01*
X112515098Y-75142317D01*
X112691628Y-75357420D01*
X112691631Y-75357423D01*
X112750656Y-75429345D01*
X112822577Y-75488369D01*
X116232579Y-78898372D01*
X116447682Y-79074902D01*
X116775151Y-79249938D01*
X117130475Y-79357724D01*
X117499999Y-79394119D01*
X117869523Y-79357724D01*
X118224848Y-79249938D01*
X118552316Y-79074902D01*
X118839344Y-78839344D01*
X119074902Y-78552316D01*
X119249938Y-78224848D01*
X119357724Y-77869523D01*
X119394119Y-77499999D01*
X119357724Y-77130475D01*
X119249938Y-76775151D01*
X119074902Y-76447682D01*
X118898372Y-76232579D01*
X116976944Y-74311151D01*
X117130477Y-74357725D01*
X117500000Y-74394120D01*
X117869524Y-74357725D01*
X118224848Y-74249939D01*
X118434136Y-74138072D01*
X118500000Y-74138072D01*
X118624482Y-74125812D01*
X118744180Y-74089502D01*
X118854494Y-74030537D01*
X118951185Y-73951185D01*
X119030537Y-73854494D01*
X119089502Y-73744180D01*
X119125812Y-73624482D01*
X119138072Y-73500000D01*
X119138072Y-73434136D01*
X119249939Y-73224848D01*
X119357725Y-72869524D01*
X119385000Y-72592597D01*
X119385000Y-72450792D01*
X128732579Y-81798372D01*
X128947682Y-81974902D01*
X129275151Y-82149938D01*
X129630475Y-82257725D01*
X129696739Y-82264251D01*
X130000000Y-82294120D01*
X130369524Y-82257725D01*
X130724849Y-82149938D01*
X131052317Y-81974903D01*
X131339345Y-81739345D01*
X131574903Y-81452317D01*
X131749938Y-81124849D01*
X131857725Y-80769524D01*
X131894120Y-80400000D01*
X131857725Y-80030477D01*
X131857725Y-80030475D01*
X131749938Y-79675151D01*
X131574902Y-79347682D01*
X131398372Y-79132579D01*
X120998374Y-68732582D01*
X120939345Y-68660655D01*
X120652317Y-68425097D01*
X120324848Y-68250061D01*
X119969524Y-68142275D01*
X119692597Y-68115000D01*
X119692589Y-68115000D01*
X119600000Y-68105881D01*
X119507411Y-68115000D01*
X119385000Y-68115000D01*
X119385000Y-65147403D01*
X119357725Y-64870476D01*
X119249939Y-64515152D01*
X119074903Y-64187683D01*
X118839345Y-63900655D01*
X118552317Y-63665097D01*
X118224847Y-63490061D01*
X117869523Y-63382275D01*
X117500000Y-63345880D01*
X117499903Y-63345890D01*
X118620793Y-62225000D01*
X160879208Y-62225000D01*
X161865000Y-63210793D01*
X161865001Y-84845988D01*
X161849832Y-85000000D01*
X161865000Y-85154002D01*
X161865001Y-94691224D01*
X161865000Y-94691229D01*
X161865000Y-95308771D01*
X161895196Y-95460579D01*
X161910363Y-95614567D01*
X161955279Y-95762637D01*
X161985476Y-95914446D01*
X162044707Y-96057443D01*
X162089625Y-96205517D01*
X162162569Y-96341986D01*
X162221799Y-96484979D01*
X162307787Y-96613669D01*
X162380732Y-96750140D01*
X162478897Y-96869755D01*
X162564886Y-96998446D01*
X162674332Y-97107892D01*
X162772496Y-97227505D01*
X162892109Y-97325669D01*
X163001554Y-97435114D01*
X163130244Y-97521102D01*
X163249861Y-97619269D01*
X163386334Y-97692216D01*
X163515021Y-97778201D01*
X163658010Y-97837429D01*
X163794484Y-97910376D01*
X163942563Y-97955295D01*
X164085554Y-98014524D01*
X164237356Y-98044719D01*
X164385434Y-98089638D01*
X164539431Y-98104805D01*
X164691229Y-98135000D01*
X164845998Y-98135000D01*
X165000000Y-98150168D01*
X165154002Y-98135000D01*
X165308771Y-98135000D01*
X165460569Y-98104806D01*
X165614567Y-98089638D01*
X165762647Y-98044719D01*
X165914446Y-98014524D01*
X166057434Y-97955296D01*
X166205517Y-97910376D01*
X166341995Y-97837427D01*
X166484979Y-97778201D01*
X166613662Y-97692218D01*
X166750140Y-97619269D01*
X166869761Y-97521098D01*
X166998446Y-97435114D01*
X167107886Y-97325674D01*
X167227505Y-97227505D01*
X167325674Y-97107886D01*
X167435114Y-96998446D01*
X167521098Y-96869761D01*
X167619269Y-96750140D01*
X167692218Y-96613662D01*
X167778201Y-96484979D01*
X167837427Y-96341995D01*
X167910376Y-96205517D01*
X167955296Y-96057434D01*
X168014524Y-95914446D01*
X168044719Y-95762647D01*
X168089638Y-95614567D01*
X168104806Y-95460569D01*
X168135000Y-95308771D01*
X168135000Y-88135000D01*
X168701442Y-88135000D01*
X174365000Y-93798559D01*
X174365001Y-108787986D01*
X171113171Y-112365000D01*
X140772917Y-112365000D01*
X121467569Y-102229694D01*
X121205517Y-102089624D01*
X121046247Y-102041310D01*
X120892032Y-101978770D01*
X120751498Y-101951899D01*
X120614567Y-101910362D01*
X120448937Y-101894049D01*
X120285479Y-101862795D01*
X119988567Y-101865000D01*
X64845998Y-101865000D01*
X64385433Y-101910362D01*
X63794483Y-102089624D01*
X63249860Y-102380731D01*
X62772495Y-102772495D01*
X62380731Y-103249860D01*
X62089624Y-103794483D01*
X61910362Y-104385433D01*
X61849832Y-105000000D01*
X61910362Y-105614567D01*
X62089624Y-106205517D01*
X62380731Y-106750140D01*
X62772495Y-107227505D01*
X63249860Y-107619269D01*
X63794483Y-107910376D01*
X64385433Y-108089638D01*
X64845998Y-108135000D01*
X119227084Y-108135000D01*
X138532485Y-118270335D01*
X138794483Y-118410376D01*
X138953749Y-118458689D01*
X139107967Y-118521230D01*
X139248503Y-118548101D01*
X139385433Y-118589638D01*
X139551061Y-118605951D01*
X139714520Y-118637205D01*
X140011433Y-118635000D01*
X172420707Y-118635000D01*
X172649838Y-118646602D01*
X172881521Y-118612591D01*
X173114567Y-118589638D01*
X173186480Y-118567823D01*
X173260830Y-118556909D01*
X173481423Y-118478354D01*
X173705517Y-118410376D01*
X173771794Y-118374950D01*
X173842585Y-118349741D01*
X174043610Y-118229662D01*
X174250140Y-118119269D01*
X174308235Y-118071591D01*
X174372744Y-118033058D01*
X174546478Y-117876070D01*
X174727505Y-117727505D01*
X174873061Y-117550145D01*
X179665755Y-112278182D01*
X179727505Y-112227505D01*
X179873057Y-112050150D01*
X179923304Y-111994878D01*
X179970706Y-111931164D01*
X180119269Y-111750140D01*
X180154696Y-111683860D01*
X180199549Y-111623573D01*
X180299983Y-111412048D01*
X180410376Y-111205517D01*
X180432190Y-111133604D01*
X180464422Y-111065721D01*
X180521663Y-110838651D01*
X180589638Y-110614567D01*
X180597004Y-110539782D01*
X180615373Y-110466913D01*
X180627214Y-110233054D01*
X180635000Y-110154002D01*
X180635000Y-110079282D01*
X180646601Y-109850163D01*
X180635000Y-109771136D01*
X180635000Y-92653995D01*
X180650167Y-92500000D01*
X180635000Y-92346005D01*
X180635000Y-92345998D01*
X180589638Y-91885433D01*
X180583440Y-91865000D01*
X180410376Y-91294482D01*
X180295567Y-91079691D01*
X180119269Y-90749860D01*
X179727505Y-90272495D01*
X179607882Y-90174323D01*
X172325683Y-82892125D01*
X172227505Y-82772495D01*
X171750140Y-82380731D01*
X171205517Y-82089624D01*
X170614567Y-81910362D01*
X170154002Y-81865000D01*
X170153995Y-81865000D01*
X170000000Y-81849833D01*
X169846005Y-81865000D01*
X168135000Y-81865000D01*
X168135000Y-56691229D01*
X168104806Y-56539431D01*
X168089638Y-56385433D01*
X168044719Y-56237353D01*
X168014524Y-56085554D01*
X167955296Y-55942566D01*
X167910376Y-55794483D01*
X167837427Y-55658005D01*
X167778201Y-55515021D01*
X167692218Y-55386338D01*
X167619269Y-55249860D01*
X167521098Y-55130239D01*
X167435114Y-55001554D01*
X167325674Y-54892114D01*
X167227505Y-54772495D01*
X167107887Y-54674327D01*
X166998446Y-54564886D01*
X166869757Y-54478899D01*
X166750139Y-54380731D01*
X166613666Y-54307784D01*
X166484979Y-54221799D01*
X166341990Y-54162571D01*
X166205516Y-54089624D01*
X166057437Y-54044705D01*
X165914446Y-53985476D01*
X165762644Y-53955281D01*
X165614566Y-53910362D01*
X165460569Y-53895195D01*
X165308771Y-53865000D01*
X165154002Y-53865000D01*
X165000000Y-53849832D01*
X164845998Y-53865000D01*
X164691229Y-53865000D01*
X164539431Y-53895194D01*
X164385433Y-53910362D01*
X164237353Y-53955281D01*
X164085554Y-53985476D01*
X163942566Y-54044704D01*
X163794483Y-54089624D01*
X163658005Y-54162573D01*
X163515021Y-54221799D01*
X163386338Y-54307782D01*
X163249860Y-54380731D01*
X163130239Y-54478902D01*
X163001554Y-54564886D01*
X162892114Y-54674326D01*
X162772495Y-54772495D01*
X162674327Y-54892113D01*
X162564886Y-55001554D01*
X162478899Y-55130243D01*
X162380731Y-55249861D01*
X162307784Y-55386334D01*
X162221799Y-55515021D01*
X162162571Y-55658010D01*
X162089624Y-55794484D01*
X162044705Y-55942563D01*
X161985476Y-56085554D01*
X161955281Y-56237356D01*
X161910362Y-56385434D01*
X161895195Y-56539430D01*
X161865000Y-56691229D01*
X161865000Y-58466071D01*
X161752597Y-58455000D01*
X161752589Y-58455000D01*
X161660000Y-58445881D01*
X161567411Y-58455000D01*
X117932589Y-58455000D01*
X117840000Y-58445881D01*
X117747411Y-58455000D01*
X117747403Y-58455000D01*
X117502662Y-58479105D01*
X117470475Y-58482275D01*
X117362689Y-58514972D01*
X117115152Y-58590061D01*
X116787683Y-58765097D01*
X116638979Y-58887136D01*
X116572579Y-58941628D01*
X116572577Y-58941630D01*
X116500655Y-59000655D01*
X116441630Y-59072577D01*
X112822582Y-62691626D01*
X112750655Y-62750655D01*
X112712338Y-62797344D01*
X106146208Y-68925069D01*
X105962358Y-69133951D01*
X105776124Y-69455182D01*
X105656137Y-69806575D01*
X105607009Y-70174622D01*
X105625158Y-70459366D01*
X100520792Y-65355000D01*
X108937411Y-65355000D01*
X109030000Y-65364119D01*
X109122589Y-65355000D01*
X109122597Y-65355000D01*
X109399524Y-65327725D01*
X109754848Y-65219939D01*
X110082317Y-65044903D01*
X110369345Y-64809345D01*
X110428374Y-64737418D01*
X118280793Y-56885000D01*
X129907411Y-56885000D01*
X130000000Y-56894119D01*
X130092589Y-56885000D01*
X130092597Y-56885000D01*
X130369524Y-56857725D01*
X130724848Y-56749939D01*
X131052317Y-56574903D01*
X131339345Y-56339345D01*
X131398374Y-56267418D01*
X134780793Y-52885000D01*
X168489084Y-52885000D01*
X168564886Y-52998446D01*
X169001554Y-53435114D01*
X169515021Y-53778201D01*
X170085554Y-54014524D01*
X170691229Y-54135000D01*
X171308771Y-54135000D01*
X171914446Y-54014524D01*
X172484979Y-53778201D01*
X172998446Y-53435114D01*
X173435114Y-52998446D01*
X173778201Y-52484979D01*
X174014524Y-51914446D01*
X174135000Y-51308771D01*
X174135000Y-50691229D01*
X174014524Y-50085554D01*
X173778201Y-49515021D01*
X173435114Y-49001554D01*
X172998446Y-48564886D01*
X172484979Y-48221799D01*
X172275428Y-48135000D01*
X176201442Y-48135000D01*
X180865001Y-52798561D01*
X180865000Y-111750789D01*
X173651538Y-119365000D01*
X118885000Y-119365000D01*
X118885000Y-115407403D01*
X118857725Y-115130476D01*
X118749939Y-114775152D01*
X118574903Y-114447683D01*
X118339345Y-114160655D01*
X118052317Y-113925097D01*
X117724847Y-113750061D01*
X117369523Y-113642275D01*
X117000000Y-113605880D01*
X116630476Y-113642275D01*
X116275152Y-113750061D01*
X115947683Y-113925097D01*
X115660655Y-114160655D01*
X115425097Y-114447683D01*
X115250061Y-114775153D01*
X115142275Y-115130477D01*
X115115000Y-115407404D01*
X115115001Y-119365000D01*
X105135000Y-119365000D01*
X105135000Y-118345998D01*
X105089638Y-117885433D01*
X104910376Y-117294483D01*
X104619269Y-116749860D01*
X104227505Y-116272495D01*
X103750139Y-115880731D01*
X103205516Y-115589624D01*
X102614566Y-115410362D01*
X102000000Y-115349832D01*
X101385433Y-115410362D01*
X100794483Y-115589624D01*
X100249860Y-115880731D01*
X99772495Y-116272495D01*
X99380731Y-116749861D01*
X99089624Y-117294484D01*
X98910362Y-117885434D01*
X98865000Y-118345999D01*
X98865000Y-119365000D01*
X95154002Y-119365000D01*
X95000000Y-119349832D01*
X94845998Y-119365000D01*
X94385433Y-119410362D01*
X93794483Y-119589624D01*
X93249860Y-119880731D01*
X92772495Y-120272495D01*
X92380731Y-120749860D01*
X92089624Y-121294483D01*
X91910362Y-121885433D01*
X91849832Y-122500000D01*
X91865000Y-122654002D01*
X91865000Y-122865000D01*
X82345998Y-122865000D01*
X81885433Y-122910362D01*
X81294483Y-123089624D01*
X80749860Y-123380731D01*
X80272495Y-123772495D01*
X79991408Y-124115000D01*
X79596263Y-124115000D01*
X79539003Y-124091282D01*
X79155505Y-124015000D01*
X78764495Y-124015000D01*
X78380997Y-124091282D01*
X78019750Y-124240915D01*
X77694636Y-124458149D01*
X77418149Y-124734636D01*
X77200915Y-125059750D01*
X77051282Y-125420997D01*
X76975000Y-125804495D01*
X76975000Y-126195505D01*
X77051282Y-126579003D01*
X77200915Y-126940250D01*
X77418149Y-127265364D01*
X77694636Y-127541851D01*
X78019750Y-127759085D01*
X78380997Y-127908718D01*
X78764495Y-127985000D01*
X79155505Y-127985000D01*
X79539003Y-127908718D01*
X79596263Y-127885000D01*
X79991408Y-127885000D01*
X80272495Y-128227505D01*
X80749860Y-128619269D01*
X81294483Y-128910376D01*
X81885433Y-129089638D01*
X82345998Y-129135000D01*
X85615000Y-129135000D01*
X85615000Y-130092596D01*
X85642275Y-130369523D01*
X85750061Y-130724847D01*
X85925097Y-131052317D01*
X86160655Y-131339345D01*
X86447683Y-131574903D01*
X86775152Y-131749939D01*
X87130476Y-131857725D01*
X87500000Y-131894120D01*
X87869523Y-131857725D01*
X88224847Y-131749939D01*
X88552317Y-131574903D01*
X88839345Y-131339345D01*
X89074903Y-131052317D01*
X89249939Y-130724848D01*
X89357725Y-130369524D01*
X89385000Y-130092597D01*
X89385000Y-129135000D01*
X91865000Y-129135000D01*
X91865000Y-129345998D01*
X91849832Y-129500000D01*
X91910362Y-130114567D01*
X92089624Y-130705517D01*
X92380731Y-131250140D01*
X92524513Y-131425338D01*
X92772495Y-131727505D01*
X93249860Y-132119269D01*
X93794483Y-132410376D01*
X94385433Y-132589638D01*
X95000000Y-132650168D01*
X95154002Y-132635000D01*
X98865000Y-132635000D01*
X98865000Y-133654001D01*
X98910362Y-134114566D01*
X99089624Y-134705516D01*
X99380731Y-135250139D01*
X99772495Y-135727505D01*
X100249860Y-136119269D01*
X100794483Y-136410376D01*
X101385433Y-136589638D01*
X102000000Y-136650168D01*
X102614566Y-136589638D01*
X103205516Y-136410376D01*
X103750139Y-136119269D01*
X104227505Y-135727505D01*
X104619269Y-135250140D01*
X104910376Y-134705517D01*
X105089638Y-134114567D01*
X105135000Y-133654002D01*
X105135000Y-132635000D01*
X115115001Y-132635000D01*
X115115000Y-136592596D01*
X115142275Y-136869523D01*
X115250061Y-137224847D01*
X115425097Y-137552317D01*
X115660655Y-137839345D01*
X115947683Y-138074903D01*
X116275152Y-138249939D01*
X116630476Y-138357725D01*
X117000000Y-138394120D01*
X117369523Y-138357725D01*
X117724847Y-138249939D01*
X118052317Y-138074903D01*
X118339345Y-137839345D01*
X118574903Y-137552317D01*
X118749939Y-137224848D01*
X118857725Y-136869524D01*
X118885000Y-136592597D01*
X118885000Y-132635000D01*
X173651538Y-132635000D01*
X180865001Y-140249212D01*
X180865000Y-199201440D01*
X176201442Y-203865000D01*
X160275428Y-203865000D01*
X160484979Y-203778201D01*
X160998446Y-203435114D01*
X161435114Y-202998446D01*
X161778201Y-202484979D01*
X162014524Y-201914446D01*
X162135000Y-201308771D01*
X162135000Y-200691229D01*
X162014524Y-200085554D01*
X161778201Y-199515021D01*
X161435114Y-199001554D01*
X160998446Y-198564886D01*
X160484979Y-198221799D01*
X159914446Y-197985476D01*
X159308771Y-197865000D01*
X158691229Y-197865000D01*
X158085554Y-197985476D01*
X157515021Y-198221799D01*
X157001554Y-198564886D01*
X156564886Y-199001554D01*
X156489084Y-199115000D01*
X134780793Y-199115000D01*
X131398374Y-195732582D01*
X131339345Y-195660655D01*
X131052317Y-195425097D01*
X130724848Y-195250061D01*
X130369524Y-195142275D01*
X130092597Y-195115000D01*
X130092589Y-195115000D01*
X130000000Y-195105881D01*
X129907411Y-195115000D01*
X118280793Y-195115000D01*
X110428374Y-187262582D01*
X110369345Y-187190655D01*
X110082317Y-186955097D01*
X109754848Y-186780061D01*
X109399524Y-186672275D01*
X109122597Y-186645000D01*
X109122589Y-186645000D01*
X109030000Y-186635881D01*
X108937411Y-186645000D01*
X100520792Y-186645000D01*
X105625158Y-181540634D01*
X105607009Y-181825378D01*
X105656137Y-182193425D01*
X105776124Y-182544818D01*
X105962358Y-182866049D01*
X106146208Y-183074931D01*
X112712338Y-189202656D01*
X112750655Y-189249345D01*
X112822582Y-189308374D01*
X116441630Y-192927423D01*
X116500655Y-192999345D01*
X116572577Y-193058370D01*
X116572579Y-193058372D01*
X116625945Y-193102168D01*
X116787683Y-193234903D01*
X117115152Y-193409939D01*
X117362689Y-193485028D01*
X117470475Y-193517725D01*
X117502662Y-193520895D01*
X117747403Y-193545000D01*
X117747411Y-193545000D01*
X117840000Y-193554119D01*
X117932589Y-193545000D01*
X161567411Y-193545000D01*
X161660000Y-193554119D01*
X161752589Y-193545000D01*
X161752597Y-193545000D01*
X161865001Y-193533929D01*
X161865001Y-194691224D01*
X161865000Y-194691229D01*
X161865000Y-195308771D01*
X161895196Y-195460579D01*
X161910363Y-195614567D01*
X161955279Y-195762637D01*
X161985476Y-195914446D01*
X162044707Y-196057443D01*
X162089625Y-196205517D01*
X162162569Y-196341986D01*
X162221799Y-196484979D01*
X162307787Y-196613669D01*
X162380732Y-196750140D01*
X162478897Y-196869755D01*
X162564886Y-196998446D01*
X162674332Y-197107892D01*
X162772496Y-197227505D01*
X162892109Y-197325669D01*
X163001554Y-197435114D01*
X163130244Y-197521102D01*
X163249861Y-197619269D01*
X163386334Y-197692216D01*
X163515021Y-197778201D01*
X163658010Y-197837429D01*
X163794484Y-197910376D01*
X163942563Y-197955295D01*
X164085554Y-198014524D01*
X164237356Y-198044719D01*
X164385434Y-198089638D01*
X164539431Y-198104805D01*
X164691229Y-198135000D01*
X164845998Y-198135000D01*
X165000000Y-198150168D01*
X165154002Y-198135000D01*
X165308771Y-198135000D01*
X165460569Y-198104806D01*
X165614567Y-198089638D01*
X165762647Y-198044719D01*
X165914446Y-198014524D01*
X166057434Y-197955296D01*
X166205517Y-197910376D01*
X166341995Y-197837427D01*
X166484979Y-197778201D01*
X166613662Y-197692218D01*
X166750140Y-197619269D01*
X166869761Y-197521098D01*
X166998446Y-197435114D01*
X167107886Y-197325674D01*
X167227505Y-197227505D01*
X167325674Y-197107886D01*
X167435114Y-196998446D01*
X167521098Y-196869761D01*
X167619269Y-196750140D01*
X167692218Y-196613662D01*
X167778201Y-196484979D01*
X167837427Y-196341995D01*
X167910376Y-196205517D01*
X167955296Y-196057434D01*
X168014524Y-195914446D01*
X168044719Y-195762647D01*
X168089638Y-195614567D01*
X168104806Y-195460569D01*
X168135000Y-195308771D01*
X168135000Y-170135000D01*
X169846005Y-170135000D01*
X170000000Y-170150167D01*
X170153995Y-170135000D01*
X170154002Y-170135000D01*
X170614567Y-170089638D01*
X171205517Y-169910376D01*
X171750140Y-169619269D01*
X172227505Y-169227505D01*
X172325683Y-169107875D01*
X179607881Y-161825678D01*
X179727505Y-161727505D01*
X180119269Y-161250140D01*
X180362823Y-160794483D01*
X180410376Y-160705518D01*
X180589638Y-160114567D01*
X180599491Y-160014524D01*
X180635000Y-159654002D01*
X180635000Y-159653995D01*
X180650167Y-159500000D01*
X180635000Y-159346005D01*
X180635000Y-142228864D01*
X180646601Y-142149837D01*
X180635000Y-141920718D01*
X180635000Y-141845998D01*
X180627214Y-141766946D01*
X180615373Y-141533087D01*
X180597004Y-141460218D01*
X180589638Y-141385433D01*
X180521663Y-141161349D01*
X180464422Y-140934279D01*
X180432190Y-140866396D01*
X180410376Y-140794483D01*
X180299983Y-140587952D01*
X180199549Y-140376427D01*
X180154696Y-140316140D01*
X180119269Y-140249860D01*
X179970706Y-140068836D01*
X179923304Y-140005122D01*
X179873057Y-139949850D01*
X179727505Y-139772495D01*
X179665755Y-139721818D01*
X174873061Y-134449855D01*
X174727505Y-134272495D01*
X174546478Y-134123930D01*
X174372744Y-133966942D01*
X174308235Y-133928409D01*
X174250140Y-133880731D01*
X174043610Y-133770338D01*
X173842585Y-133650259D01*
X173771794Y-133625050D01*
X173705517Y-133589624D01*
X173481423Y-133521646D01*
X173260830Y-133443091D01*
X173186480Y-133432177D01*
X173114567Y-133410362D01*
X172881521Y-133387409D01*
X172649838Y-133353398D01*
X172420707Y-133365000D01*
X140011433Y-133365000D01*
X139714520Y-133362795D01*
X139551061Y-133394049D01*
X139385433Y-133410362D01*
X139248503Y-133451899D01*
X139107967Y-133478770D01*
X138953749Y-133541311D01*
X138794483Y-133589624D01*
X138532485Y-133729665D01*
X119227084Y-143865000D01*
X64845998Y-143865000D01*
X64385433Y-143910362D01*
X63794483Y-144089624D01*
X63249860Y-144380731D01*
X62772495Y-144772495D01*
X62380731Y-145249860D01*
X62089624Y-145794483D01*
X61910362Y-146385433D01*
X61849832Y-147000000D01*
X61910362Y-147614567D01*
X62089624Y-148205517D01*
X62380731Y-148750140D01*
X62772495Y-149227505D01*
X63249860Y-149619269D01*
X63794483Y-149910376D01*
X64385433Y-150089638D01*
X64845998Y-150135000D01*
X119988567Y-150135000D01*
X120285479Y-150137205D01*
X120448937Y-150105951D01*
X120614567Y-150089638D01*
X120751498Y-150048101D01*
X120892032Y-150021230D01*
X121046247Y-149958690D01*
X121205517Y-149910376D01*
X121467569Y-149770306D01*
X140772917Y-139635000D01*
X171113171Y-139635000D01*
X174365000Y-143212013D01*
X174365001Y-158201440D01*
X168701442Y-163865000D01*
X168135000Y-163865000D01*
X168135000Y-156691229D01*
X168104806Y-156539431D01*
X168089638Y-156385433D01*
X168044719Y-156237353D01*
X168014524Y-156085554D01*
X167955296Y-155942566D01*
X167910376Y-155794483D01*
X167837427Y-155658005D01*
X167778201Y-155515021D01*
X167692218Y-155386338D01*
X167619269Y-155249860D01*
X167521098Y-155130239D01*
X167435114Y-155001554D01*
X167325674Y-154892114D01*
X167227505Y-154772495D01*
X167107887Y-154674327D01*
X166998446Y-154564886D01*
X166869757Y-154478899D01*
X166750139Y-154380731D01*
X166613666Y-154307784D01*
X166484979Y-154221799D01*
X166341990Y-154162571D01*
X166205516Y-154089624D01*
X166057437Y-154044705D01*
X165914446Y-153985476D01*
X165762644Y-153955281D01*
X165614566Y-153910362D01*
X165460569Y-153895195D01*
X165308771Y-153865000D01*
X165154002Y-153865000D01*
X165000000Y-153849832D01*
X164845998Y-153865000D01*
X164691229Y-153865000D01*
X164539431Y-153895194D01*
X164385433Y-153910362D01*
X164237353Y-153955281D01*
X164085554Y-153985476D01*
X163942566Y-154044704D01*
X163794483Y-154089624D01*
X163658005Y-154162573D01*
X163515021Y-154221799D01*
X163386338Y-154307782D01*
X163249860Y-154380731D01*
X163130239Y-154478902D01*
X163001554Y-154564886D01*
X162892114Y-154674326D01*
X162772495Y-154772495D01*
X162674327Y-154892113D01*
X162564886Y-155001554D01*
X162478899Y-155130243D01*
X162380731Y-155249861D01*
X162307784Y-155386334D01*
X162221799Y-155515021D01*
X162162571Y-155658010D01*
X162089624Y-155794484D01*
X162044705Y-155942563D01*
X161985476Y-156085554D01*
X161955281Y-156237356D01*
X161910362Y-156385434D01*
X161895195Y-156539430D01*
X161865000Y-156691229D01*
X161865000Y-166845995D01*
X161849832Y-167000000D01*
X161865000Y-167154005D01*
X161865001Y-188789206D01*
X160879208Y-189775000D01*
X118620793Y-189775000D01*
X117499903Y-188654110D01*
X117500000Y-188654120D01*
X117869523Y-188617725D01*
X118224847Y-188509939D01*
X118552317Y-188334903D01*
X118839345Y-188099345D01*
X119074903Y-187812317D01*
X119249939Y-187484848D01*
X119357725Y-187129524D01*
X119385000Y-186852597D01*
X119385000Y-183885000D01*
X119507411Y-183885000D01*
X119600000Y-183894119D01*
X119692589Y-183885000D01*
X119692597Y-183885000D01*
X119969524Y-183857725D01*
X120324848Y-183749939D01*
X120652317Y-183574903D01*
X120939345Y-183339345D01*
X120998374Y-183267418D01*
X131398372Y-172867421D01*
X131574902Y-172652318D01*
X131749938Y-172324849D01*
X131857725Y-171969525D01*
X131864251Y-171903261D01*
X131894120Y-171600000D01*
X131857725Y-171230476D01*
X131749938Y-170875151D01*
X131574903Y-170547683D01*
X131339345Y-170260655D01*
X131052317Y-170025097D01*
X130724849Y-169850062D01*
X130369524Y-169742275D01*
X130000000Y-169705880D01*
X129696739Y-169735749D01*
X129630475Y-169742275D01*
X129275151Y-169850062D01*
X128947682Y-170025098D01*
X128732579Y-170201628D01*
X119385000Y-179549208D01*
X119385000Y-179407403D01*
X119357725Y-179130476D01*
X119249939Y-178775152D01*
X119138072Y-178565864D01*
X119138072Y-178500000D01*
X119125812Y-178375518D01*
X119089502Y-178255820D01*
X119030537Y-178145506D01*
X118951185Y-178048815D01*
X118854494Y-177969463D01*
X118744180Y-177910498D01*
X118624482Y-177874188D01*
X118500000Y-177861928D01*
X118434136Y-177861928D01*
X118224848Y-177750061D01*
X117869524Y-177642275D01*
X117500000Y-177605880D01*
X117130477Y-177642275D01*
X116976944Y-177688849D01*
X118898372Y-175767421D01*
X119074902Y-175552318D01*
X119249938Y-175224849D01*
X119357724Y-174869525D01*
X119394119Y-174500001D01*
X119357724Y-174130477D01*
X119249938Y-173775152D01*
X119074902Y-173447684D01*
X118839344Y-173160656D01*
X118552316Y-172925098D01*
X118224848Y-172750062D01*
X117869523Y-172642276D01*
X117499999Y-172605881D01*
X117130475Y-172642276D01*
X116775151Y-172750062D01*
X116447682Y-172925098D01*
X116232579Y-173101628D01*
X112822577Y-176511631D01*
X112750656Y-176570655D01*
X112691631Y-176642577D01*
X112691628Y-176642580D01*
X112515098Y-176857683D01*
X112340062Y-177185152D01*
X112232275Y-177540476D01*
X112195881Y-177910000D01*
X112205001Y-178002599D01*
X112205000Y-183572524D01*
X108718398Y-180318715D01*
X108497330Y-180149714D01*
X108164015Y-179986085D01*
X107805182Y-179890628D01*
X107434622Y-179867009D01*
X107277859Y-179887934D01*
X117630801Y-169534992D01*
X141757419Y-169534992D01*
X141850008Y-169544111D01*
X141942597Y-169534992D01*
X141942605Y-169534992D01*
X142219532Y-169507717D01*
X142574856Y-169399931D01*
X142902325Y-169224895D01*
X143189353Y-168989337D01*
X143248382Y-168917410D01*
X158140365Y-154025427D01*
X158691229Y-154135000D01*
X159308771Y-154135000D01*
X159914446Y-154014524D01*
X160484979Y-153778201D01*
X160998446Y-153435114D01*
X161435114Y-152998446D01*
X161778201Y-152484979D01*
X162014524Y-151914446D01*
X162135000Y-151308771D01*
X162135000Y-150691229D01*
X162014524Y-150085554D01*
X161778201Y-149515021D01*
X161435114Y-149001554D01*
X160998446Y-148564886D01*
X160484979Y-148221799D01*
X159914446Y-147985476D01*
X159308771Y-147865000D01*
X158691229Y-147865000D01*
X158085554Y-147985476D01*
X157515021Y-148221799D01*
X157001554Y-148564886D01*
X156564886Y-149001554D01*
X156221799Y-149515021D01*
X155985476Y-150085554D01*
X155865000Y-150691229D01*
X155865000Y-150969208D01*
X141069216Y-165764992D01*
X116942594Y-165764992D01*
X116850007Y-165755873D01*
X116757420Y-165764992D01*
X116757411Y-165764992D01*
X116480484Y-165792267D01*
X116125160Y-165900053D01*
X115797691Y-166075089D01*
X115797689Y-166075090D01*
X115797690Y-166075090D01*
X115582587Y-166251620D01*
X115582585Y-166251622D01*
X115510663Y-166310647D01*
X115451638Y-166382569D01*
X99133510Y-182700697D01*
X99223312Y-182546057D01*
X99343551Y-182194751D01*
X99392944Y-181826738D01*
X99369591Y-181456161D01*
X99274392Y-181097259D01*
X99111003Y-180763827D01*
X98942161Y-180542637D01*
X93365000Y-174557844D01*
X93365000Y-174407403D01*
X93337725Y-174130476D01*
X93318072Y-174065689D01*
X93318072Y-173300000D01*
X93305812Y-173175518D01*
X93269502Y-173055820D01*
X93210537Y-172945506D01*
X93131185Y-172848815D01*
X93034494Y-172769463D01*
X92924180Y-172710498D01*
X92804482Y-172674188D01*
X92680000Y-172661928D01*
X91914310Y-172661928D01*
X91849523Y-172642275D01*
X91480000Y-172605880D01*
X91110476Y-172642275D01*
X91045689Y-172661928D01*
X90280000Y-172661928D01*
X90155518Y-172674188D01*
X90035820Y-172710498D01*
X89925506Y-172769463D01*
X89828815Y-172848815D01*
X89749463Y-172945506D01*
X89690498Y-173055820D01*
X89654188Y-173175518D01*
X89641928Y-173300000D01*
X89641928Y-174065690D01*
X89622275Y-174130477D01*
X89595000Y-174407404D01*
X89595000Y-175174080D01*
X89587057Y-175233262D01*
X89595000Y-175359311D01*
X89595000Y-175392597D01*
X89600823Y-175451723D01*
X89610409Y-175603838D01*
X89618993Y-175636198D01*
X89622275Y-175669524D01*
X89646932Y-175750807D01*
X89654188Y-175824482D01*
X89690498Y-175944180D01*
X89725395Y-176009467D01*
X89730061Y-176024848D01*
X89801934Y-176159312D01*
X89868998Y-176296172D01*
X89889310Y-176322781D01*
X89905097Y-176352317D01*
X90001813Y-176470166D01*
X90037840Y-176517362D01*
X90060521Y-176541701D01*
X90140656Y-176639345D01*
X90186820Y-176677231D01*
X96184096Y-183112847D01*
X96392845Y-183296847D01*
X96713943Y-183483312D01*
X97065249Y-183603551D01*
X97374073Y-183645000D01*
X83817403Y-183645000D01*
X83540476Y-183672275D01*
X83185152Y-183780061D01*
X82857683Y-183955097D01*
X82570655Y-184190655D01*
X82335097Y-184477683D01*
X82160061Y-184805152D01*
X82052275Y-185160476D01*
X82015880Y-185530000D01*
X82052275Y-185899524D01*
X82160061Y-186254848D01*
X82335097Y-186582317D01*
X82386540Y-186645000D01*
X80907403Y-186645000D01*
X80630476Y-186672275D01*
X80275152Y-186780061D01*
X79947683Y-186955097D01*
X79660655Y-187190655D01*
X79425097Y-187477683D01*
X79250061Y-187805152D01*
X79142275Y-188160476D01*
X79108503Y-188503372D01*
X79006992Y-188401861D01*
X79006988Y-188401856D01*
X78015000Y-187409869D01*
X78015000Y-178935741D01*
X78020490Y-178879999D01*
X78015000Y-178824257D01*
X78015000Y-178824248D01*
X77998577Y-178657501D01*
X77933676Y-178443553D01*
X77828284Y-178246377D01*
X77686449Y-178073551D01*
X77643141Y-178038009D01*
X76826848Y-177221716D01*
X76835000Y-177180732D01*
X76835000Y-176819268D01*
X76764482Y-176464750D01*
X76626156Y-176130801D01*
X76425338Y-175830256D01*
X76169744Y-175574662D01*
X75869199Y-175373844D01*
X75535250Y-175235518D01*
X75180732Y-175165000D01*
X74819268Y-175165000D01*
X74464750Y-175235518D01*
X74130801Y-175373844D01*
X73830256Y-175574662D01*
X73574662Y-175830256D01*
X73373844Y-176130801D01*
X73235518Y-176464750D01*
X73165000Y-176819268D01*
X73165000Y-177180732D01*
X73235518Y-177535250D01*
X73373844Y-177869199D01*
X73574662Y-178169744D01*
X73830256Y-178425338D01*
X74130801Y-178626156D01*
X74464750Y-178764482D01*
X74819268Y-178835000D01*
X75180732Y-178835000D01*
X75221716Y-178826848D01*
X75745001Y-179350133D01*
X75745000Y-183365000D01*
X73294286Y-183365000D01*
X73156043Y-183272629D01*
X73101412Y-183250000D01*
X73156043Y-183227371D01*
X73382886Y-183075799D01*
X73575799Y-182882886D01*
X73727371Y-182656043D01*
X73831775Y-182403989D01*
X73885000Y-182136411D01*
X73885000Y-181863589D01*
X73831775Y-181596011D01*
X73727371Y-181343957D01*
X73635000Y-181205714D01*
X73635000Y-179555752D01*
X73640491Y-179500000D01*
X73621618Y-179308372D01*
X73618577Y-179277501D01*
X73553676Y-179063553D01*
X73448284Y-178866377D01*
X73306449Y-178693551D01*
X73133623Y-178551716D01*
X72936447Y-178446324D01*
X72722499Y-178381423D01*
X72500000Y-178359509D01*
X72444249Y-178365000D01*
X66885000Y-178365000D01*
X66885000Y-176907403D01*
X66857725Y-176630476D01*
X66749939Y-176275152D01*
X66574903Y-175947683D01*
X66339345Y-175660655D01*
X66052317Y-175425097D01*
X65724848Y-175250061D01*
X65369524Y-175142275D01*
X65000000Y-175105880D01*
X64630477Y-175142275D01*
X64275153Y-175250061D01*
X63947684Y-175425097D01*
X63660656Y-175660655D01*
X63425098Y-175947683D01*
X63250062Y-176275152D01*
X63142276Y-176630476D01*
X63115001Y-176907403D01*
X63115000Y-178365000D01*
X62037337Y-178365000D01*
X61973137Y-178359634D01*
X61870410Y-178371287D01*
X61767501Y-178381423D01*
X61759400Y-178383881D01*
X61750986Y-178384835D01*
X61652512Y-178416305D01*
X61553553Y-178446324D01*
X61546082Y-178450317D01*
X61538022Y-178452893D01*
X61447611Y-178502951D01*
X61356377Y-178551716D01*
X61349830Y-178557089D01*
X61342425Y-178561189D01*
X61263483Y-178627952D01*
X61183551Y-178693551D01*
X61142679Y-178743354D01*
X45238035Y-195125419D01*
X45185656Y-195115000D01*
X44814344Y-195115000D01*
X44450166Y-195187439D01*
X44107118Y-195329534D01*
X43798382Y-195535825D01*
X43535825Y-195798382D01*
X43329534Y-196107118D01*
X43187439Y-196450166D01*
X43115000Y-196814344D01*
X22127000Y-196814344D01*
X22127000Y-149023757D01*
X29349922Y-149023757D01*
X29381252Y-149319012D01*
X29410362Y-149614566D01*
X29413826Y-149625985D01*
X29415085Y-149637850D01*
X29503406Y-149921291D01*
X29589624Y-150205516D01*
X29668160Y-150352446D01*
X35048144Y-163068777D01*
X35089624Y-163205517D01*
X35168155Y-163352439D01*
X35172772Y-163363351D01*
X35240740Y-163488235D01*
X35380731Y-163750140D01*
X35388302Y-163759365D01*
X35394004Y-163769842D01*
X35584103Y-163997949D01*
X35772495Y-164227505D01*
X35781716Y-164235073D01*
X35789356Y-164244240D01*
X36020326Y-164430895D01*
X36249860Y-164619269D01*
X36260384Y-164624894D01*
X36269663Y-164632393D01*
X36532528Y-164770358D01*
X36794483Y-164910376D01*
X36805906Y-164913841D01*
X36816465Y-164919383D01*
X37101209Y-165003420D01*
X37385433Y-165089638D01*
X37397305Y-165090807D01*
X37408750Y-165094185D01*
X37704467Y-165121060D01*
X37845998Y-165135000D01*
X37857849Y-165135000D01*
X38023757Y-165150078D01*
X38165851Y-165135000D01*
X47346005Y-165135000D01*
X47500000Y-165150167D01*
X47653995Y-165135000D01*
X47654002Y-165135000D01*
X48114567Y-165089638D01*
X48705517Y-164910376D01*
X49250140Y-164619269D01*
X49727505Y-164227505D01*
X49825683Y-164107875D01*
X59607881Y-154325678D01*
X59727505Y-154227505D01*
X60119269Y-153750140D01*
X60308975Y-153395224D01*
X60410376Y-153205518D01*
X60589638Y-152614567D01*
X60650168Y-152000000D01*
X60635000Y-151845998D01*
X60635000Y-146845998D01*
X60589638Y-146385433D01*
X60410376Y-145794483D01*
X60119269Y-145249860D01*
X59727505Y-144772495D01*
X59250139Y-144380731D01*
X58705516Y-144089624D01*
X58114566Y-143910362D01*
X57500000Y-143849832D01*
X56885433Y-143910362D01*
X56294483Y-144089624D01*
X55749860Y-144380731D01*
X55272495Y-144772495D01*
X54880731Y-145249861D01*
X54589624Y-145794484D01*
X54410362Y-146385434D01*
X54365000Y-146845999D01*
X54365001Y-150701440D01*
X46201442Y-158865000D01*
X40077683Y-158865000D01*
X37094713Y-151814344D01*
X43115000Y-151814344D01*
X43115000Y-152185656D01*
X43187439Y-152549834D01*
X43329534Y-152892882D01*
X43535825Y-153201618D01*
X43798382Y-153464175D01*
X44107118Y-153670466D01*
X44450166Y-153812561D01*
X44814344Y-153885000D01*
X45185656Y-153885000D01*
X45549834Y-153812561D01*
X45892882Y-153670466D01*
X46201618Y-153464175D01*
X46464175Y-153201618D01*
X46670466Y-152892882D01*
X46812561Y-152549834D01*
X46885000Y-152185656D01*
X46885000Y-151814344D01*
X46812561Y-151450166D01*
X46670466Y-151107118D01*
X46464175Y-150798382D01*
X46201618Y-150535825D01*
X46135000Y-150491312D01*
X46135000Y-138121440D01*
X53558904Y-130945000D01*
X53964183Y-130945000D01*
X54021495Y-131002312D01*
X54272905Y-131170299D01*
X54552257Y-131286011D01*
X54848816Y-131345000D01*
X55151184Y-131345000D01*
X55447743Y-131286011D01*
X55727095Y-131170299D01*
X55978505Y-131002312D01*
X56192312Y-130788505D01*
X56360299Y-130537095D01*
X56476011Y-130257743D01*
X56535000Y-129961184D01*
X56535000Y-129658816D01*
X56476011Y-129362257D01*
X56360299Y-129082905D01*
X56192312Y-128831495D01*
X55978505Y-128617688D01*
X55727095Y-128449701D01*
X55447743Y-128333989D01*
X55151184Y-128275000D01*
X54848816Y-128275000D01*
X54552257Y-128333989D01*
X54272905Y-128449701D01*
X54021495Y-128617688D01*
X53964183Y-128675000D01*
X53165396Y-128675000D01*
X53119327Y-128669673D01*
X53053888Y-128675000D01*
X53044248Y-128675000D01*
X52998318Y-128679524D01*
X52896489Y-128687813D01*
X52887157Y-128690472D01*
X52877501Y-128691423D01*
X52779729Y-128721082D01*
X52681472Y-128749079D01*
X52672838Y-128753507D01*
X52663553Y-128756324D01*
X52573437Y-128804491D01*
X52482538Y-128851115D01*
X52474936Y-128857141D01*
X52466377Y-128861716D01*
X52387372Y-128926554D01*
X52351235Y-128955200D01*
X52344311Y-128961893D01*
X52293551Y-129003551D01*
X52264126Y-129039405D01*
X44244307Y-136791897D01*
X44193552Y-136833551D01*
X44128734Y-136912532D01*
X44062591Y-136990398D01*
X44057873Y-136998876D01*
X44051717Y-137006377D01*
X44003555Y-137096482D01*
X43953872Y-137185760D01*
X43950898Y-137194998D01*
X43946325Y-137203553D01*
X43916672Y-137301305D01*
X43885355Y-137398577D01*
X43884240Y-137408217D01*
X43881424Y-137417501D01*
X43871412Y-137519153D01*
X43859673Y-137620673D01*
X43865001Y-137686124D01*
X43865000Y-150491312D01*
X43798382Y-150535825D01*
X43535825Y-150798382D01*
X43329534Y-151107118D01*
X43187439Y-151450166D01*
X43115000Y-151814344D01*
X37094713Y-151814344D01*
X35635000Y-148364114D01*
X35635000Y-140845998D01*
X35589638Y-140385433D01*
X35410376Y-139794483D01*
X35119269Y-139249860D01*
X34727505Y-138772495D01*
X34250140Y-138380731D01*
X33705517Y-138089624D01*
X33114567Y-137910362D01*
X32500000Y-137849832D01*
X31885434Y-137910362D01*
X31294484Y-138089624D01*
X30749861Y-138380731D01*
X30272496Y-138772495D01*
X29880732Y-139249860D01*
X29589625Y-139794483D01*
X29410363Y-140385433D01*
X29365001Y-140845998D01*
X29365000Y-148857849D01*
X29349922Y-149023757D01*
X22127000Y-149023757D01*
X22127000Y-102976243D01*
X29349922Y-102976243D01*
X29365000Y-103142151D01*
X29365001Y-112654002D01*
X29410363Y-113114567D01*
X29589625Y-113705517D01*
X29861928Y-114214960D01*
X29861928Y-114500000D01*
X29874188Y-114624482D01*
X29910498Y-114744180D01*
X29969463Y-114854494D01*
X30048815Y-114951185D01*
X30145506Y-115030537D01*
X30255820Y-115089502D01*
X30375518Y-115125812D01*
X30500000Y-115138072D01*
X30785039Y-115138072D01*
X31294484Y-115410376D01*
X31885434Y-115589638D01*
X32500000Y-115650168D01*
X33114567Y-115589638D01*
X33705517Y-115410376D01*
X34214962Y-115138072D01*
X34500000Y-115138072D01*
X34624482Y-115125812D01*
X34744180Y-115089502D01*
X34854494Y-115030537D01*
X34951185Y-114951185D01*
X35030537Y-114854494D01*
X35089502Y-114744180D01*
X35125812Y-114624482D01*
X35138072Y-114500000D01*
X35138072Y-114214962D01*
X35410376Y-113705517D01*
X35589638Y-113114567D01*
X35635000Y-112654002D01*
X35635000Y-103635886D01*
X37251806Y-99814344D01*
X43115000Y-99814344D01*
X43115000Y-100185656D01*
X43187439Y-100549834D01*
X43329534Y-100892882D01*
X43535825Y-101201618D01*
X43798382Y-101464175D01*
X43865000Y-101508688D01*
X43865001Y-114313876D01*
X43859673Y-114379327D01*
X43871412Y-114480847D01*
X43881424Y-114582499D01*
X43884240Y-114591783D01*
X43885355Y-114601423D01*
X43916672Y-114698695D01*
X43946325Y-114796447D01*
X43950898Y-114805002D01*
X43953872Y-114814240D01*
X44003555Y-114903518D01*
X44051717Y-114993623D01*
X44057873Y-115001124D01*
X44062591Y-115009602D01*
X44128734Y-115087468D01*
X44193552Y-115166449D01*
X44244307Y-115208103D01*
X52264126Y-122960595D01*
X52293551Y-122996449D01*
X52344311Y-123038107D01*
X52351235Y-123044800D01*
X52387372Y-123073446D01*
X52466377Y-123138284D01*
X52474936Y-123142859D01*
X52482538Y-123148885D01*
X52573437Y-123195509D01*
X52663553Y-123243676D01*
X52672838Y-123246493D01*
X52681472Y-123250921D01*
X52779729Y-123278918D01*
X52877501Y-123308577D01*
X52887157Y-123309528D01*
X52896489Y-123312187D01*
X52998318Y-123320476D01*
X53044248Y-123325000D01*
X53053888Y-123325000D01*
X53119327Y-123330327D01*
X53165396Y-123325000D01*
X53507713Y-123325000D01*
X53510498Y-123334180D01*
X53569463Y-123444494D01*
X53648815Y-123541185D01*
X53745506Y-123620537D01*
X53855820Y-123679502D01*
X53975518Y-123715812D01*
X54100000Y-123728072D01*
X55900000Y-123728072D01*
X56024482Y-123715812D01*
X56144180Y-123679502D01*
X56254494Y-123620537D01*
X56351185Y-123541185D01*
X56430537Y-123444494D01*
X56489502Y-123334180D01*
X56525812Y-123214482D01*
X56538072Y-123090000D01*
X56538072Y-121290000D01*
X56525812Y-121165518D01*
X56489502Y-121045820D01*
X56430537Y-120935506D01*
X56351185Y-120838815D01*
X56254494Y-120759463D01*
X56144180Y-120700498D01*
X56024482Y-120664188D01*
X55900000Y-120651928D01*
X54100000Y-120651928D01*
X53975518Y-120664188D01*
X53855820Y-120700498D01*
X53745506Y-120759463D01*
X53648815Y-120838815D01*
X53569463Y-120935506D01*
X53523753Y-121021021D01*
X46135000Y-113878560D01*
X46135000Y-112500000D01*
X75645880Y-112500000D01*
X75682275Y-112869524D01*
X75790061Y-113224848D01*
X75965097Y-113552317D01*
X76200655Y-113839345D01*
X76487683Y-114074903D01*
X76815152Y-114249939D01*
X77170476Y-114357725D01*
X77447403Y-114385000D01*
X84459208Y-114385000D01*
X86232579Y-116158372D01*
X86447683Y-116334903D01*
X86775151Y-116509938D01*
X87130476Y-116617725D01*
X87500000Y-116654120D01*
X87869524Y-116617725D01*
X88224849Y-116509938D01*
X88552317Y-116334903D01*
X88839345Y-116099345D01*
X89074903Y-115812317D01*
X89249938Y-115484849D01*
X89357725Y-115129524D01*
X89394120Y-114760000D01*
X89357725Y-114390476D01*
X89249938Y-114035151D01*
X89074903Y-113707683D01*
X88898372Y-113492579D01*
X86638374Y-111232582D01*
X86579345Y-111160655D01*
X86292317Y-110925097D01*
X85964848Y-110750061D01*
X85609524Y-110642275D01*
X85332597Y-110615000D01*
X85332589Y-110615000D01*
X85240000Y-110605881D01*
X85147411Y-110615000D01*
X77447403Y-110615000D01*
X77170476Y-110642275D01*
X76815152Y-110750061D01*
X76487683Y-110925097D01*
X76200655Y-111160655D01*
X75965097Y-111447683D01*
X75790061Y-111775152D01*
X75682275Y-112130476D01*
X75645880Y-112500000D01*
X46135000Y-112500000D01*
X46135000Y-101508688D01*
X46201618Y-101464175D01*
X46464175Y-101201618D01*
X46670466Y-100892882D01*
X46812561Y-100549834D01*
X46885000Y-100185656D01*
X46885000Y-99814344D01*
X46812561Y-99450166D01*
X46670466Y-99107118D01*
X46464175Y-98798382D01*
X46201618Y-98535825D01*
X45892882Y-98329534D01*
X45549834Y-98187439D01*
X45185656Y-98115000D01*
X44814344Y-98115000D01*
X44450166Y-98187439D01*
X44107118Y-98329534D01*
X43798382Y-98535825D01*
X43535825Y-98798382D01*
X43329534Y-99107118D01*
X43187439Y-99450166D01*
X43115000Y-99814344D01*
X37251806Y-99814344D01*
X40077683Y-93135000D01*
X46201442Y-93135000D01*
X54365001Y-101298560D01*
X54365000Y-105154001D01*
X54410362Y-105614566D01*
X54589624Y-106205516D01*
X54880731Y-106750139D01*
X55272495Y-107227505D01*
X55749860Y-107619269D01*
X56294483Y-107910376D01*
X56885433Y-108089638D01*
X57500000Y-108150168D01*
X58114566Y-108089638D01*
X58705516Y-107910376D01*
X59250139Y-107619269D01*
X59727505Y-107227505D01*
X60119269Y-106750140D01*
X60410376Y-106205517D01*
X60589638Y-105614567D01*
X60635000Y-105154002D01*
X60635000Y-100154002D01*
X60650168Y-100000000D01*
X60589638Y-99385433D01*
X60410376Y-98794482D01*
X60272120Y-98535825D01*
X60119269Y-98249860D01*
X59727505Y-97772495D01*
X59607881Y-97674322D01*
X49825683Y-87892125D01*
X49727505Y-87772495D01*
X49250140Y-87380731D01*
X48705517Y-87089624D01*
X48114567Y-86910362D01*
X47654002Y-86865000D01*
X47653995Y-86865000D01*
X47500000Y-86849833D01*
X47346005Y-86865000D01*
X38165851Y-86865000D01*
X38023757Y-86849922D01*
X37857849Y-86865000D01*
X37845998Y-86865000D01*
X37704467Y-86878940D01*
X37408750Y-86905815D01*
X37397305Y-86909193D01*
X37385433Y-86910362D01*
X37101209Y-86996580D01*
X36816465Y-87080617D01*
X36805906Y-87086159D01*
X36794483Y-87089624D01*
X36532528Y-87229642D01*
X36269663Y-87367607D01*
X36260384Y-87375106D01*
X36249860Y-87380731D01*
X36020326Y-87569105D01*
X35789356Y-87755760D01*
X35781716Y-87764927D01*
X35772495Y-87772495D01*
X35584103Y-88002051D01*
X35394004Y-88230158D01*
X35388302Y-88240635D01*
X35380731Y-88249860D01*
X35240740Y-88511765D01*
X35172772Y-88636649D01*
X35168155Y-88647561D01*
X35089624Y-88794483D01*
X35048144Y-88931223D01*
X29668160Y-101647554D01*
X29589624Y-101794484D01*
X29503406Y-102078709D01*
X29415085Y-102362150D01*
X29413826Y-102374015D01*
X29410362Y-102385434D01*
X29381252Y-102680988D01*
X29349922Y-102976243D01*
X22127000Y-102976243D01*
X22127000Y-54814344D01*
X43115000Y-54814344D01*
X43115000Y-55185656D01*
X43187439Y-55549834D01*
X43329534Y-55892882D01*
X43535825Y-56201618D01*
X43798382Y-56464175D01*
X44107118Y-56670466D01*
X44450166Y-56812561D01*
X44814344Y-56885000D01*
X45185656Y-56885000D01*
X45238035Y-56874581D01*
X61142679Y-73256646D01*
X61183551Y-73306449D01*
X61263483Y-73372048D01*
X61342425Y-73438811D01*
X61349830Y-73442911D01*
X61356377Y-73448284D01*
X61447611Y-73497049D01*
X61538022Y-73547107D01*
X61546082Y-73549683D01*
X61553553Y-73553676D01*
X61652512Y-73583695D01*
X61750986Y-73615165D01*
X61759400Y-73616119D01*
X61767501Y-73618577D01*
X61870410Y-73628713D01*
X61973137Y-73640366D01*
X62037337Y-73635000D01*
X63115000Y-73635000D01*
X63115001Y-75092597D01*
X63142276Y-75369524D01*
X63250062Y-75724848D01*
X63425098Y-76052317D01*
X63660656Y-76339345D01*
X63947684Y-76574903D01*
X64275153Y-76749939D01*
X64630477Y-76857725D01*
X65000000Y-76894120D01*
X65369524Y-76857725D01*
X65724848Y-76749939D01*
X66052317Y-76574903D01*
X66339345Y-76339345D01*
X66574903Y-76052317D01*
X66749939Y-75724848D01*
X66857725Y-75369524D01*
X66885000Y-75092597D01*
X66885000Y-73635000D01*
X72444249Y-73635000D01*
X72500000Y-73640491D01*
X72722499Y-73618577D01*
X72936447Y-73553676D01*
X73133623Y-73448284D01*
X73306449Y-73306449D01*
X73448284Y-73133623D01*
X73553676Y-72936447D01*
X73618577Y-72722499D01*
X73635000Y-72555752D01*
X73640491Y-72500000D01*
X73635000Y-72444248D01*
X73635000Y-70794286D01*
X73727371Y-70656043D01*
X73831775Y-70403989D01*
X73885000Y-70136411D01*
X73885000Y-69863589D01*
X73831775Y-69596011D01*
X73727371Y-69343957D01*
X73575799Y-69117114D01*
X73382886Y-68924201D01*
X73156043Y-68772629D01*
X73101412Y-68750000D01*
X73156043Y-68727371D01*
X73294286Y-68635000D01*
X75745000Y-68635000D01*
X75745001Y-72649867D01*
X75221716Y-73173152D01*
X75180732Y-73165000D01*
X74819268Y-73165000D01*
X74464750Y-73235518D01*
X74130801Y-73373844D01*
X73830256Y-73574662D01*
X73574662Y-73830256D01*
X73373844Y-74130801D01*
X73235518Y-74464750D01*
X73165000Y-74819268D01*
X73165000Y-75180732D01*
X73235518Y-75535250D01*
X73373844Y-75869199D01*
X73574662Y-76169744D01*
X73830256Y-76425338D01*
X74130801Y-76626156D01*
X74464750Y-76764482D01*
X74819268Y-76835000D01*
X75180732Y-76835000D01*
X75535250Y-76764482D01*
X75869199Y-76626156D01*
X76169744Y-76425338D01*
X76425338Y-76169744D01*
X76626156Y-75869199D01*
X76764482Y-75535250D01*
X76835000Y-75180732D01*
X76835000Y-74819268D01*
X76826848Y-74778284D01*
X77643141Y-73961991D01*
X77686449Y-73926449D01*
X77828284Y-73753623D01*
X77933676Y-73556447D01*
X77998577Y-73342499D01*
X78015000Y-73175752D01*
X78015000Y-73175743D01*
X78020490Y-73120001D01*
X78015000Y-73064259D01*
X78015000Y-67920131D01*
X83830133Y-62105000D01*
X84021033Y-62105000D01*
X84336912Y-62042168D01*
X84634463Y-61918918D01*
X84902252Y-61739987D01*
X85129987Y-61512252D01*
X85308918Y-61244463D01*
X85432168Y-60946912D01*
X85495000Y-60631033D01*
X85495000Y-60308967D01*
X85432168Y-59993088D01*
X85308918Y-59695537D01*
X85129987Y-59427748D01*
X84902252Y-59200013D01*
X84634463Y-59021082D01*
X84336912Y-58897832D01*
X84021033Y-58835000D01*
X83698967Y-58835000D01*
X83383088Y-58897832D01*
X83085537Y-59021082D01*
X82817748Y-59200013D01*
X82590013Y-59427748D01*
X82411082Y-59695537D01*
X82287832Y-59993088D01*
X82225000Y-60308967D01*
X82225000Y-60499867D01*
X76359869Y-66365000D01*
X73294286Y-66365000D01*
X73156043Y-66272629D01*
X73101412Y-66250000D01*
X73156043Y-66227371D01*
X73382886Y-66075799D01*
X73575799Y-65882886D01*
X73727371Y-65656043D01*
X73831775Y-65403989D01*
X73864212Y-65240919D01*
X82970133Y-56135000D01*
X95992953Y-56135000D01*
X96160655Y-56339345D01*
X96447683Y-56574903D01*
X96775152Y-56749939D01*
X97130476Y-56857725D01*
X97407403Y-56885000D01*
X107592597Y-56885000D01*
X107869524Y-56857725D01*
X108224848Y-56749939D01*
X108552317Y-56574903D01*
X108839345Y-56339345D01*
X109074903Y-56052317D01*
X109249939Y-55724848D01*
X109357725Y-55369524D01*
X109394120Y-55000000D01*
X109357725Y-54630476D01*
X109249939Y-54275152D01*
X109074903Y-53947683D01*
X108839345Y-53660655D01*
X108552317Y-53425097D01*
X108224848Y-53250061D01*
X107869524Y-53142275D01*
X107592597Y-53115000D01*
X97407403Y-53115000D01*
X97130476Y-53142275D01*
X96775152Y-53250061D01*
X96447683Y-53425097D01*
X96160655Y-53660655D01*
X95992953Y-53865000D01*
X82555752Y-53865000D01*
X82500000Y-53859509D01*
X82277501Y-53881423D01*
X82063553Y-53946324D01*
X81866377Y-54051716D01*
X81736856Y-54158011D01*
X81736854Y-54158013D01*
X81693551Y-54193551D01*
X81658013Y-54236854D01*
X72259081Y-63635788D01*
X72096011Y-63668225D01*
X71843957Y-63772629D01*
X71617114Y-63924201D01*
X71424201Y-64117114D01*
X71272629Y-64343957D01*
X71168225Y-64596011D01*
X71115000Y-64863589D01*
X71115000Y-65136411D01*
X71168225Y-65403989D01*
X71272629Y-65656043D01*
X71424201Y-65882886D01*
X71617114Y-66075799D01*
X71843957Y-66227371D01*
X71898588Y-66250000D01*
X71843957Y-66272629D01*
X71617114Y-66424201D01*
X71424201Y-66617114D01*
X71272629Y-66843957D01*
X71168225Y-67096011D01*
X71115000Y-67363589D01*
X71115000Y-67636411D01*
X71168225Y-67903989D01*
X71272629Y-68156043D01*
X71424201Y-68382886D01*
X71617114Y-68575799D01*
X71843957Y-68727371D01*
X71898588Y-68750000D01*
X71843957Y-68772629D01*
X71617114Y-68924201D01*
X71424201Y-69117114D01*
X71272629Y-69343957D01*
X71168225Y-69596011D01*
X71115000Y-69863589D01*
X71115000Y-70136411D01*
X71168225Y-70403989D01*
X71272629Y-70656043D01*
X71365000Y-70794286D01*
X71365001Y-71365000D01*
X66885000Y-71365000D01*
X66885000Y-70147403D01*
X66857725Y-69870476D01*
X66749939Y-69515152D01*
X66574903Y-69187683D01*
X66339345Y-68900655D01*
X66052317Y-68665097D01*
X65724847Y-68490061D01*
X65369523Y-68382275D01*
X65000000Y-68345880D01*
X64630476Y-68382275D01*
X64275152Y-68490061D01*
X63947683Y-68665097D01*
X63660655Y-68900655D01*
X63425097Y-69187683D01*
X63250061Y-69515153D01*
X63142275Y-69870477D01*
X63115000Y-70147404D01*
X63115000Y-71365000D01*
X62469994Y-71365000D01*
X46864112Y-55290667D01*
X46885000Y-55185656D01*
X46885000Y-54814344D01*
X46812561Y-54450166D01*
X46670466Y-54107118D01*
X46464175Y-53798382D01*
X46201618Y-53535825D01*
X45892882Y-53329534D01*
X45549834Y-53187439D01*
X45185656Y-53115000D01*
X44814344Y-53115000D01*
X44450166Y-53187439D01*
X44107118Y-53329534D01*
X43798382Y-53535825D01*
X43535825Y-53798382D01*
X43329534Y-54107118D01*
X43187439Y-54450166D01*
X43115000Y-54814344D01*
X22127000Y-54814344D01*
X22127000Y-50000000D01*
X58105880Y-50000000D01*
X58142275Y-50369524D01*
X58250061Y-50724848D01*
X58425097Y-51052317D01*
X58660655Y-51339345D01*
X58947683Y-51574903D01*
X59275152Y-51749939D01*
X59630476Y-51857725D01*
X59907403Y-51885000D01*
X63115001Y-51885000D01*
X63115000Y-55092596D01*
X63142275Y-55369523D01*
X63250061Y-55724847D01*
X63425097Y-56052317D01*
X63660655Y-56339345D01*
X63947683Y-56574903D01*
X64275152Y-56749939D01*
X64630476Y-56857725D01*
X65000000Y-56894120D01*
X65369523Y-56857725D01*
X65724847Y-56749939D01*
X66052317Y-56574903D01*
X66339345Y-56339345D01*
X66574903Y-56052317D01*
X66749939Y-55724848D01*
X66857725Y-55369524D01*
X66885000Y-55092597D01*
X66885000Y-51885000D01*
X67352597Y-51885000D01*
X67629524Y-51857725D01*
X67984848Y-51749939D01*
X68312317Y-51574903D01*
X68599345Y-51339345D01*
X68834903Y-51052317D01*
X69009939Y-50724848D01*
X69117725Y-50369524D01*
X69154120Y-50000000D01*
X69117725Y-49630476D01*
X69009939Y-49275152D01*
X68834903Y-48947683D01*
X68599345Y-48660655D01*
X68312317Y-48425097D01*
X67984848Y-48250061D01*
X67629524Y-48142275D01*
X67352597Y-48115000D01*
X65092597Y-48115000D01*
X65000000Y-48105880D01*
X64907403Y-48115000D01*
X59907403Y-48115000D01*
X59630476Y-48142275D01*
X59275152Y-48250061D01*
X58947683Y-48425097D01*
X58660655Y-48660655D01*
X58425097Y-48947683D01*
X58250061Y-49275152D01*
X58142275Y-49630476D01*
X58105880Y-50000000D01*
X22127000Y-50000000D01*
X22127000Y-33122285D01*
X23665000Y-33122285D01*
X23665000Y-33877715D01*
X23812377Y-34618628D01*
X24101467Y-35316554D01*
X24521161Y-35944670D01*
X25055330Y-36478839D01*
X25683446Y-36898533D01*
X26381372Y-37187623D01*
X27122285Y-37335000D01*
X27877715Y-37335000D01*
X28618628Y-37187623D01*
X29316554Y-36898533D01*
X29944670Y-36478839D01*
X30478839Y-35944670D01*
X30898533Y-35316554D01*
X31187623Y-34618628D01*
X31335000Y-33877715D01*
X31335000Y-33122285D01*
X31187623Y-32381372D01*
X30898533Y-31683446D01*
X30478839Y-31055330D01*
X29944670Y-30521161D01*
X29316554Y-30101467D01*
X29071591Y-30000000D01*
X32873000Y-30000000D01*
X32873000Y-37000000D01*
X32875440Y-37024776D01*
X32882667Y-37048601D01*
X32894403Y-37070557D01*
X32910197Y-37089803D01*
X32929443Y-37105597D01*
X32951399Y-37117333D01*
X32975224Y-37124560D01*
X33000000Y-37127000D01*
X60000000Y-37127000D01*
X60024776Y-37124560D01*
X60048601Y-37117333D01*
X60070557Y-37105597D01*
X60089803Y-37089803D01*
X60105597Y-37070557D01*
X60117333Y-37048601D01*
X60124560Y-37024776D01*
X60127000Y-37000000D01*
X60127000Y-33122285D01*
X142665000Y-33122285D01*
X142665000Y-33877715D01*
X142812377Y-34618628D01*
X143101467Y-35316554D01*
X143521161Y-35944670D01*
X144055330Y-36478839D01*
X144683446Y-36898533D01*
X145381372Y-37187623D01*
X146122285Y-37335000D01*
X146877715Y-37335000D01*
X147618628Y-37187623D01*
X148316554Y-36898533D01*
X148944670Y-36478839D01*
X149478839Y-35944670D01*
X149898533Y-35316554D01*
X150187623Y-34618628D01*
X150335000Y-33877715D01*
X150335000Y-33122285D01*
X178665000Y-33122285D01*
X178665000Y-33877715D01*
X178812377Y-34618628D01*
X179101467Y-35316554D01*
X179521161Y-35944670D01*
X180055330Y-36478839D01*
X180683446Y-36898533D01*
X181381372Y-37187623D01*
X182122285Y-37335000D01*
X182877715Y-37335000D01*
X183618628Y-37187623D01*
X184316554Y-36898533D01*
X184944670Y-36478839D01*
X185478839Y-35944670D01*
X185898533Y-35316554D01*
X186187623Y-34618628D01*
X186335000Y-33877715D01*
X186335000Y-33122285D01*
X186187623Y-32381372D01*
X185898533Y-31683446D01*
X185478839Y-31055330D01*
X184944670Y-30521161D01*
X184316554Y-30101467D01*
X183618628Y-29812377D01*
X182877715Y-29665000D01*
X182122285Y-29665000D01*
X181381372Y-29812377D01*
X180683446Y-30101467D01*
X180055330Y-30521161D01*
X179521161Y-31055330D01*
X179101467Y-31683446D01*
X178812377Y-32381372D01*
X178665000Y-33122285D01*
X150335000Y-33122285D01*
X150187623Y-32381372D01*
X149898533Y-31683446D01*
X149478839Y-31055330D01*
X148944670Y-30521161D01*
X148316554Y-30101467D01*
X147618628Y-29812377D01*
X146877715Y-29665000D01*
X146122285Y-29665000D01*
X145381372Y-29812377D01*
X144683446Y-30101467D01*
X144055330Y-30521161D01*
X143521161Y-31055330D01*
X143101467Y-31683446D01*
X142812377Y-32381372D01*
X142665000Y-33122285D01*
X60127000Y-33122285D01*
X60127000Y-30000000D01*
X60124560Y-29975224D01*
X60117333Y-29951399D01*
X60105597Y-29929443D01*
X60089803Y-29910197D01*
X60070557Y-29894403D01*
X60048601Y-29882667D01*
X60024776Y-29875440D01*
X60000000Y-29873000D01*
X33000000Y-29873000D01*
X32975224Y-29875440D01*
X32951399Y-29882667D01*
X32929443Y-29894403D01*
X32910197Y-29910197D01*
X32894403Y-29929443D01*
X32882667Y-29951399D01*
X32875440Y-29975224D01*
X32873000Y-30000000D01*
X29071591Y-30000000D01*
X28618628Y-29812377D01*
X27877715Y-29665000D01*
X27122285Y-29665000D01*
X26381372Y-29812377D01*
X25683446Y-30101467D01*
X25055330Y-30521161D01*
X24521161Y-31055330D01*
X24101467Y-31683446D01*
X23812377Y-32381372D01*
X23665000Y-33122285D01*
X22127000Y-33122285D01*
X22127000Y-28127000D01*
X187873000Y-28127000D01*
X187873000Y-223873000D01*
M02*
