G04 #@! TF.GenerationSoftware,KiCad,Pcbnew,(5.1.2)-2*
G04 #@! TF.CreationDate,2019-10-25T23:49:28+03:00*
G04 #@! TF.ProjectId,JLH,4a4c482e-6b69-4636-9164-5f7063625858,rev?*
G04 #@! TF.SameCoordinates,Original*
G04 #@! TF.FileFunction,Copper,L1,Top*
G04 #@! TF.FilePolarity,Positive*
%FSLAX46Y46*%
G04 Gerber Fmt 4.6, Leading zero omitted, Abs format (unit mm)*
G04 Created by KiCad (PCBNEW (5.1.2)-2) date 2019-10-25 23:49:28*
%MOMM*%
%LPD*%
G04 APERTURE LIST*
%ADD10C,2.500000*%
%ADD11C,1.600000*%
%ADD12R,1.600000X1.600000*%
%ADD13C,2.000000*%
%ADD14R,2.000000X2.000000*%
%ADD15R,2.400000X2.400000*%
%ADD16C,2.400000*%
%ADD17C,1.500000*%
%ADD18C,5.000000*%
%ADD19O,2.400000X2.400000*%
%ADD20R,1.800000X1.800000*%
%ADD21C,1.800000*%
%ADD22C,4.000000*%
%ADD23R,4.000000X4.000000*%
%ADD24C,0.100000*%
%ADD25C,2.700000*%
%ADD26C,6.400000*%
G04 APERTURE END LIST*
D10*
X45000000Y-100000000D03*
X45000000Y-55000000D03*
D11*
X56500000Y-50000000D03*
D12*
X60000000Y-50000000D03*
D13*
X117500000Y-77500000D03*
D14*
X117500000Y-72500000D03*
D15*
X91480000Y-77500000D03*
D16*
X91480000Y-85000000D03*
D17*
X72500000Y-65000000D03*
X72500000Y-67500000D03*
X72500000Y-70000000D03*
D13*
X83860000Y-60470000D03*
X86860000Y-63470000D03*
X83910000Y-66470000D03*
D18*
X165000000Y-45000000D03*
X171000000Y-51000000D03*
X165000000Y-57000000D03*
X165000000Y-107000000D03*
X171000000Y-101000000D03*
X165000000Y-95000000D03*
D16*
X82500000Y-50000000D03*
D19*
X67260000Y-50000000D03*
D16*
X65000000Y-55000000D03*
D19*
X65000000Y-70240000D03*
D16*
X65000000Y-75000000D03*
D19*
X65000000Y-90240000D03*
X75000000Y-90240000D03*
D16*
X75000000Y-75000000D03*
D19*
X97500000Y-70240000D03*
D16*
X97500000Y-55000000D03*
D19*
X117500000Y-65240000D03*
D16*
X117500000Y-50000000D03*
X107500000Y-75000000D03*
D19*
X107500000Y-90240000D03*
D16*
X107500000Y-55000000D03*
D19*
X107500000Y-70240000D03*
D16*
X130000000Y-55000000D03*
D19*
X130000000Y-80400000D03*
D15*
X65000000Y-105000000D03*
D16*
X57500000Y-105000000D03*
D10*
X45000000Y-152000000D03*
X45000000Y-197000000D03*
D12*
X60000000Y-202000000D03*
D11*
X56500000Y-202000000D03*
D14*
X117500000Y-179500000D03*
D13*
X117500000Y-174500000D03*
D15*
X91480000Y-174500000D03*
D16*
X91480000Y-167000000D03*
X57500000Y-147000000D03*
D15*
X65000000Y-147000000D03*
D20*
X75000000Y-112500000D03*
D21*
X77540000Y-112500000D03*
D20*
X55000000Y-122190000D03*
D21*
X55000000Y-124730000D03*
X55000000Y-127270000D03*
X55000000Y-129810000D03*
D22*
X32500000Y-141000000D03*
X32500000Y-131500000D03*
X32500000Y-122000000D03*
D23*
X32500000Y-112500000D03*
D24*
G36*
X76124503Y-124651204D02*
G01*
X76148772Y-124654804D01*
X76172570Y-124660765D01*
X76195670Y-124669030D01*
X76217849Y-124679520D01*
X76238892Y-124692133D01*
X76258598Y-124706748D01*
X76276776Y-124723224D01*
X76293252Y-124741402D01*
X76307867Y-124761108D01*
X76320480Y-124782151D01*
X76330970Y-124804330D01*
X76339235Y-124827430D01*
X76345196Y-124851228D01*
X76348796Y-124875497D01*
X76350000Y-124900001D01*
X76350000Y-127099999D01*
X76348796Y-127124503D01*
X76345196Y-127148772D01*
X76339235Y-127172570D01*
X76330970Y-127195670D01*
X76320480Y-127217849D01*
X76307867Y-127238892D01*
X76293252Y-127258598D01*
X76276776Y-127276776D01*
X76258598Y-127293252D01*
X76238892Y-127307867D01*
X76217849Y-127320480D01*
X76195670Y-127330970D01*
X76172570Y-127339235D01*
X76148772Y-127345196D01*
X76124503Y-127348796D01*
X76099999Y-127350000D01*
X73900001Y-127350000D01*
X73875497Y-127348796D01*
X73851228Y-127345196D01*
X73827430Y-127339235D01*
X73804330Y-127330970D01*
X73782151Y-127320480D01*
X73761108Y-127307867D01*
X73741402Y-127293252D01*
X73723224Y-127276776D01*
X73706748Y-127258598D01*
X73692133Y-127238892D01*
X73679520Y-127217849D01*
X73669030Y-127195670D01*
X73660765Y-127172570D01*
X73654804Y-127148772D01*
X73651204Y-127124503D01*
X73650000Y-127099999D01*
X73650000Y-124900001D01*
X73651204Y-124875497D01*
X73654804Y-124851228D01*
X73660765Y-124827430D01*
X73669030Y-124804330D01*
X73679520Y-124782151D01*
X73692133Y-124761108D01*
X73706748Y-124741402D01*
X73723224Y-124723224D01*
X73741402Y-124706748D01*
X73761108Y-124692133D01*
X73782151Y-124679520D01*
X73804330Y-124669030D01*
X73827430Y-124660765D01*
X73851228Y-124654804D01*
X73875497Y-124651204D01*
X73900001Y-124650000D01*
X76099999Y-124650000D01*
X76124503Y-124651204D01*
X76124503Y-124651204D01*
G37*
D25*
X75000000Y-126000000D03*
X78960000Y-126000000D03*
D17*
X72500000Y-187000000D03*
X72500000Y-184500000D03*
X72500000Y-182000000D03*
D13*
X83860000Y-191530000D03*
X80860000Y-188530000D03*
X83810000Y-185530000D03*
D18*
X165000000Y-207000000D03*
X159000000Y-201000000D03*
X165000000Y-195000000D03*
X165000000Y-145000000D03*
X159000000Y-151000000D03*
X165000000Y-157000000D03*
D19*
X87500000Y-114760000D03*
D16*
X87500000Y-130000000D03*
X82500000Y-202000000D03*
D19*
X67260000Y-202000000D03*
D16*
X65000000Y-197000000D03*
D19*
X65000000Y-181760000D03*
X65000000Y-161760000D03*
D16*
X65000000Y-177000000D03*
D19*
X75000000Y-161760000D03*
D16*
X75000000Y-177000000D03*
X107500000Y-197000000D03*
D19*
X107500000Y-181760000D03*
D16*
X97500000Y-197000000D03*
D19*
X97500000Y-181760000D03*
X117500000Y-186760000D03*
D16*
X117500000Y-202000000D03*
X130000000Y-197000000D03*
D19*
X130000000Y-171600000D03*
X107500000Y-161760000D03*
D16*
X107500000Y-177000000D03*
D26*
X27500000Y-33500000D03*
X27500000Y-218500000D03*
X146500000Y-33500000D03*
X146500000Y-218500000D03*
X182500000Y-33500000D03*
X182500000Y-218500000D03*
D13*
X117000000Y-115500000D03*
X127000000Y-115500000D03*
D15*
X102000000Y-118500000D03*
D16*
X102000000Y-111000000D03*
D13*
X127000000Y-136500000D03*
X117000000Y-136500000D03*
D16*
X102000000Y-141000000D03*
D15*
X102000000Y-133500000D03*
D26*
X182500000Y-126000000D03*
M02*
