M48
; DRILL file {KiCad (5.1.2)-2} date 10/25/2019 11:49:40 PM
; FORMAT={-:-/ absolute / metric / decimal}
; #@! TF.CreationDate,2019-10-25T23:49:40+03:00
; #@! TF.GenerationSoftware,Kicad,Pcbnew,(5.1.2)-2
; #@! TF.FileFunction,Plated,1,2,PTH
FMAT,2
METRIC
T1C0.800
T2C0.900
T3C1.000
T4C1.200
T5C1.500
T6C1.700
T7C2.000
T8C3.000
T9C3.200
%
G90
G05
T1
X56.5Y-202.0
X60.0Y-202.0
X56.5Y-50.0
X60.0Y-50.0
T2
X75.0Y-112.5
X77.54Y-112.5
T3
X117.0Y-115.5
X127.0Y-115.5
X83.86Y-60.47
X83.91Y-66.47
X86.86Y-63.47
X117.5Y-72.5
X117.5Y-77.5
X117.0Y-136.5
X127.0Y-136.5
X117.5Y-174.5
X117.5Y-179.5
X80.86Y-188.53
X83.81Y-185.53
X83.86Y-191.53
T4
X130.0Y-55.0
X130.0Y-80.4
X65.0Y-181.76
X65.0Y-197.0
X91.48Y-77.5
X91.48Y-85.0
X57.5Y-147.0
X65.0Y-147.0
X72.5Y-65.0
X72.5Y-67.5
X72.5Y-70.0
X67.26Y-202.0
X82.5Y-202.0
X65.0Y-75.0
X65.0Y-90.24
X102.0Y-111.0
X102.0Y-118.5
X107.5Y-75.0
X107.5Y-90.24
X97.5Y-55.0
X97.5Y-70.24
X65.0Y-161.76
X65.0Y-177.0
X117.5Y-186.76
X117.5Y-202.0
X87.5Y-114.76
X87.5Y-130.0
X107.5Y-161.76
X107.5Y-177.0
X67.26Y-50.0
X82.5Y-50.0
X107.5Y-181.76
X107.5Y-197.0
X75.0Y-75.0
X75.0Y-90.24
X102.0Y-133.5
X102.0Y-141.0
X107.5Y-55.0
X107.5Y-70.24
X57.5Y-105.0
X65.0Y-105.0
X117.5Y-50.0
X117.5Y-65.24
X55.0Y-122.19
X55.0Y-124.73
X55.0Y-127.27
X55.0Y-129.81
X75.0Y-161.76
X75.0Y-177.0
X97.5Y-181.76
X97.5Y-197.0
X130.0Y-171.6
X130.0Y-197.0
X91.48Y-167.0
X91.48Y-174.5
X65.0Y-55.0
X65.0Y-70.24
X72.5Y-182.0
X72.5Y-184.5
X72.5Y-187.0
T5
X45.0Y-55.0
X45.0Y-100.0
X45.0Y-152.0
X45.0Y-197.0
T6
X75.0Y-126.0
X78.96Y-126.0
T7
X32.5Y-112.5
X32.5Y-122.0
X32.5Y-131.5
X32.5Y-141.0
T8
X159.0Y-201.0
X165.0Y-195.0
X165.0Y-207.0
X165.0Y-45.0
X165.0Y-57.0
X171.0Y-51.0
X159.0Y-151.0
X165.0Y-145.0
X165.0Y-157.0
X165.0Y-95.0
X165.0Y-107.0
X171.0Y-101.0
T9
X146.5Y-33.5
X146.5Y-218.5
X182.5Y-218.5
X182.5Y-126.0
X182.5Y-33.5
X27.5Y-218.5
X27.5Y-33.5
T0
M30
