solid OpenSCAD_Model
  facet normal -1 0 0
    outer loop
      vertex -1.05 -1.5 4.7
      vertex -1.05 1.3 7.85026
      vertex -1.05 1.3 4.7
    endloop
  endfacet
  facet normal -1 0 0
    outer loop
      vertex -1.05 -1.5 9.7
      vertex -1.05 1.3 7.85026
      vertex -1.05 -1.5 4.7
    endloop
  endfacet
  facet normal -1 0 0
    outer loop
      vertex -1.05 1.3 7.85026
      vertex -1.05 -1.5 9.7
      vertex -1.05 0.23205 9.7
    endloop
  endfacet
  facet normal -0 0 1
    outer loop
      vertex -1.05 0.23205 9.7
      vertex 6.15 -1.5 9.7
      vertex 6.15 0.23205 9.7
    endloop
  endfacet
  facet normal 0 0 1
    outer loop
      vertex 6.15 -1.5 9.7
      vertex -1.05 0.23205 9.7
      vertex -1.05 -1.5 9.7
    endloop
  endfacet
  facet normal 1 -0 0
    outer loop
      vertex 6.15 -1.5 9.7
      vertex 6.15 1.3 7.85026
      vertex 6.15 0.23205 9.7
    endloop
  endfacet
  facet normal 1 0 0
    outer loop
      vertex 6.15 1.3 7.85026
      vertex 6.15 -1.5 9.7
      vertex 6.15 -1.5 4.7
    endloop
  endfacet
  facet normal 1 0 0
    outer loop
      vertex 6.15 1.3 7.85026
      vertex 6.15 -1.5 4.7
      vertex 6.15 1.3 4.7
    endloop
  endfacet
  facet normal 0 0 -1
    outer loop
      vertex -1.05 -1.5 4.7
      vertex 6.15 1.3 4.7
      vertex 6.15 -1.5 4.7
    endloop
  endfacet
  facet normal -0 0 -1
    outer loop
      vertex 6.15 1.3 4.7
      vertex -1.05 -1.5 4.7
      vertex -1.05 1.3 4.7
    endloop
  endfacet
  facet normal 0 -1 0
    outer loop
      vertex -1.05 -1.5 4.7
      vertex 6.15 -1.5 9.7
      vertex -1.05 -1.5 9.7
    endloop
  endfacet
  facet normal 0 -1 -0
    outer loop
      vertex 6.15 -1.5 9.7
      vertex -1.05 -1.5 4.7
      vertex 6.15 -1.5 4.7
    endloop
  endfacet
  facet normal 0 1 -0
    outer loop
      vertex 6.15 1.3 4.7
      vertex -1.05 1.3 7.85026
      vertex 6.15 1.3 7.85026
    endloop
  endfacet
  facet normal 0 1 0
    outer loop
      vertex -1.05 1.3 7.85026
      vertex 6.15 1.3 4.7
      vertex -1.05 1.3 4.7
    endloop
  endfacet
  facet normal 0 0.866025 0.5
    outer loop
      vertex 6.15 1.3 7.85026
      vertex -1.05 0.23205 9.7
      vertex 6.15 0.23205 9.7
    endloop
  endfacet
  facet normal 0 0.866025 0.5
    outer loop
      vertex -1.05 0.23205 9.7
      vertex 6.15 1.3 7.85026
      vertex -1.05 1.3 7.85026
    endloop
  endfacet
  facet normal 0 1 -0
    outer loop
      vertex 0.474999 0.0999994 -2
      vertex -0.474999 0.0999994 4.7
      vertex 0.474999 0.0999994 4.7
    endloop
  endfacet
  facet normal 0 1 0
    outer loop
      vertex -0.474999 0.0999994 4.7
      vertex 0.474999 0.0999994 -2
      vertex -0.474999 0.0999994 -2
    endloop
  endfacet
  facet normal 1 -0 0
    outer loop
      vertex 0.474999 -0.0999994 4.7
      vertex 0.474999 0.0999994 -2
      vertex 0.474999 0.0999994 4.7
    endloop
  endfacet
  facet normal 1 0 0
    outer loop
      vertex 0.474999 0.0999994 -2
      vertex 0.474999 -0.0999994 4.7
      vertex 0.474999 -0.0999994 -2
    endloop
  endfacet
  facet normal -1 0 0
    outer loop
      vertex -0.474999 -0.0999994 -2
      vertex -0.474999 0.0999994 4.7
      vertex -0.474999 0.0999994 -2
    endloop
  endfacet
  facet normal -1 -0 0
    outer loop
      vertex -0.474999 0.0999994 4.7
      vertex -0.474999 -0.0999994 -2
      vertex -0.474999 -0.0999994 4.7
    endloop
  endfacet
  facet normal 0 0 -1
    outer loop
      vertex -0.474999 -0.0999994 -2
      vertex 0.474999 0.0999994 -2
      vertex 0.474999 -0.0999994 -2
    endloop
  endfacet
  facet normal -0 0 -1
    outer loop
      vertex 0.474999 0.0999994 -2
      vertex -0.474999 -0.0999994 -2
      vertex -0.474999 0.0999994 -2
    endloop
  endfacet
  facet normal 0 -1 0
    outer loop
      vertex -0.474999 -0.0999994 -2
      vertex 0.474999 -0.0999994 4.7
      vertex -0.474999 -0.0999994 4.7
    endloop
  endfacet
  facet normal 0 -1 -0
    outer loop
      vertex 0.474999 -0.0999994 4.7
      vertex -0.474999 -0.0999994 -2
      vertex 0.474999 -0.0999994 -2
    endloop
  endfacet
  facet normal -0 0 1
    outer loop
      vertex -0.474999 0.0999994 4.7
      vertex 0.474999 -0.0999994 4.7
      vertex 0.474999 0.0999994 4.7
    endloop
  endfacet
  facet normal 0 0 1
    outer loop
      vertex 0.474999 -0.0999994 4.7
      vertex -0.474999 0.0999994 4.7
      vertex -0.474999 -0.0999994 4.7
    endloop
  endfacet
  facet normal 0 1 -0
    outer loop
      vertex 2.975 0.0999994 -2
      vertex 2.025 0.0999994 4.7
      vertex 2.975 0.0999994 4.7
    endloop
  endfacet
  facet normal 0 1 0
    outer loop
      vertex 2.025 0.0999994 4.7
      vertex 2.975 0.0999994 -2
      vertex 2.025 0.0999994 -2
    endloop
  endfacet
  facet normal 1 -0 0
    outer loop
      vertex 2.975 -0.0999994 4.7
      vertex 2.975 0.0999994 -2
      vertex 2.975 0.0999994 4.7
    endloop
  endfacet
  facet normal 1 0 0
    outer loop
      vertex 2.975 0.0999994 -2
      vertex 2.975 -0.0999994 4.7
      vertex 2.975 -0.0999994 -2
    endloop
  endfacet
  facet normal -1 0 0
    outer loop
      vertex 2.025 -0.0999994 -2
      vertex 2.025 0.0999994 4.7
      vertex 2.025 0.0999994 -2
    endloop
  endfacet
  facet normal -1 -0 0
    outer loop
      vertex 2.025 0.0999994 4.7
      vertex 2.025 -0.0999994 -2
      vertex 2.025 -0.0999994 4.7
    endloop
  endfacet
  facet normal 0 0 -1
    outer loop
      vertex 2.025 -0.0999994 -2
      vertex 2.975 0.0999994 -2
      vertex 2.975 -0.0999994 -2
    endloop
  endfacet
  facet normal -0 0 -1
    outer loop
      vertex 2.975 0.0999994 -2
      vertex 2.025 -0.0999994 -2
      vertex 2.025 0.0999994 -2
    endloop
  endfacet
  facet normal 0 -1 0
    outer loop
      vertex 2.025 -0.0999994 -2
      vertex 2.975 -0.0999994 4.7
      vertex 2.025 -0.0999994 4.7
    endloop
  endfacet
  facet normal 0 -1 -0
    outer loop
      vertex 2.975 -0.0999994 4.7
      vertex 2.025 -0.0999994 -2
      vertex 2.975 -0.0999994 -2
    endloop
  endfacet
  facet normal -0 0 1
    outer loop
      vertex 2.025 0.0999994 4.7
      vertex 2.975 -0.0999994 4.7
      vertex 2.975 0.0999994 4.7
    endloop
  endfacet
  facet normal 0 0 1
    outer loop
      vertex 2.975 -0.0999994 4.7
      vertex 2.025 0.0999994 4.7
      vertex 2.025 -0.0999994 4.7
    endloop
  endfacet
  facet normal 0 1 -0
    outer loop
      vertex 5.475 0.0999994 -2
      vertex 4.525 0.0999994 4.7
      vertex 5.475 0.0999994 4.7
    endloop
  endfacet
  facet normal 0 1 0
    outer loop
      vertex 4.525 0.0999994 4.7
      vertex 5.475 0.0999994 -2
      vertex 4.525 0.0999994 -2
    endloop
  endfacet
  facet normal 1 -0 0
    outer loop
      vertex 5.475 -0.0999994 4.7
      vertex 5.475 0.0999994 -2
      vertex 5.475 0.0999994 4.7
    endloop
  endfacet
  facet normal 1 0 0
    outer loop
      vertex 5.475 0.0999994 -2
      vertex 5.475 -0.0999994 4.7
      vertex 5.475 -0.0999994 -2
    endloop
  endfacet
  facet normal -1 0 0
    outer loop
      vertex 4.525 -0.0999994 -2
      vertex 4.525 0.0999994 4.7
      vertex 4.525 0.0999994 -2
    endloop
  endfacet
  facet normal -1 -0 0
    outer loop
      vertex 4.525 0.0999994 4.7
      vertex 4.525 -0.0999994 -2
      vertex 4.525 -0.0999994 4.7
    endloop
  endfacet
  facet normal 0 0 -1
    outer loop
      vertex 4.525 -0.0999994 -2
      vertex 5.475 0.0999994 -2
      vertex 5.475 -0.0999994 -2
    endloop
  endfacet
  facet normal -0 0 -1
    outer loop
      vertex 5.475 0.0999994 -2
      vertex 4.525 -0.0999994 -2
      vertex 4.525 0.0999994 -2
    endloop
  endfacet
  facet normal 0 -1 0
    outer loop
      vertex 4.525 -0.0999994 -2
      vertex 5.475 -0.0999994 4.7
      vertex 4.525 -0.0999994 4.7
    endloop
  endfacet
  facet normal 0 -1 -0
    outer loop
      vertex 5.475 -0.0999994 4.7
      vertex 4.525 -0.0999994 -2
      vertex 5.475 -0.0999994 -2
    endloop
  endfacet
  facet normal -0 0 1
    outer loop
      vertex 4.525 0.0999994 4.7
      vertex 5.475 -0.0999994 4.7
      vertex 5.475 0.0999994 4.7
    endloop
  endfacet
  facet normal 0 0 1
    outer loop
      vertex 5.475 -0.0999994 4.7
      vertex 4.525 0.0999994 4.7
      vertex 4.525 -0.0999994 4.7
    endloop
  endfacet
endsolid OpenSCAD_Model
